<?xml version="1.0" encoding="utf-8" standalone="no"?>
<!DOCTYPE svg PUBLIC "-//W3C//DTD SVG 1.1//EN"
  "http://www.w3.org/Graphics/SVG/1.1/DTD/svg11.dtd">
<svg xmlns:xlink="http://www.w3.org/1999/xlink" width="200.8934pt" height="74.0564pt" viewBox="0 0 200.8934 74.0564" xmlns="http://www.w3.org/2000/svg" version="1.1">
 <metadata>
  <rdf:RDF xmlns:dc="http://purl.org/dc/elements/1.1/" xmlns:cc="http://creativecommons.org/ns#" xmlns:rdf="http://www.w3.org/1999/02/22-rdf-syntax-ns#">
   <cc:Work>
    <dc:type rdf:resource="http://purl.org/dc/dcmitype/StillImage"/>
    <dc:date>2022-07-21T00:46:01.995970</dc:date>
    <dc:format>image/svg+xml</dc:format>
    <dc:creator>
     <cc:Agent>
      <dc:title>Matplotlib v3.5.2, https://matplotlib.org/</dc:title>
     </cc:Agent>
    </dc:creator>
   </cc:Work>
  </rdf:RDF>
 </metadata>
 <defs>
  <style type="text/css">*{stroke-linejoin: round; stroke-linecap: butt}</style>
 </defs>
 <g id="figure_1">
  <g id="patch_1">
   <path d="M 0 74.0564 
L 200.8934 74.0564 
L 200.8934 0 
L 0 0 
L 0 74.0564 
z
" style="fill: none"/>
  </g>
  <g id="axes_1">
   <g id="patch_2">
    <path d="M 139.6997 49.4977 
C 140.673526 49.4977 141.607597 49.110795 142.296196 48.422196 
C 142.984795 47.733597 143.3717 46.799526 143.3717 45.8257 
C 143.3717 44.851874 142.984795 43.917803 142.296196 43.229204 
C 141.607597 42.540605 140.673526 42.1537 139.6997 42.1537 
C 138.725874 42.1537 137.791803 42.540605 137.103204 43.229204 
C 136.414605 43.917803 136.0277 44.851874 136.0277 45.8257 
C 136.0277 46.799526 136.414605 47.733597 137.103204 48.422196 
C 137.791803 49.110795 138.725874 49.4977 139.6997 49.4977 
L 139.6997 49.4977 
z
" clip-path="url(#pb30443098c)" style="fill: none; stroke: #000000; stroke-width: 2; stroke-linejoin: miter"/>
   </g>
   <g id="line2d_1">
    <path d="M 99.3077 60.8197 
L 116.356271 60.719782 
L 118.104843 60.420027 
L 119.853414 59.920435 
L 121.601986 59.221006 
L 123.350557 58.321741 
L 125.536271 56.916639 
L 127.721986 55.199292 
L 129.9077 53.1697 
L 132.093414 50.827863 
L 134.279129 48.173782 
L 136.0277 45.8257 
L 136.0277 45.8257 
L 133.404843 42.378516 
L 131.219129 39.849333 
L 129.033414 37.632394 
L 126.8477 35.7277 
L 124.661986 34.135251 
L 122.476271 32.855047 
L 120.7277 32.0557 
L 118.979129 31.45619 
L 117.230557 31.056516 
L 115.481986 30.85668 
L 114.6077 30.8317 
L 99.3077 30.8317 
L 99.3077 30.8317 
L 101.5109 33.2797 
L 102.90626 35.1157 
L 104.0813 36.9517 
L 105.03602 38.7877 
L 105.77042 40.6237 
L 106.2845 42.4597 
L 106.57826 44.2957 
L 106.6517 46.1317 
L 106.50482 47.9677 
L 106.13762 49.8037 
L 105.5501 51.6397 
L 104.74226 53.4757 
L 103.7141 55.3117 
L 102.46562 57.1477 
L 100.99682 58.9837 
L 99.3077 60.8197 
L 99.3077 60.8197 
" clip-path="url(#pb30443098c)" style="fill: none; stroke: #000000; stroke-width: 2; stroke-linecap: round"/>
   </g>
   <g id="line2d_2">
    <path d="M 88.5977 53.4757 
L 104.74226 53.4757 
" clip-path="url(#pb30443098c)" style="fill: none; stroke: #000000; stroke-width: 2; stroke-linecap: round"/>
   </g>
   <g id="line2d_3">
    <path d="M 88.5977 38.1757 
L 104.74226 38.1757 
" clip-path="url(#pb30443098c)" style="fill: none; stroke: #000000; stroke-width: 2; stroke-linecap: round"/>
   </g>
   <g id="line2d_4">
    <path d="M 143.3717 45.8257 
L 146.7377 45.8257 
" clip-path="url(#pb30443098c)" style="fill: none; stroke: #000000; stroke-width: 2; stroke-linecap: round"/>
   </g>
   <g id="line2d_5">
    <path d="M 38.1077 49.3447 
L 55.156271 49.244782 
L 56.904843 48.945027 
L 58.653414 48.445435 
L 60.401986 47.746006 
L 62.150557 46.846741 
L 64.336271 45.441639 
L 66.521986 43.724292 
L 68.7077 41.6947 
L 70.893414 39.352863 
L 73.079129 36.698782 
L 74.8277 34.3507 
L 74.8277 34.3507 
L 72.204843 30.903516 
L 70.019129 28.374333 
L 67.833414 26.157394 
L 65.6477 24.2527 
L 63.461986 22.660251 
L 61.276271 21.380047 
L 59.5277 20.5807 
L 57.779129 19.98119 
L 56.030557 19.581516 
L 54.281986 19.38168 
L 53.4077 19.3567 
L 38.1077 19.3567 
L 38.1077 19.3567 
L 40.3109 21.8047 
L 41.70626 23.6407 
L 42.8813 25.4767 
L 43.83602 27.3127 
L 44.57042 29.1487 
L 45.0845 30.9847 
L 45.37826 32.8207 
L 45.4517 34.6567 
L 45.30482 36.4927 
L 44.93762 38.3287 
L 44.3501 40.1647 
L 43.54226 42.0007 
L 42.5141 43.8367 
L 41.26562 45.6727 
L 39.79682 47.5087 
L 38.1077 49.3447 
L 38.1077 49.3447 
" clip-path="url(#pb30443098c)" style="fill: none; stroke: #000000; stroke-width: 2; stroke-linecap: round"/>
   </g>
   <g id="line2d_6">
    <path d="M 33.5177 49.3447 
L 34.10522 48.7327 
L 34.66826 48.1207 
L 35.20682 47.5087 
L 35.7209 46.8967 
L 36.2105 46.2847 
L 36.67562 45.6727 
L 37.11626 45.0607 
L 37.53242 44.4487 
L 37.9241 43.8367 
L 38.2913 43.2247 
L 38.63402 42.6127 
L 38.95226 42.0007 
L 39.24602 41.3887 
L 39.5153 40.7767 
L 39.7601 40.1647 
L 39.98042 39.5527 
L 40.17626 38.9407 
L 40.34762 38.3287 
L 40.4945 37.7167 
L 40.6169 37.1047 
L 40.71482 36.4927 
L 40.78826 35.8807 
L 40.83722 35.2687 
L 40.8617 34.6567 
L 40.8617 34.0447 
L 40.83722 33.4327 
L 40.78826 32.8207 
L 40.71482 32.2087 
L 40.6169 31.5967 
L 40.4945 30.9847 
L 40.34762 30.3727 
L 40.17626 29.7607 
L 39.98042 29.1487 
L 39.7601 28.5367 
L 39.5153 27.9247 
L 39.24602 27.3127 
L 38.95226 26.7007 
L 38.63402 26.0887 
L 38.2913 25.4767 
L 37.9241 24.8647 
L 37.53242 24.2527 
L 37.11626 23.6407 
L 36.67562 23.0287 
L 36.2105 22.4167 
L 35.7209 21.8047 
L 35.20682 21.1927 
L 34.66826 20.5807 
L 34.10522 19.9687 
L 33.5177 19.3567 
" clip-path="url(#pb30443098c)" style="fill: none; stroke: #000000; stroke-width: 2; stroke-linecap: round"/>
   </g>
   <g id="line2d_7">
    <path d="M 22.8077 42.0007 
L 38.95226 42.0007 
" clip-path="url(#pb30443098c)" style="fill: none; stroke: #000000; stroke-width: 2; stroke-linecap: round"/>
   </g>
   <g id="line2d_8">
    <path d="M 22.8077 26.7007 
L 38.95226 26.7007 
" clip-path="url(#pb30443098c)" style="fill: none; stroke: #000000; stroke-width: 2; stroke-linecap: round"/>
   </g>
   <g id="line2d_9">
    <path d="M 74.8277 34.3507 
L 85.5377 34.3507 
" clip-path="url(#pb30443098c)" style="fill: none; stroke: #000000; stroke-width: 2; stroke-linecap: round"/>
   </g>
   <g id="line2d_10">
    <path d="M 88.5977 38.1757 
L 85.5377 38.1757 
L 85.5377 34.3507 
" clip-path="url(#pb30443098c)" style="fill: none; stroke: #000000; stroke-width: 2; stroke-linecap: round"/>
   </g>
   <g id="text_1">
    <g clip-path="url(#pb30443098c)">
     <!-- $result$ -->
     <g transform="translate(149.7977 49.274919)scale(0.125 -0.125)">
      <defs>
       <path id="DejaVuSans-Oblique-72" d="M 2853 2969 
Q 2766 3016 2653 3041 
Q 2541 3066 2413 3066 
Q 1953 3066 1609 2717 
Q 1266 2369 1153 1784 
L 800 0 
L 225 0 
L 909 3500 
L 1484 3500 
L 1375 2956 
Q 1603 3259 1920 3421 
Q 2238 3584 2597 3584 
Q 2691 3584 2781 3573 
Q 2872 3563 2963 3538 
L 2853 2969 
z
" transform="scale(0.015625)"/>
       <path id="DejaVuSans-Oblique-65" d="M 3078 2063 
Q 3088 2113 3092 2166 
Q 3097 2219 3097 2272 
Q 3097 2653 2873 2875 
Q 2650 3097 2266 3097 
Q 1838 3097 1509 2826 
Q 1181 2556 1013 2059 
L 3078 2063 
z
M 3578 1613 
L 903 1613 
Q 884 1494 878 1425 
Q 872 1356 872 1306 
Q 872 872 1139 634 
Q 1406 397 1894 397 
Q 2269 397 2603 481 
Q 2938 566 3225 728 
L 3116 159 
Q 2806 34 2476 -28 
Q 2147 -91 1806 -91 
Q 1078 -91 686 257 
Q 294 606 294 1247 
Q 294 1794 489 2264 
Q 684 2734 1063 3103 
Q 1306 3334 1642 3459 
Q 1978 3584 2356 3584 
Q 2950 3584 3301 3228 
Q 3653 2872 3653 2272 
Q 3653 2128 3634 1964 
Q 3616 1800 3578 1613 
z
" transform="scale(0.015625)"/>
       <path id="DejaVuSans-Oblique-73" d="M 3200 3397 
L 3091 2853 
Q 2863 2978 2609 3040 
Q 2356 3103 2088 3103 
Q 1634 3103 1373 2948 
Q 1113 2794 1113 2528 
Q 1113 2219 1719 2053 
Q 1766 2041 1788 2034 
L 1972 1978 
Q 2547 1819 2739 1644 
Q 2931 1469 2931 1166 
Q 2931 609 2489 259 
Q 2047 -91 1331 -91 
Q 1053 -91 747 -37 
Q 441 16 72 128 
L 184 722 
Q 500 559 806 475 
Q 1113 391 1394 391 
Q 1816 391 2080 572 
Q 2344 753 2344 1031 
Q 2344 1331 1650 1516 
L 1591 1531 
L 1394 1581 
Q 956 1697 753 1886 
Q 550 2075 550 2369 
Q 550 2928 970 3256 
Q 1391 3584 2113 3584 
Q 2397 3584 2667 3537 
Q 2938 3491 3200 3397 
z
" transform="scale(0.015625)"/>
       <path id="DejaVuSans-Oblique-75" d="M 428 1388 
L 838 3500 
L 1416 3500 
L 1006 1409 
Q 975 1256 961 1147 
Q 947 1038 947 966 
Q 947 700 1109 554 
Q 1272 409 1569 409 
Q 2031 409 2368 721 
Q 2706 1034 2809 1563 
L 3194 3500 
L 3769 3500 
L 3091 0 
L 2516 0 
L 2631 550 
Q 2388 244 2052 76 
Q 1716 -91 1338 -91 
Q 878 -91 622 161 
Q 366 413 366 863 
Q 366 956 381 1097 
Q 397 1238 428 1388 
z
" transform="scale(0.015625)"/>
       <path id="DejaVuSans-Oblique-6c" d="M 1172 4863 
L 1747 4863 
L 800 0 
L 225 0 
L 1172 4863 
z
" transform="scale(0.015625)"/>
       <path id="DejaVuSans-Oblique-74" d="M 2706 3500 
L 2619 3053 
L 1472 3053 
L 1100 1153 
Q 1081 1047 1072 975 
Q 1063 903 1063 863 
Q 1063 663 1183 572 
Q 1303 481 1569 481 
L 2150 481 
L 2053 0 
L 1503 0 
Q 991 0 739 200 
Q 488 400 488 806 
Q 488 878 497 964 
Q 506 1050 525 1153 
L 897 3053 
L 409 3053 
L 500 3500 
L 978 3500 
L 1172 4494 
L 1747 4494 
L 1556 3500 
L 2706 3500 
z
" transform="scale(0.015625)"/>
      </defs>
      <use xlink:href="#DejaVuSans-Oblique-72" transform="translate(0 0.015625)"/>
      <use xlink:href="#DejaVuSans-Oblique-65" transform="translate(41.113281 0.015625)"/>
      <use xlink:href="#DejaVuSans-Oblique-73" transform="translate(102.636719 0.015625)"/>
      <use xlink:href="#DejaVuSans-Oblique-75" transform="translate(154.736328 0.015625)"/>
      <use xlink:href="#DejaVuSans-Oblique-6c" transform="translate(218.115234 0.015625)"/>
      <use xlink:href="#DejaVuSans-Oblique-74" transform="translate(245.898438 0.015625)"/>
     </g>
    </g>
   </g>
   <g id="text_2">
    <g clip-path="url(#pb30443098c)">
     <!-- h -->
     <g transform="translate(77.615825 56.924919)scale(0.125 -0.125)">
      <defs>
       <path id="DejaVuSans-68" d="M 3513 2113 
L 3513 0 
L 2938 0 
L 2938 2094 
Q 2938 2591 2744 2837 
Q 2550 3084 2163 3084 
Q 1697 3084 1428 2787 
Q 1159 2491 1159 1978 
L 1159 0 
L 581 0 
L 581 4863 
L 1159 4863 
L 1159 2956 
Q 1366 3272 1645 3428 
Q 1925 3584 2291 3584 
Q 2894 3584 3203 3211 
Q 3513 2838 3513 2113 
z
" transform="scale(0.015625)"/>
      </defs>
      <use xlink:href="#DejaVuSans-68"/>
     </g>
    </g>
   </g>
   <g id="text_3">
    <g clip-path="url(#pb30443098c)">
     <!-- l -->
     <g transform="translate(16.275044 30.149919)scale(0.125 -0.125)">
      <defs>
       <path id="DejaVuSans-6c" d="M 603 4863 
L 1178 4863 
L 1178 0 
L 603 0 
L 603 4863 
z
" transform="scale(0.015625)"/>
      </defs>
      <use xlink:href="#DejaVuSans-6c"/>
     </g>
    </g>
   </g>
   <g id="text_4">
    <g clip-path="url(#pb30443098c)">
     <!-- l -->
     <g transform="translate(16.275044 45.449919)scale(0.125 -0.125)">
      <use xlink:href="#DejaVuSans-6c"/>
     </g>
    </g>
   </g>
  </g>
 </g>
 <defs>
  <clipPath id="pb30443098c">
   <rect x="7.2" y="7.2" width="186.4934" height="59.6564"/>
  </clipPath>
 </defs>
</svg>
