<?xml version="1.0" encoding="utf-8" standalone="no"?>
<!DOCTYPE svg PUBLIC "-//W3C//DTD SVG 1.1//EN"
  "http://www.w3.org/Graphics/SVG/1.1/DTD/svg11.dtd">
<svg xmlns:xlink="http://www.w3.org/1999/xlink" width="203.7375pt" height="74.1754pt" viewBox="0 0 203.7375 74.1754" xmlns="http://www.w3.org/2000/svg" version="1.1">
 <metadata>
  <rdf:RDF xmlns:dc="http://purl.org/dc/elements/1.1/" xmlns:cc="http://creativecommons.org/ns#" xmlns:rdf="http://www.w3.org/1999/02/22-rdf-syntax-ns#">
   <cc:Work>
    <dc:type rdf:resource="http://purl.org/dc/dcmitype/StillImage"/>
    <dc:date>2022-07-23T01:00:46.980421</dc:date>
    <dc:format>image/svg+xml</dc:format>
    <dc:creator>
     <cc:Agent>
      <dc:title>Matplotlib v3.5.2, https://matplotlib.org/</dc:title>
     </cc:Agent>
    </dc:creator>
   </cc:Work>
  </rdf:RDF>
 </metadata>
 <defs>
  <style type="text/css">*{stroke-linejoin: round; stroke-linecap: butt}</style>
 </defs>
 <g id="figure_1">
  <g id="patch_1">
   <path d="M 0 74.1754 
L 203.7375 74.1754 
L 203.7375 0 
L 0 0 
L 0 74.1754 
z
" style="fill: none"/>
  </g>
  <g id="axes_1">
   <g id="patch_2">
    <path d="M 142.5438 49.5572 
C 143.517626 49.5572 144.451697 49.170295 145.140296 48.481696 
C 145.828895 47.793097 146.2158 46.859026 146.2158 45.8852 
C 146.2158 44.911374 145.828895 43.977303 145.140296 43.288704 
C 144.451697 42.600105 143.517626 42.2132 142.5438 42.2132 
C 141.569974 42.2132 140.635903 42.600105 139.947304 43.288704 
C 139.258705 43.977303 138.8718 44.911374 138.8718 45.8852 
C 138.8718 46.859026 139.258705 47.793097 139.947304 48.481696 
C 140.635903 49.170295 141.569974 49.5572 142.5438 49.5572 
L 142.5438 49.5572 
z
" clip-path="url(#p7bb1178c57)" style="fill: none; stroke: #000000; stroke-width: 2; stroke-linejoin: miter"/>
   </g>
   <g id="line2d_1">
    <path d="M 123.5718 61.1852 
L 124.552074 61.153765 
L 125.528321 61.059587 
L 126.496527 60.903055 
L 127.452715 60.684811 
L 128.392956 60.405753 
L 129.313385 60.067026 
L 130.210221 59.670024 
L 131.079779 59.216376 
L 131.918484 58.707948 
L 132.722891 58.146828 
L 133.489694 57.535323 
L 134.215743 56.875945 
L 134.898053 56.171404 
L 135.533822 55.424594 
L 136.120435 54.638585 
L 136.655484 53.816606 
L 137.136769 52.962036 
L 137.562313 52.078385 
L 137.930367 51.169285 
L 138.239418 50.238472 
L 138.488197 49.28977 
L 138.675681 48.327078 
L 138.8011 47.354352 
L 138.863939 46.375589 
L 138.863939 45.394811 
L 138.8011 44.416048 
L 138.675681 43.443322 
L 138.488197 42.48063 
L 138.239418 41.531928 
L 137.930367 40.601115 
L 137.562313 39.692015 
L 137.136769 38.808364 
L 136.655484 37.953794 
L 136.120435 37.131815 
L 135.533822 36.345806 
L 134.898053 35.598996 
L 134.215743 34.894455 
L 133.489694 34.235077 
L 132.722891 33.623572 
L 131.918484 33.062452 
L 131.079779 32.554024 
L 130.210221 32.100376 
L 129.313385 31.703374 
L 128.392956 31.364647 
L 127.452715 31.085589 
L 126.496527 30.867345 
L 125.528321 30.710813 
L 124.552074 30.616635 
L 123.5718 30.5852 
L 123.5718 30.5852 
L 103.6818 30.5852 
L 103.6818 45.8852 
L 103.6818 61.1852 
L 123.5718 61.1852 
" clip-path="url(#p7bb1178c57)" style="fill: none; stroke: #000000; stroke-width: 2; stroke-linecap: round"/>
   </g>
   <g id="line2d_2">
    <path d="M 92.9718 53.5352 
L 103.6818 53.5352 
" clip-path="url(#p7bb1178c57)" style="fill: none; stroke: #000000; stroke-width: 2; stroke-linecap: round"/>
   </g>
   <g id="line2d_3">
    <path d="M 92.9718 38.2352 
L 103.6818 38.2352 
" clip-path="url(#p7bb1178c57)" style="fill: none; stroke: #000000; stroke-width: 2; stroke-linecap: round"/>
   </g>
   <g id="line2d_4">
    <path d="M 146.2158 45.8852 
L 149.5818 45.8852 
" clip-path="url(#p7bb1178c57)" style="fill: none; stroke: #000000; stroke-width: 2; stroke-linecap: round"/>
   </g>
   <g id="line2d_5">
    <path d="M 40.9518 49.4042 
L 58.000371 49.304282 
L 59.748943 49.004527 
L 61.497514 48.504935 
L 63.246086 47.805506 
L 64.994657 46.906241 
L 67.180371 45.501139 
L 69.366086 43.783792 
L 71.5518 41.7542 
L 73.737514 39.412363 
L 75.923229 36.758282 
L 77.6718 34.4102 
L 77.6718 34.4102 
L 75.048943 30.963016 
L 72.863229 28.433833 
L 70.677514 26.216894 
L 68.4918 24.3122 
L 66.306086 22.719751 
L 64.120371 21.439547 
L 62.3718 20.6402 
L 60.623229 20.04069 
L 58.874657 19.641016 
L 57.126086 19.44118 
L 56.2518 19.4162 
L 40.9518 19.4162 
L 40.9518 19.4162 
L 43.155 21.8642 
L 44.55036 23.7002 
L 45.7254 25.5362 
L 46.68012 27.3722 
L 47.41452 29.2082 
L 47.9286 31.0442 
L 48.22236 32.8802 
L 48.2958 34.7162 
L 48.14892 36.5522 
L 47.78172 38.3882 
L 47.1942 40.2242 
L 46.38636 42.0602 
L 45.3582 43.8962 
L 44.10972 45.7322 
L 42.64092 47.5682 
L 40.9518 49.4042 
L 40.9518 49.4042 
" clip-path="url(#p7bb1178c57)" style="fill: none; stroke: #000000; stroke-width: 2; stroke-linecap: round"/>
   </g>
   <g id="line2d_6">
    <path d="M 36.3618 49.4042 
L 36.94932 48.7922 
L 37.51236 48.1802 
L 38.05092 47.5682 
L 38.565 46.9562 
L 39.0546 46.3442 
L 39.51972 45.7322 
L 39.96036 45.1202 
L 40.37652 44.5082 
L 40.7682 43.8962 
L 41.1354 43.2842 
L 41.47812 42.6722 
L 41.79636 42.0602 
L 42.09012 41.4482 
L 42.3594 40.8362 
L 42.6042 40.2242 
L 42.82452 39.6122 
L 43.02036 39.0002 
L 43.19172 38.3882 
L 43.3386 37.7762 
L 43.461 37.1642 
L 43.55892 36.5522 
L 43.63236 35.9402 
L 43.68132 35.3282 
L 43.7058 34.7162 
L 43.7058 34.1042 
L 43.68132 33.4922 
L 43.63236 32.8802 
L 43.55892 32.2682 
L 43.461 31.6562 
L 43.3386 31.0442 
L 43.19172 30.4322 
L 43.02036 29.8202 
L 42.82452 29.2082 
L 42.6042 28.5962 
L 42.3594 27.9842 
L 42.09012 27.3722 
L 41.79636 26.7602 
L 41.47812 26.1482 
L 41.1354 25.5362 
L 40.7682 24.9242 
L 40.37652 24.3122 
L 39.96036 23.7002 
L 39.51972 23.0882 
L 39.0546 22.4762 
L 38.565 21.8642 
L 38.05092 21.2522 
L 37.51236 20.6402 
L 36.94932 20.0282 
L 36.3618 19.4162 
" clip-path="url(#p7bb1178c57)" style="fill: none; stroke: #000000; stroke-width: 2; stroke-linecap: round"/>
   </g>
   <g id="line2d_7">
    <path d="M 25.6518 42.0602 
L 41.79636 42.0602 
" clip-path="url(#p7bb1178c57)" style="fill: none; stroke: #000000; stroke-width: 2; stroke-linecap: round"/>
   </g>
   <g id="line2d_8">
    <path d="M 25.6518 26.7602 
L 41.79636 26.7602 
" clip-path="url(#p7bb1178c57)" style="fill: none; stroke: #000000; stroke-width: 2; stroke-linecap: round"/>
   </g>
   <g id="line2d_9">
    <path d="M 77.6718 34.4102 
L 88.3818 34.4102 
" clip-path="url(#p7bb1178c57)" style="fill: none; stroke: #000000; stroke-width: 2; stroke-linecap: round"/>
   </g>
   <g id="line2d_10">
    <path d="M 92.9718 38.2352 
L 88.3818 38.2352 
L 88.3818 34.4102 
" clip-path="url(#p7bb1178c57)" style="fill: none; stroke: #000000; stroke-width: 2; stroke-linecap: round"/>
   </g>
   <g id="text_1">
    <g clip-path="url(#p7bb1178c57)">
     <!-- $result$ -->
     <g transform="translate(152.6418 49.334419)scale(0.125 -0.125)">
      <defs>
       <path id="DejaVuSans-Oblique-72" d="M 2853 2969 
Q 2766 3016 2653 3041 
Q 2541 3066 2413 3066 
Q 1953 3066 1609 2717 
Q 1266 2369 1153 1784 
L 800 0 
L 225 0 
L 909 3500 
L 1484 3500 
L 1375 2956 
Q 1603 3259 1920 3421 
Q 2238 3584 2597 3584 
Q 2691 3584 2781 3573 
Q 2872 3563 2963 3538 
L 2853 2969 
z
" transform="scale(0.015625)"/>
       <path id="DejaVuSans-Oblique-65" d="M 3078 2063 
Q 3088 2113 3092 2166 
Q 3097 2219 3097 2272 
Q 3097 2653 2873 2875 
Q 2650 3097 2266 3097 
Q 1838 3097 1509 2826 
Q 1181 2556 1013 2059 
L 3078 2063 
z
M 3578 1613 
L 903 1613 
Q 884 1494 878 1425 
Q 872 1356 872 1306 
Q 872 872 1139 634 
Q 1406 397 1894 397 
Q 2269 397 2603 481 
Q 2938 566 3225 728 
L 3116 159 
Q 2806 34 2476 -28 
Q 2147 -91 1806 -91 
Q 1078 -91 686 257 
Q 294 606 294 1247 
Q 294 1794 489 2264 
Q 684 2734 1063 3103 
Q 1306 3334 1642 3459 
Q 1978 3584 2356 3584 
Q 2950 3584 3301 3228 
Q 3653 2872 3653 2272 
Q 3653 2128 3634 1964 
Q 3616 1800 3578 1613 
z
" transform="scale(0.015625)"/>
       <path id="DejaVuSans-Oblique-73" d="M 3200 3397 
L 3091 2853 
Q 2863 2978 2609 3040 
Q 2356 3103 2088 3103 
Q 1634 3103 1373 2948 
Q 1113 2794 1113 2528 
Q 1113 2219 1719 2053 
Q 1766 2041 1788 2034 
L 1972 1978 
Q 2547 1819 2739 1644 
Q 2931 1469 2931 1166 
Q 2931 609 2489 259 
Q 2047 -91 1331 -91 
Q 1053 -91 747 -37 
Q 441 16 72 128 
L 184 722 
Q 500 559 806 475 
Q 1113 391 1394 391 
Q 1816 391 2080 572 
Q 2344 753 2344 1031 
Q 2344 1331 1650 1516 
L 1591 1531 
L 1394 1581 
Q 956 1697 753 1886 
Q 550 2075 550 2369 
Q 550 2928 970 3256 
Q 1391 3584 2113 3584 
Q 2397 3584 2667 3537 
Q 2938 3491 3200 3397 
z
" transform="scale(0.015625)"/>
       <path id="DejaVuSans-Oblique-75" d="M 428 1388 
L 838 3500 
L 1416 3500 
L 1006 1409 
Q 975 1256 961 1147 
Q 947 1038 947 966 
Q 947 700 1109 554 
Q 1272 409 1569 409 
Q 2031 409 2368 721 
Q 2706 1034 2809 1563 
L 3194 3500 
L 3769 3500 
L 3091 0 
L 2516 0 
L 2631 550 
Q 2388 244 2052 76 
Q 1716 -91 1338 -91 
Q 878 -91 622 161 
Q 366 413 366 863 
Q 366 956 381 1097 
Q 397 1238 428 1388 
z
" transform="scale(0.015625)"/>
       <path id="DejaVuSans-Oblique-6c" d="M 1172 4863 
L 1747 4863 
L 800 0 
L 225 0 
L 1172 4863 
z
" transform="scale(0.015625)"/>
       <path id="DejaVuSans-Oblique-74" d="M 2706 3500 
L 2619 3053 
L 1472 3053 
L 1100 1153 
Q 1081 1047 1072 975 
Q 1063 903 1063 863 
Q 1063 663 1183 572 
Q 1303 481 1569 481 
L 2150 481 
L 2053 0 
L 1503 0 
Q 991 0 739 200 
Q 488 400 488 806 
Q 488 878 497 964 
Q 506 1050 525 1153 
L 897 3053 
L 409 3053 
L 500 3500 
L 978 3500 
L 1172 4494 
L 1747 4494 
L 1556 3500 
L 2706 3500 
z
" transform="scale(0.015625)"/>
      </defs>
      <use xlink:href="#DejaVuSans-Oblique-72" transform="translate(0 0.015625)"/>
      <use xlink:href="#DejaVuSans-Oblique-65" transform="translate(41.113281 0.015625)"/>
      <use xlink:href="#DejaVuSans-Oblique-73" transform="translate(102.636719 0.015625)"/>
      <use xlink:href="#DejaVuSans-Oblique-75" transform="translate(154.736328 0.015625)"/>
      <use xlink:href="#DejaVuSans-Oblique-6c" transform="translate(218.115234 0.015625)"/>
      <use xlink:href="#DejaVuSans-Oblique-74" transform="translate(245.898438 0.015625)"/>
     </g>
    </g>
   </g>
   <g id="text_2">
    <g clip-path="url(#p7bb1178c57)">
     <!-- b -->
     <g transform="translate(81.976253 56.984419)scale(0.125 -0.125)">
      <defs>
       <path id="DejaVuSans-62" d="M 3116 1747 
Q 3116 2381 2855 2742 
Q 2594 3103 2138 3103 
Q 1681 3103 1420 2742 
Q 1159 2381 1159 1747 
Q 1159 1113 1420 752 
Q 1681 391 2138 391 
Q 2594 391 2855 752 
Q 3116 1113 3116 1747 
z
M 1159 2969 
Q 1341 3281 1617 3432 
Q 1894 3584 2278 3584 
Q 2916 3584 3314 3078 
Q 3713 2572 3713 1747 
Q 3713 922 3314 415 
Q 2916 -91 2278 -91 
Q 1894 -91 1617 61 
Q 1341 213 1159 525 
L 1159 0 
L 581 0 
L 581 4863 
L 1159 4863 
L 1159 2969 
z
" transform="scale(0.015625)"/>
      </defs>
      <use xlink:href="#DejaVuSans-62"/>
     </g>
    </g>
   </g>
   <g id="text_3">
    <g clip-path="url(#p7bb1178c57)">
     <!-- b -->
     <g transform="translate(14.656253 30.209419)scale(0.125 -0.125)">
      <use xlink:href="#DejaVuSans-62"/>
     </g>
    </g>
   </g>
   <g id="text_4">
    <g clip-path="url(#p7bb1178c57)">
     <!-- b -->
     <g transform="translate(14.656253 45.509419)scale(0.125 -0.125)">
      <use xlink:href="#DejaVuSans-62"/>
     </g>
    </g>
   </g>
  </g>
 </g>
 <defs>
  <clipPath id="p7bb1178c57">
   <rect x="7.2" y="7.2" width="189.3375" height="59.7754"/>
  </clipPath>
 </defs>
</svg>
