<?xml version="1.0" encoding="utf-8" standalone="no"?>
<!DOCTYPE svg PUBLIC "-//W3C//DTD SVG 1.1//EN"
  "http://www.w3.org/Graphics/SVG/1.1/DTD/svg11.dtd">
<svg xmlns:xlink="http://www.w3.org/1999/xlink" width="199.802pt" height="108.4814pt" viewBox="0 0 199.802 108.4814" xmlns="http://www.w3.org/2000/svg" version="1.1">
 <metadata>
  <rdf:RDF xmlns:dc="http://purl.org/dc/elements/1.1/" xmlns:cc="http://creativecommons.org/ns#" xmlns:rdf="http://www.w3.org/1999/02/22-rdf-syntax-ns#">
   <cc:Work>
    <dc:type rdf:resource="http://purl.org/dc/dcmitype/StillImage"/>
    <dc:date>2022-07-21T04:18:01.440764</dc:date>
    <dc:format>image/svg+xml</dc:format>
    <dc:creator>
     <cc:Agent>
      <dc:title>Matplotlib v3.5.2, https://matplotlib.org/</dc:title>
     </cc:Agent>
    </dc:creator>
   </cc:Work>
  </rdf:RDF>
 </metadata>
 <defs>
  <style type="text/css">*{stroke-linejoin: round; stroke-linecap: butt}</style>
 </defs>
 <g id="figure_1">
  <g id="patch_1">
   <path d="M 0 108.4814 
L 199.802 108.4814 
L 199.802 0 
L 0 0 
L 0 108.4814 
z
" style="fill: none"/>
  </g>
  <g id="axes_1">
   <g id="patch_2">
    <path d="M 138.6083 60.9727 
C 139.582126 60.9727 140.516197 60.585795 141.204796 59.897196 
C 141.893395 59.208597 142.2803 58.274526 142.2803 57.3007 
C 142.2803 56.326874 141.893395 55.392803 141.204796 54.704204 
C 140.516197 54.015605 139.582126 53.6287 138.6083 53.6287 
C 137.634474 53.6287 136.700403 54.015605 136.011804 54.704204 
C 135.323205 55.392803 134.9363 56.326874 134.9363 57.3007 
C 134.9363 58.274526 135.323205 59.208597 136.011804 59.897196 
C 136.700403 60.585795 137.634474 60.9727 138.6083 60.9727 
L 138.6083 60.9727 
z
" clip-path="url(#p4a1b8754b6)" style="fill: none; stroke: #000000; stroke-width: 2; stroke-linejoin: miter"/>
   </g>
   <g id="patch_3">
    <path d="M 77.4083 38.0227 
C 78.382126 38.0227 79.316197 37.635795 80.004796 36.947196 
C 80.693395 36.258597 81.0803 35.324526 81.0803 34.3507 
C 81.0803 33.376874 80.693395 32.442803 80.004796 31.754204 
C 79.316197 31.065605 78.382126 30.6787 77.4083 30.6787 
C 76.434474 30.6787 75.500403 31.065605 74.811804 31.754204 
C 74.123205 32.442803 73.7363 33.376874 73.7363 34.3507 
C 73.7363 35.324526 74.123205 36.258597 74.811804 36.947196 
C 75.500403 37.635795 76.434474 38.0227 77.4083 38.0227 
L 77.4083 38.0227 
z
" clip-path="url(#p4a1b8754b6)" style="fill: none; stroke: #000000; stroke-width: 2; stroke-linejoin: miter"/>
   </g>
   <g id="patch_4">
    <path d="M 77.4083 83.9227 
C 78.382126 83.9227 79.316197 83.535795 80.004796 82.847196 
C 80.693395 82.158597 81.0803 81.224526 81.0803 80.2507 
C 81.0803 79.276874 80.693395 78.342803 80.004796 77.654204 
C 79.316197 76.965605 78.382126 76.5787 77.4083 76.5787 
C 76.434474 76.5787 75.500403 76.965605 74.811804 77.654204 
C 74.123205 78.342803 73.7363 79.276874 73.7363 80.2507 
C 73.7363 81.224526 74.123205 82.158597 74.811804 82.847196 
C 75.500403 83.535795 76.434474 83.9227 77.4083 83.9227 
L 77.4083 83.9227 
z
" clip-path="url(#p4a1b8754b6)" style="fill: none; stroke: #000000; stroke-width: 2; stroke-linejoin: miter"/>
   </g>
   <g id="line2d_1">
    <path d="M 119.6363 72.6007 
L 120.616574 72.569265 
L 121.592821 72.475087 
L 122.561027 72.318555 
L 123.517215 72.100311 
L 124.457456 71.821253 
L 125.377885 71.482526 
L 126.274721 71.085524 
L 127.144279 70.631876 
L 127.982984 70.123448 
L 128.787391 69.562328 
L 129.554194 68.950823 
L 130.280243 68.291445 
L 130.962553 67.586904 
L 131.598322 66.840094 
L 132.184935 66.054085 
L 132.719984 65.232106 
L 133.201269 64.377536 
L 133.626813 63.493885 
L 133.994867 62.584785 
L 134.303918 61.653972 
L 134.552697 60.70527 
L 134.740181 59.742578 
L 134.8656 58.769852 
L 134.928439 57.791089 
L 134.928439 56.810311 
L 134.8656 55.831548 
L 134.740181 54.858822 
L 134.552697 53.89613 
L 134.303918 52.947428 
L 133.994867 52.016615 
L 133.626813 51.107515 
L 133.201269 50.223864 
L 132.719984 49.369294 
L 132.184935 48.547315 
L 131.598322 47.761306 
L 130.962553 47.014496 
L 130.280243 46.309955 
L 129.554194 45.650577 
L 128.787391 45.039072 
L 127.982984 44.477952 
L 127.144279 43.969524 
L 126.274721 43.515876 
L 125.377885 43.118874 
L 124.457456 42.780147 
L 123.517215 42.501089 
L 122.561027 42.282845 
L 121.592821 42.126313 
L 120.616574 42.032135 
L 119.6363 42.0007 
L 119.6363 42.0007 
L 99.7463 42.0007 
L 99.7463 57.3007 
L 99.7463 72.6007 
L 119.6363 72.6007 
" clip-path="url(#p4a1b8754b6)" style="fill: none; stroke: #000000; stroke-width: 2; stroke-linecap: round"/>
   </g>
   <g id="line2d_2">
    <path d="M 89.0363 64.9507 
L 99.7463 64.9507 
" clip-path="url(#p4a1b8754b6)" style="fill: none; stroke: #000000; stroke-width: 2; stroke-linecap: round"/>
   </g>
   <g id="line2d_3">
    <path d="M 89.0363 49.6507 
L 99.7463 49.6507 
" clip-path="url(#p4a1b8754b6)" style="fill: none; stroke: #000000; stroke-width: 2; stroke-linecap: round"/>
   </g>
   <g id="line2d_4">
    <path d="M 142.2803 57.3007 
L 145.6463 57.3007 
" clip-path="url(#p4a1b8754b6)" style="fill: none; stroke: #000000; stroke-width: 2; stroke-linecap: round"/>
   </g>
   <g id="line2d_5">
    <path d="M 37.0163 49.3447 
L 54.064871 49.244782 
L 55.813443 48.945027 
L 57.562014 48.445435 
L 59.310586 47.746006 
L 61.059157 46.846741 
L 63.244871 45.441639 
L 65.430586 43.724292 
L 67.6163 41.6947 
L 69.802014 39.352863 
L 71.987729 36.698782 
L 73.7363 34.3507 
L 73.7363 34.3507 
L 71.113443 30.903516 
L 68.927729 28.374333 
L 66.742014 26.157394 
L 64.5563 24.2527 
L 62.370586 22.660251 
L 60.184871 21.380047 
L 58.4363 20.5807 
L 56.687729 19.98119 
L 54.939157 19.581516 
L 53.190586 19.38168 
L 52.3163 19.3567 
L 37.0163 19.3567 
L 37.0163 19.3567 
L 39.2195 21.8047 
L 40.61486 23.6407 
L 41.7899 25.4767 
L 42.74462 27.3127 
L 43.47902 29.1487 
L 43.9931 30.9847 
L 44.28686 32.8207 
L 44.3603 34.6567 
L 44.21342 36.4927 
L 43.84622 38.3287 
L 43.2587 40.1647 
L 42.45086 42.0007 
L 41.4227 43.8367 
L 40.17422 45.6727 
L 38.70542 47.5087 
L 37.0163 49.3447 
L 37.0163 49.3447 
" clip-path="url(#p4a1b8754b6)" style="fill: none; stroke: #000000; stroke-width: 2; stroke-linecap: round"/>
   </g>
   <g id="line2d_6">
    <path d="M 26.3063 42.0007 
L 42.45086 42.0007 
" clip-path="url(#p4a1b8754b6)" style="fill: none; stroke: #000000; stroke-width: 2; stroke-linecap: round"/>
   </g>
   <g id="line2d_7">
    <path d="M 26.3063 26.7007 
L 42.45086 26.7007 
" clip-path="url(#p4a1b8754b6)" style="fill: none; stroke: #000000; stroke-width: 2; stroke-linecap: round"/>
   </g>
   <g id="line2d_8">
    <path d="M 81.0803 34.3507 
L 84.4463 34.3507 
" clip-path="url(#p4a1b8754b6)" style="fill: none; stroke: #000000; stroke-width: 2; stroke-linecap: round"/>
   </g>
   <g id="line2d_9">
    <path d="M 89.0363 49.6507 
L 84.4463 49.6507 
L 84.4463 34.3507 
" clip-path="url(#p4a1b8754b6)" style="fill: none; stroke: #000000; stroke-width: 2; stroke-linecap: round"/>
   </g>
   <g id="line2d_10">
    <path d="M 58.4363 95.5507 
L 59.416574 95.519265 
L 60.392821 95.425087 
L 61.361027 95.268555 
L 62.317215 95.050311 
L 63.257456 94.771253 
L 64.177885 94.432526 
L 65.074721 94.035524 
L 65.944279 93.581876 
L 66.782984 93.073448 
L 67.587391 92.512328 
L 68.354194 91.900823 
L 69.080243 91.241445 
L 69.762553 90.536904 
L 70.398322 89.790094 
L 70.984935 89.004085 
L 71.519984 88.182106 
L 72.001269 87.327536 
L 72.426813 86.443885 
L 72.794867 85.534785 
L 73.103918 84.603972 
L 73.352697 83.65527 
L 73.540181 82.692578 
L 73.6656 81.719852 
L 73.728439 80.741089 
L 73.728439 79.760311 
L 73.6656 78.781548 
L 73.540181 77.808822 
L 73.352697 76.84613 
L 73.103918 75.897428 
L 72.794867 74.966615 
L 72.426813 74.057515 
L 72.001269 73.173864 
L 71.519984 72.319294 
L 70.984935 71.497315 
L 70.398322 70.711306 
L 69.762553 69.964496 
L 69.080243 69.259955 
L 68.354194 68.600577 
L 67.587391 67.989072 
L 66.782984 67.427952 
L 65.944279 66.919524 
L 65.074721 66.465876 
L 64.177885 66.068874 
L 63.257456 65.730147 
L 62.317215 65.451089 
L 61.361027 65.232845 
L 60.392821 65.076313 
L 59.416574 64.982135 
L 58.4363 64.9507 
L 58.4363 64.9507 
L 38.5463 64.9507 
L 38.5463 80.2507 
L 38.5463 95.5507 
L 58.4363 95.5507 
" clip-path="url(#p4a1b8754b6)" style="fill: none; stroke: #000000; stroke-width: 2; stroke-linecap: round"/>
   </g>
   <g id="line2d_11">
    <path d="M 27.8363 87.9007 
L 38.5463 87.9007 
" clip-path="url(#p4a1b8754b6)" style="fill: none; stroke: #000000; stroke-width: 2; stroke-linecap: round"/>
   </g>
   <g id="line2d_12">
    <path d="M 27.8363 72.6007 
L 38.5463 72.6007 
" clip-path="url(#p4a1b8754b6)" style="fill: none; stroke: #000000; stroke-width: 2; stroke-linecap: round"/>
   </g>
   <g id="line2d_13">
    <path d="M 81.0803 80.2507 
L 84.4463 80.2507 
" clip-path="url(#p4a1b8754b6)" style="fill: none; stroke: #000000; stroke-width: 2; stroke-linecap: round"/>
   </g>
   <g id="line2d_14">
    <path d="M 89.0363 64.9507 
L 84.4463 64.9507 
L 84.4463 80.2507 
" clip-path="url(#p4a1b8754b6)" style="fill: none; stroke: #000000; stroke-width: 2; stroke-linecap: round"/>
   </g>
   <g id="text_1">
    <g clip-path="url(#p4a1b8754b6)">
     <!-- $result$ -->
     <g transform="translate(148.7063 60.749919)scale(0.125 -0.125)">
      <defs>
       <path id="DejaVuSans-Oblique-72" d="M 2853 2969 
Q 2766 3016 2653 3041 
Q 2541 3066 2413 3066 
Q 1953 3066 1609 2717 
Q 1266 2369 1153 1784 
L 800 0 
L 225 0 
L 909 3500 
L 1484 3500 
L 1375 2956 
Q 1603 3259 1920 3421 
Q 2238 3584 2597 3584 
Q 2691 3584 2781 3573 
Q 2872 3563 2963 3538 
L 2853 2969 
z
" transform="scale(0.015625)"/>
       <path id="DejaVuSans-Oblique-65" d="M 3078 2063 
Q 3088 2113 3092 2166 
Q 3097 2219 3097 2272 
Q 3097 2653 2873 2875 
Q 2650 3097 2266 3097 
Q 1838 3097 1509 2826 
Q 1181 2556 1013 2059 
L 3078 2063 
z
M 3578 1613 
L 903 1613 
Q 884 1494 878 1425 
Q 872 1356 872 1306 
Q 872 872 1139 634 
Q 1406 397 1894 397 
Q 2269 397 2603 481 
Q 2938 566 3225 728 
L 3116 159 
Q 2806 34 2476 -28 
Q 2147 -91 1806 -91 
Q 1078 -91 686 257 
Q 294 606 294 1247 
Q 294 1794 489 2264 
Q 684 2734 1063 3103 
Q 1306 3334 1642 3459 
Q 1978 3584 2356 3584 
Q 2950 3584 3301 3228 
Q 3653 2872 3653 2272 
Q 3653 2128 3634 1964 
Q 3616 1800 3578 1613 
z
" transform="scale(0.015625)"/>
       <path id="DejaVuSans-Oblique-73" d="M 3200 3397 
L 3091 2853 
Q 2863 2978 2609 3040 
Q 2356 3103 2088 3103 
Q 1634 3103 1373 2948 
Q 1113 2794 1113 2528 
Q 1113 2219 1719 2053 
Q 1766 2041 1788 2034 
L 1972 1978 
Q 2547 1819 2739 1644 
Q 2931 1469 2931 1166 
Q 2931 609 2489 259 
Q 2047 -91 1331 -91 
Q 1053 -91 747 -37 
Q 441 16 72 128 
L 184 722 
Q 500 559 806 475 
Q 1113 391 1394 391 
Q 1816 391 2080 572 
Q 2344 753 2344 1031 
Q 2344 1331 1650 1516 
L 1591 1531 
L 1394 1581 
Q 956 1697 753 1886 
Q 550 2075 550 2369 
Q 550 2928 970 3256 
Q 1391 3584 2113 3584 
Q 2397 3584 2667 3537 
Q 2938 3491 3200 3397 
z
" transform="scale(0.015625)"/>
       <path id="DejaVuSans-Oblique-75" d="M 428 1388 
L 838 3500 
L 1416 3500 
L 1006 1409 
Q 975 1256 961 1147 
Q 947 1038 947 966 
Q 947 700 1109 554 
Q 1272 409 1569 409 
Q 2031 409 2368 721 
Q 2706 1034 2809 1563 
L 3194 3500 
L 3769 3500 
L 3091 0 
L 2516 0 
L 2631 550 
Q 2388 244 2052 76 
Q 1716 -91 1338 -91 
Q 878 -91 622 161 
Q 366 413 366 863 
Q 366 956 381 1097 
Q 397 1238 428 1388 
z
" transform="scale(0.015625)"/>
       <path id="DejaVuSans-Oblique-6c" d="M 1172 4863 
L 1747 4863 
L 800 0 
L 225 0 
L 1172 4863 
z
" transform="scale(0.015625)"/>
       <path id="DejaVuSans-Oblique-74" d="M 2706 3500 
L 2619 3053 
L 1472 3053 
L 1100 1153 
Q 1081 1047 1072 975 
Q 1063 903 1063 863 
Q 1063 663 1183 572 
Q 1303 481 1569 481 
L 2150 481 
L 2053 0 
L 1503 0 
Q 991 0 739 200 
Q 488 400 488 806 
Q 488 878 497 964 
Q 506 1050 525 1153 
L 897 3053 
L 409 3053 
L 500 3500 
L 978 3500 
L 1172 4494 
L 1747 4494 
L 1556 3500 
L 2706 3500 
z
" transform="scale(0.015625)"/>
      </defs>
      <use xlink:href="#DejaVuSans-Oblique-72" transform="translate(0 0.015625)"/>
      <use xlink:href="#DejaVuSans-Oblique-65" transform="translate(41.113281 0.015625)"/>
      <use xlink:href="#DejaVuSans-Oblique-73" transform="translate(102.636719 0.015625)"/>
      <use xlink:href="#DejaVuSans-Oblique-75" transform="translate(154.736328 0.015625)"/>
      <use xlink:href="#DejaVuSans-Oblique-6c" transform="translate(218.115234 0.015625)"/>
      <use xlink:href="#DejaVuSans-Oblique-74" transform="translate(245.898438 0.015625)"/>
     </g>
    </g>
   </g>
   <g id="text_2">
    <g clip-path="url(#p4a1b8754b6)">
     <!-- h -->
     <g transform="translate(15.324425 30.149919)scale(0.125 -0.125)">
      <defs>
       <path id="DejaVuSans-68" d="M 3513 2113 
L 3513 0 
L 2938 0 
L 2938 2094 
Q 2938 2591 2744 2837 
Q 2550 3084 2163 3084 
Q 1697 3084 1428 2787 
Q 1159 2491 1159 1978 
L 1159 0 
L 581 0 
L 581 4863 
L 1159 4863 
L 1159 2956 
Q 1366 3272 1645 3428 
Q 1925 3584 2291 3584 
Q 2894 3584 3203 3211 
Q 3513 2838 3513 2113 
z
" transform="scale(0.015625)"/>
      </defs>
      <use xlink:href="#DejaVuSans-68"/>
     </g>
    </g>
   </g>
   <g id="text_3">
    <g clip-path="url(#p4a1b8754b6)">
     <!-- h -->
     <g transform="translate(15.324425 45.449919)scale(0.125 -0.125)">
      <use xlink:href="#DejaVuSans-68"/>
     </g>
    </g>
   </g>
   <g id="text_4">
    <g clip-path="url(#p4a1b8754b6)">
     <!-- h -->
     <g transform="translate(16.854425 76.049919)scale(0.125 -0.125)">
      <use xlink:href="#DejaVuSans-68"/>
     </g>
    </g>
   </g>
   <g id="text_5">
    <g clip-path="url(#p4a1b8754b6)">
     <!-- h -->
     <g transform="translate(16.854425 91.349919)scale(0.125 -0.125)">
      <use xlink:href="#DejaVuSans-68"/>
     </g>
    </g>
   </g>
  </g>
 </g>
 <defs>
  <clipPath id="p4a1b8754b6">
   <rect x="7.2" y="7.2" width="185.402" height="94.0814"/>
  </clipPath>
 </defs>
</svg>
