<?xml version="1.0" encoding="utf-8" standalone="no"?>
<!DOCTYPE svg PUBLIC "-//W3C//DTD SVG 1.1//EN"
  "http://www.w3.org/Graphics/SVG/1.1/DTD/svg11.dtd">
<svg xmlns:xlink="http://www.w3.org/1999/xlink" width="203.9398pt" height="107.28545pt" viewBox="0 0 203.9398 107.28545" xmlns="http://www.w3.org/2000/svg" version="1.1">
 <metadata>
  <rdf:RDF xmlns:dc="http://purl.org/dc/elements/1.1/" xmlns:cc="http://creativecommons.org/ns#" xmlns:rdf="http://www.w3.org/1999/02/22-rdf-syntax-ns#">
   <cc:Work>
    <dc:type rdf:resource="http://purl.org/dc/dcmitype/StillImage"/>
    <dc:date>2022-07-24T22:07:30.149840</dc:date>
    <dc:format>image/svg+xml</dc:format>
    <dc:creator>
     <cc:Agent>
      <dc:title>Matplotlib v3.5.2, https://matplotlib.org/</dc:title>
     </cc:Agent>
    </dc:creator>
   </cc:Work>
  </rdf:RDF>
 </metadata>
 <defs>
  <style type="text/css">*{stroke-linejoin: round; stroke-linecap: butt}</style>
 </defs>
 <g id="figure_1">
  <g id="patch_1">
   <path d="M 0 107.28545 
L 203.9398 107.28545 
L 203.9398 0 
L 0 0 
L 0 107.28545 
z
" style="fill: none"/>
  </g>
  <g id="axes_1">
   <g id="patch_2">
    <path d="M 81.5461 36.76725 
C 82.519926 36.76725 83.453997 36.380345 84.142596 35.691746 
C 84.831195 35.003147 85.2181 34.069076 85.2181 33.09525 
C 85.2181 32.121424 84.831195 31.187353 84.142596 30.498754 
C 83.453997 29.810155 82.519926 29.42325 81.5461 29.42325 
C 80.572274 29.42325 79.638203 29.810155 78.949604 30.498754 
C 78.261005 31.187353 77.8741 32.121424 77.8741 33.09525 
C 77.8741 34.069076 78.261005 35.003147 78.949604 35.691746 
C 79.638203 36.380345 80.572274 36.76725 81.5461 36.76725 
L 81.5461 36.76725 
z
" clip-path="url(#pdf323d0d7b)" style="fill: none; stroke: #000000; stroke-width: 2; stroke-linejoin: miter"/>
   </g>
   <g id="line2d_1">
    <path d="M 123.7741 71.34525 
L 124.754374 71.313815 
L 125.730621 71.219637 
L 126.698827 71.063105 
L 127.655015 70.844861 
L 128.595256 70.565803 
L 129.515685 70.227076 
L 130.412521 69.830074 
L 131.282079 69.376426 
L 132.120784 68.867998 
L 132.925191 68.306878 
L 133.691994 67.695373 
L 134.418043 67.035995 
L 135.100353 66.331454 
L 135.736122 65.584644 
L 136.322735 64.798635 
L 136.857784 63.976656 
L 137.339069 63.122086 
L 137.764613 62.238435 
L 138.132667 61.329335 
L 138.441718 60.398522 
L 138.690497 59.44982 
L 138.877981 58.487128 
L 139.0034 57.514402 
L 139.066239 56.535639 
L 139.066239 55.554861 
L 139.0034 54.576098 
L 138.877981 53.603372 
L 138.690497 52.64068 
L 138.441718 51.691978 
L 138.132667 50.761165 
L 137.764613 49.852065 
L 137.339069 48.968414 
L 136.857784 48.113844 
L 136.322735 47.291865 
L 135.736122 46.505856 
L 135.100353 45.759046 
L 134.418043 45.054505 
L 133.691994 44.395127 
L 132.925191 43.783622 
L 132.120784 43.222502 
L 131.282079 42.714074 
L 130.412521 42.260426 
L 129.515685 41.863424 
L 128.595256 41.524697 
L 127.655015 41.245639 
L 126.698827 41.027395 
L 125.730621 40.870863 
L 124.754374 40.776685 
L 123.7741 40.74525 
L 123.7741 40.74525 
L 103.8841 40.74525 
L 103.8841 56.04525 
L 103.8841 71.34525 
L 123.7741 71.34525 
" clip-path="url(#pdf323d0d7b)" style="fill: none; stroke: #000000; stroke-width: 2; stroke-linecap: round"/>
   </g>
   <g id="line2d_2">
    <path d="M 93.1741 63.69525 
L 103.8841 63.69525 
" clip-path="url(#pdf323d0d7b)" style="fill: none; stroke: #000000; stroke-width: 2; stroke-linecap: round"/>
   </g>
   <g id="line2d_3">
    <path d="M 93.1741 48.39525 
L 103.8841 48.39525 
" clip-path="url(#pdf323d0d7b)" style="fill: none; stroke: #000000; stroke-width: 2; stroke-linecap: round"/>
   </g>
   <g id="line2d_4">
    <path d="M 139.0741 56.04525 
L 149.7841 56.04525 
" clip-path="url(#pdf323d0d7b)" style="fill: none; stroke: #000000; stroke-width: 2; stroke-linecap: round"/>
   </g>
   <g id="line2d_5">
    <path d="M 41.1541 48.08925 
L 58.202671 47.989332 
L 59.951243 47.689577 
L 61.699814 47.189985 
L 63.448386 46.490556 
L 65.196957 45.591291 
L 67.382671 44.186189 
L 69.568386 42.468842 
L 71.7541 40.43925 
L 73.939814 38.097413 
L 76.125529 35.443332 
L 77.8741 33.09525 
L 77.8741 33.09525 
L 75.251243 29.648066 
L 73.065529 27.118883 
L 70.879814 24.901944 
L 68.6941 22.99725 
L 66.508386 21.404801 
L 64.322671 20.124597 
L 62.5741 19.32525 
L 60.825529 18.72574 
L 59.076957 18.326066 
L 57.328386 18.12623 
L 56.4541 18.10125 
L 41.1541 18.10125 
L 41.1541 18.10125 
L 43.3573 20.54925 
L 44.75266 22.38525 
L 45.9277 24.22125 
L 46.88242 26.05725 
L 47.61682 27.89325 
L 48.1309 29.72925 
L 48.42466 31.56525 
L 48.4981 33.40125 
L 48.35122 35.23725 
L 47.98402 37.07325 
L 47.3965 38.90925 
L 46.58866 40.74525 
L 45.5605 42.58125 
L 44.31202 44.41725 
L 42.84322 46.25325 
L 41.1541 48.08925 
L 41.1541 48.08925 
" clip-path="url(#pdf323d0d7b)" style="fill: none; stroke: #000000; stroke-width: 2; stroke-linecap: round"/>
   </g>
   <g id="line2d_6">
    <path d="M 36.5641 48.08925 
L 37.15162 47.47725 
L 37.71466 46.86525 
L 38.25322 46.25325 
L 38.7673 45.64125 
L 39.2569 45.02925 
L 39.72202 44.41725 
L 40.16266 43.80525 
L 40.57882 43.19325 
L 40.9705 42.58125 
L 41.3377 41.96925 
L 41.68042 41.35725 
L 41.99866 40.74525 
L 42.29242 40.13325 
L 42.5617 39.52125 
L 42.8065 38.90925 
L 43.02682 38.29725 
L 43.22266 37.68525 
L 43.39402 37.07325 
L 43.5409 36.46125 
L 43.6633 35.84925 
L 43.76122 35.23725 
L 43.83466 34.62525 
L 43.88362 34.01325 
L 43.9081 33.40125 
L 43.9081 32.78925 
L 43.88362 32.17725 
L 43.83466 31.56525 
L 43.76122 30.95325 
L 43.6633 30.34125 
L 43.5409 29.72925 
L 43.39402 29.11725 
L 43.22266 28.50525 
L 43.02682 27.89325 
L 42.8065 27.28125 
L 42.5617 26.66925 
L 42.29242 26.05725 
L 41.99866 25.44525 
L 41.68042 24.83325 
L 41.3377 24.22125 
L 40.9705 23.60925 
L 40.57882 22.99725 
L 40.16266 22.38525 
L 39.72202 21.77325 
L 39.2569 21.16125 
L 38.7673 20.54925 
L 38.25322 19.93725 
L 37.71466 19.32525 
L 37.15162 18.71325 
L 36.5641 18.10125 
" clip-path="url(#pdf323d0d7b)" style="fill: none; stroke: #000000; stroke-width: 2; stroke-linecap: round"/>
   </g>
   <g id="line2d_7">
    <path d="M 25.8541 40.74525 
L 41.99866 40.74525 
" clip-path="url(#pdf323d0d7b)" style="fill: none; stroke: #000000; stroke-width: 2; stroke-linecap: round"/>
   </g>
   <g id="line2d_8">
    <path d="M 25.8541 25.44525 
L 41.99866 25.44525 
" clip-path="url(#pdf323d0d7b)" style="fill: none; stroke: #000000; stroke-width: 2; stroke-linecap: round"/>
   </g>
   <g id="line2d_9">
    <path d="M 85.2181 33.09525 
L 88.5841 33.09525 
" clip-path="url(#pdf323d0d7b)" style="fill: none; stroke: #000000; stroke-width: 2; stroke-linecap: round"/>
   </g>
   <g id="line2d_10">
    <path d="M 93.1741 48.39525 
L 88.5841 48.39525 
L 88.5841 33.09525 
" clip-path="url(#pdf323d0d7b)" style="fill: none; stroke: #000000; stroke-width: 2; stroke-linecap: round"/>
   </g>
   <g id="line2d_11">
    <path d="M 62.5741 94.29525 
L 63.554374 94.263815 
L 64.530621 94.169637 
L 65.498827 94.013105 
L 66.455015 93.794861 
L 67.395256 93.515803 
L 68.315685 93.177076 
L 69.212521 92.780074 
L 70.082079 92.326426 
L 70.920784 91.817998 
L 71.725191 91.256878 
L 72.491994 90.645373 
L 73.218043 89.985995 
L 73.900353 89.281454 
L 74.536122 88.534644 
L 75.122735 87.748635 
L 75.657784 86.926656 
L 76.139069 86.072086 
L 76.564613 85.188435 
L 76.932667 84.279335 
L 77.241718 83.348522 
L 77.490497 82.39982 
L 77.677981 81.437128 
L 77.8034 80.464402 
L 77.866239 79.485639 
L 77.866239 78.504861 
L 77.8034 77.526098 
L 77.677981 76.553372 
L 77.490497 75.59068 
L 77.241718 74.641978 
L 76.932667 73.711165 
L 76.564613 72.802065 
L 76.139069 71.918414 
L 75.657784 71.063844 
L 75.122735 70.241865 
L 74.536122 69.455856 
L 73.900353 68.709046 
L 73.218043 68.004505 
L 72.491994 67.345127 
L 71.725191 66.733622 
L 70.920784 66.172502 
L 70.082079 65.664074 
L 69.212521 65.210426 
L 68.315685 64.813424 
L 67.395256 64.474697 
L 66.455015 64.195639 
L 65.498827 63.977395 
L 64.530621 63.820863 
L 63.554374 63.726685 
L 62.5741 63.69525 
L 62.5741 63.69525 
L 42.6841 63.69525 
L 42.6841 78.99525 
L 42.6841 94.29525 
L 62.5741 94.29525 
" clip-path="url(#pdf323d0d7b)" style="fill: none; stroke: #000000; stroke-width: 2; stroke-linecap: round"/>
   </g>
   <g id="line2d_12">
    <path d="M 31.9741 86.64525 
L 42.6841 86.64525 
" clip-path="url(#pdf323d0d7b)" style="fill: none; stroke: #000000; stroke-width: 2; stroke-linecap: round"/>
   </g>
   <g id="line2d_13">
    <path d="M 31.9741 71.34525 
L 42.6841 71.34525 
" clip-path="url(#pdf323d0d7b)" style="fill: none; stroke: #000000; stroke-width: 2; stroke-linecap: round"/>
   </g>
   <g id="line2d_14">
    <path d="M 77.8741 78.99525 
L 88.5841 78.99525 
" clip-path="url(#pdf323d0d7b)" style="fill: none; stroke: #000000; stroke-width: 2; stroke-linecap: round"/>
   </g>
   <g id="line2d_15">
    <path d="M 93.1741 63.69525 
L 88.5841 63.69525 
L 88.5841 78.99525 
" clip-path="url(#pdf323d0d7b)" style="fill: none; stroke: #000000; stroke-width: 2; stroke-linecap: round"/>
   </g>
   <g id="text_1">
    <g clip-path="url(#pdf323d0d7b)">
     <!-- $result$ -->
     <g transform="translate(152.8441 59.494469)scale(0.125 -0.125)">
      <defs>
       <path id="DejaVuSans-Oblique-72" d="M 2853 2969 
Q 2766 3016 2653 3041 
Q 2541 3066 2413 3066 
Q 1953 3066 1609 2717 
Q 1266 2369 1153 1784 
L 800 0 
L 225 0 
L 909 3500 
L 1484 3500 
L 1375 2956 
Q 1603 3259 1920 3421 
Q 2238 3584 2597 3584 
Q 2691 3584 2781 3573 
Q 2872 3563 2963 3538 
L 2853 2969 
z
" transform="scale(0.015625)"/>
       <path id="DejaVuSans-Oblique-65" d="M 3078 2063 
Q 3088 2113 3092 2166 
Q 3097 2219 3097 2272 
Q 3097 2653 2873 2875 
Q 2650 3097 2266 3097 
Q 1838 3097 1509 2826 
Q 1181 2556 1013 2059 
L 3078 2063 
z
M 3578 1613 
L 903 1613 
Q 884 1494 878 1425 
Q 872 1356 872 1306 
Q 872 872 1139 634 
Q 1406 397 1894 397 
Q 2269 397 2603 481 
Q 2938 566 3225 728 
L 3116 159 
Q 2806 34 2476 -28 
Q 2147 -91 1806 -91 
Q 1078 -91 686 257 
Q 294 606 294 1247 
Q 294 1794 489 2264 
Q 684 2734 1063 3103 
Q 1306 3334 1642 3459 
Q 1978 3584 2356 3584 
Q 2950 3584 3301 3228 
Q 3653 2872 3653 2272 
Q 3653 2128 3634 1964 
Q 3616 1800 3578 1613 
z
" transform="scale(0.015625)"/>
       <path id="DejaVuSans-Oblique-73" d="M 3200 3397 
L 3091 2853 
Q 2863 2978 2609 3040 
Q 2356 3103 2088 3103 
Q 1634 3103 1373 2948 
Q 1113 2794 1113 2528 
Q 1113 2219 1719 2053 
Q 1766 2041 1788 2034 
L 1972 1978 
Q 2547 1819 2739 1644 
Q 2931 1469 2931 1166 
Q 2931 609 2489 259 
Q 2047 -91 1331 -91 
Q 1053 -91 747 -37 
Q 441 16 72 128 
L 184 722 
Q 500 559 806 475 
Q 1113 391 1394 391 
Q 1816 391 2080 572 
Q 2344 753 2344 1031 
Q 2344 1331 1650 1516 
L 1591 1531 
L 1394 1581 
Q 956 1697 753 1886 
Q 550 2075 550 2369 
Q 550 2928 970 3256 
Q 1391 3584 2113 3584 
Q 2397 3584 2667 3537 
Q 2938 3491 3200 3397 
z
" transform="scale(0.015625)"/>
       <path id="DejaVuSans-Oblique-75" d="M 428 1388 
L 838 3500 
L 1416 3500 
L 1006 1409 
Q 975 1256 961 1147 
Q 947 1038 947 966 
Q 947 700 1109 554 
Q 1272 409 1569 409 
Q 2031 409 2368 721 
Q 2706 1034 2809 1563 
L 3194 3500 
L 3769 3500 
L 3091 0 
L 2516 0 
L 2631 550 
Q 2388 244 2052 76 
Q 1716 -91 1338 -91 
Q 878 -91 622 161 
Q 366 413 366 863 
Q 366 956 381 1097 
Q 397 1238 428 1388 
z
" transform="scale(0.015625)"/>
       <path id="DejaVuSans-Oblique-6c" d="M 1172 4863 
L 1747 4863 
L 800 0 
L 225 0 
L 1172 4863 
z
" transform="scale(0.015625)"/>
       <path id="DejaVuSans-Oblique-74" d="M 2706 3500 
L 2619 3053 
L 1472 3053 
L 1100 1153 
Q 1081 1047 1072 975 
Q 1063 903 1063 863 
Q 1063 663 1183 572 
Q 1303 481 1569 481 
L 2150 481 
L 2053 0 
L 1503 0 
Q 991 0 739 200 
Q 488 400 488 806 
Q 488 878 497 964 
Q 506 1050 525 1153 
L 897 3053 
L 409 3053 
L 500 3500 
L 978 3500 
L 1172 4494 
L 1747 4494 
L 1556 3500 
L 2706 3500 
z
" transform="scale(0.015625)"/>
      </defs>
      <use xlink:href="#DejaVuSans-Oblique-72" transform="translate(0 0.015625)"/>
      <use xlink:href="#DejaVuSans-Oblique-65" transform="translate(41.113281 0.015625)"/>
      <use xlink:href="#DejaVuSans-Oblique-73" transform="translate(102.636719 0.015625)"/>
      <use xlink:href="#DejaVuSans-Oblique-75" transform="translate(154.736328 0.015625)"/>
      <use xlink:href="#DejaVuSans-Oblique-6c" transform="translate(218.115234 0.015625)"/>
      <use xlink:href="#DejaVuSans-Oblique-74" transform="translate(245.898438 0.015625)"/>
     </g>
    </g>
   </g>
   <g id="text_2">
    <g clip-path="url(#pdf323d0d7b)">
     <!-- c -->
     <g transform="translate(15.921053 28.894469)scale(0.125 -0.125)">
      <defs>
       <path id="DejaVuSans-63" d="M 3122 3366 
L 3122 2828 
Q 2878 2963 2633 3030 
Q 2388 3097 2138 3097 
Q 1578 3097 1268 2742 
Q 959 2388 959 1747 
Q 959 1106 1268 751 
Q 1578 397 2138 397 
Q 2388 397 2633 464 
Q 2878 531 3122 666 
L 3122 134 
Q 2881 22 2623 -34 
Q 2366 -91 2075 -91 
Q 1284 -91 818 406 
Q 353 903 353 1747 
Q 353 2603 823 3093 
Q 1294 3584 2113 3584 
Q 2378 3584 2631 3529 
Q 2884 3475 3122 3366 
z
" transform="scale(0.015625)"/>
      </defs>
      <use xlink:href="#DejaVuSans-63"/>
     </g>
    </g>
   </g>
   <g id="text_3">
    <g clip-path="url(#pdf323d0d7b)">
     <!-- d -->
     <g transform="translate(14.858553 44.194469)scale(0.125 -0.125)">
      <defs>
       <path id="DejaVuSans-64" d="M 2906 2969 
L 2906 4863 
L 3481 4863 
L 3481 0 
L 2906 0 
L 2906 525 
Q 2725 213 2448 61 
Q 2172 -91 1784 -91 
Q 1150 -91 751 415 
Q 353 922 353 1747 
Q 353 2572 751 3078 
Q 1150 3584 1784 3584 
Q 2172 3584 2448 3432 
Q 2725 3281 2906 2969 
z
M 947 1747 
Q 947 1113 1208 752 
Q 1469 391 1925 391 
Q 2381 391 2643 752 
Q 2906 1113 2906 1747 
Q 2906 2381 2643 2742 
Q 2381 3103 1925 3103 
Q 1469 3103 1208 2742 
Q 947 2381 947 1747 
z
" transform="scale(0.015625)"/>
      </defs>
      <use xlink:href="#DejaVuSans-64"/>
     </g>
    </g>
   </g>
   <g id="text_4">
    <g clip-path="url(#pdf323d0d7b)">
     <!-- a -->
     <g transform="translate(21.253944 74.794469)scale(0.125 -0.125)">
      <defs>
       <path id="DejaVuSans-61" d="M 2194 1759 
Q 1497 1759 1228 1600 
Q 959 1441 959 1056 
Q 959 750 1161 570 
Q 1363 391 1709 391 
Q 2188 391 2477 730 
Q 2766 1069 2766 1631 
L 2766 1759 
L 2194 1759 
z
M 3341 1997 
L 3341 0 
L 2766 0 
L 2766 531 
Q 2569 213 2275 61 
Q 1981 -91 1556 -91 
Q 1019 -91 701 211 
Q 384 513 384 1019 
Q 384 1609 779 1909 
Q 1175 2209 1959 2209 
L 2766 2209 
L 2766 2266 
Q 2766 2663 2505 2880 
Q 2244 3097 1772 3097 
Q 1472 3097 1187 3025 
Q 903 2953 641 2809 
L 641 3341 
Q 956 3463 1253 3523 
Q 1550 3584 1831 3584 
Q 2591 3584 2966 3190 
Q 3341 2797 3341 1997 
z
" transform="scale(0.015625)"/>
      </defs>
      <use xlink:href="#DejaVuSans-61"/>
     </g>
    </g>
   </g>
   <g id="text_5">
    <g clip-path="url(#pdf323d0d7b)">
     <!-- b -->
     <g transform="translate(20.978553 90.094469)scale(0.125 -0.125)">
      <defs>
       <path id="DejaVuSans-62" d="M 3116 1747 
Q 3116 2381 2855 2742 
Q 2594 3103 2138 3103 
Q 1681 3103 1420 2742 
Q 1159 2381 1159 1747 
Q 1159 1113 1420 752 
Q 1681 391 2138 391 
Q 2594 391 2855 752 
Q 3116 1113 3116 1747 
z
M 1159 2969 
Q 1341 3281 1617 3432 
Q 1894 3584 2278 3584 
Q 2916 3584 3314 3078 
Q 3713 2572 3713 1747 
Q 3713 922 3314 415 
Q 2916 -91 2278 -91 
Q 1894 -91 1617 61 
Q 1341 213 1159 525 
L 1159 0 
L 581 0 
L 581 4863 
L 1159 4863 
L 1159 2969 
z
" transform="scale(0.015625)"/>
      </defs>
      <use xlink:href="#DejaVuSans-62"/>
     </g>
    </g>
   </g>
  </g>
 </g>
 <defs>
  <clipPath id="pdf323d0d7b">
   <rect x="7.2" y="7.2" width="189.5398" height="92.88545"/>
  </clipPath>
 </defs>
</svg>
