<?xml version="1.0" encoding="utf-8" standalone="no"?>
<!DOCTYPE svg PUBLIC "-//W3C//DTD SVG 1.1//EN"
  "http://www.w3.org/Graphics/SVG/1.1/DTD/svg11.dtd">
<svg xmlns:xlink="http://www.w3.org/1999/xlink" width="204.392pt" height="108.4814pt" viewBox="0 0 204.392 108.4814" xmlns="http://www.w3.org/2000/svg" version="1.1">
 <metadata>
  <rdf:RDF xmlns:dc="http://purl.org/dc/elements/1.1/" xmlns:cc="http://creativecommons.org/ns#" xmlns:rdf="http://www.w3.org/1999/02/22-rdf-syntax-ns#">
   <cc:Work>
    <dc:type rdf:resource="http://purl.org/dc/dcmitype/StillImage"/>
    <dc:date>2022-07-21T01:07:32.734511</dc:date>
    <dc:format>image/svg+xml</dc:format>
    <dc:creator>
     <cc:Agent>
      <dc:title>Matplotlib v3.5.2, https://matplotlib.org/</dc:title>
     </cc:Agent>
    </dc:creator>
   </cc:Work>
  </rdf:RDF>
 </metadata>
 <defs>
  <style type="text/css">*{stroke-linejoin: round; stroke-linecap: butt}</style>
 </defs>
 <g id="figure_1">
  <g id="patch_1">
   <path d="M 0 108.4814 
L 204.392 108.4814 
L 204.392 0 
L 0 0 
L 0 108.4814 
z
" style="fill: none"/>
  </g>
  <g id="axes_1">
   <g id="patch_2">
    <path d="M 143.1983 60.9727 
C 144.172126 60.9727 145.106197 60.585795 145.794796 59.897196 
C 146.483395 59.208597 146.8703 58.274526 146.8703 57.3007 
C 146.8703 56.326874 146.483395 55.392803 145.794796 54.704204 
C 145.106197 54.015605 144.172126 53.6287 143.1983 53.6287 
C 142.224474 53.6287 141.290403 54.015605 140.601804 54.704204 
C 139.913205 55.392803 139.5263 56.326874 139.5263 57.3007 
C 139.5263 58.274526 139.913205 59.208597 140.601804 59.897196 
C 141.290403 60.585795 142.224474 60.9727 143.1983 60.9727 
L 143.1983 60.9727 
z
" clip-path="url(#p4acfeb98c2)" style="fill: none; stroke: #000000; stroke-width: 2; stroke-linejoin: miter"/>
   </g>
   <g id="line2d_1">
    <path d="M 124.2263 72.6007 
L 125.206574 72.569265 
L 126.182821 72.475087 
L 127.151027 72.318555 
L 128.107215 72.100311 
L 129.047456 71.821253 
L 129.967885 71.482526 
L 130.864721 71.085524 
L 131.734279 70.631876 
L 132.572984 70.123448 
L 133.377391 69.562328 
L 134.144194 68.950823 
L 134.870243 68.291445 
L 135.552553 67.586904 
L 136.188322 66.840094 
L 136.774935 66.054085 
L 137.309984 65.232106 
L 137.791269 64.377536 
L 138.216813 63.493885 
L 138.584867 62.584785 
L 138.893918 61.653972 
L 139.142697 60.70527 
L 139.330181 59.742578 
L 139.4556 58.769852 
L 139.518439 57.791089 
L 139.518439 56.810311 
L 139.4556 55.831548 
L 139.330181 54.858822 
L 139.142697 53.89613 
L 138.893918 52.947428 
L 138.584867 52.016615 
L 138.216813 51.107515 
L 137.791269 50.223864 
L 137.309984 49.369294 
L 136.774935 48.547315 
L 136.188322 47.761306 
L 135.552553 47.014496 
L 134.870243 46.309955 
L 134.144194 45.650577 
L 133.377391 45.039072 
L 132.572984 44.477952 
L 131.734279 43.969524 
L 130.864721 43.515876 
L 129.967885 43.118874 
L 129.047456 42.780147 
L 128.107215 42.501089 
L 127.151027 42.282845 
L 126.182821 42.126313 
L 125.206574 42.032135 
L 124.2263 42.0007 
L 124.2263 42.0007 
L 104.3363 42.0007 
L 104.3363 57.3007 
L 104.3363 72.6007 
L 124.2263 72.6007 
" clip-path="url(#p4acfeb98c2)" style="fill: none; stroke: #000000; stroke-width: 2; stroke-linecap: round"/>
   </g>
   <g id="line2d_2">
    <path d="M 93.6263 64.9507 
L 104.3363 64.9507 
" clip-path="url(#p4acfeb98c2)" style="fill: none; stroke: #000000; stroke-width: 2; stroke-linecap: round"/>
   </g>
   <g id="line2d_3">
    <path d="M 93.6263 49.6507 
L 104.3363 49.6507 
" clip-path="url(#p4acfeb98c2)" style="fill: none; stroke: #000000; stroke-width: 2; stroke-linecap: round"/>
   </g>
   <g id="line2d_4">
    <path d="M 146.8703 57.3007 
L 150.2363 57.3007 
" clip-path="url(#p4acfeb98c2)" style="fill: none; stroke: #000000; stroke-width: 2; stroke-linecap: round"/>
   </g>
   <g id="line2d_5">
    <path d="M 41.6063 49.3447 
L 58.654871 49.244782 
L 60.403443 48.945027 
L 62.152014 48.445435 
L 63.900586 47.746006 
L 65.649157 46.846741 
L 67.834871 45.441639 
L 70.020586 43.724292 
L 72.2063 41.6947 
L 74.392014 39.352863 
L 76.577729 36.698782 
L 78.3263 34.3507 
L 78.3263 34.3507 
L 75.703443 30.903516 
L 73.517729 28.374333 
L 71.332014 26.157394 
L 69.1463 24.2527 
L 66.960586 22.660251 
L 64.774871 21.380047 
L 63.0263 20.5807 
L 61.277729 19.98119 
L 59.529157 19.581516 
L 57.780586 19.38168 
L 56.9063 19.3567 
L 41.6063 19.3567 
L 41.6063 19.3567 
L 43.8095 21.8047 
L 45.20486 23.6407 
L 46.3799 25.4767 
L 47.33462 27.3127 
L 48.06902 29.1487 
L 48.5831 30.9847 
L 48.87686 32.8207 
L 48.9503 34.6567 
L 48.80342 36.4927 
L 48.43622 38.3287 
L 47.8487 40.1647 
L 47.04086 42.0007 
L 46.0127 43.8367 
L 44.76422 45.6727 
L 43.29542 47.5087 
L 41.6063 49.3447 
L 41.6063 49.3447 
" clip-path="url(#p4acfeb98c2)" style="fill: none; stroke: #000000; stroke-width: 2; stroke-linecap: round"/>
   </g>
   <g id="line2d_6">
    <path d="M 30.8963 42.0007 
L 47.04086 42.0007 
" clip-path="url(#p4acfeb98c2)" style="fill: none; stroke: #000000; stroke-width: 2; stroke-linecap: round"/>
   </g>
   <g id="line2d_7">
    <path d="M 30.8963 26.7007 
L 47.04086 26.7007 
" clip-path="url(#p4acfeb98c2)" style="fill: none; stroke: #000000; stroke-width: 2; stroke-linecap: round"/>
   </g>
   <g id="line2d_8">
    <path d="M 78.3263 34.3507 
L 89.0363 34.3507 
" clip-path="url(#p4acfeb98c2)" style="fill: none; stroke: #000000; stroke-width: 2; stroke-linecap: round"/>
   </g>
   <g id="line2d_9">
    <path d="M 93.6263 49.6507 
L 89.0363 49.6507 
L 89.0363 34.3507 
" clip-path="url(#p4acfeb98c2)" style="fill: none; stroke: #000000; stroke-width: 2; stroke-linecap: round"/>
   </g>
   <g id="line2d_10">
    <path d="M 41.6063 95.2447 
L 58.654871 95.144782 
L 60.403443 94.845027 
L 62.152014 94.345435 
L 63.900586 93.646006 
L 65.649157 92.746741 
L 67.834871 91.341639 
L 70.020586 89.624292 
L 72.2063 87.5947 
L 74.392014 85.252863 
L 76.577729 82.598782 
L 78.3263 80.2507 
L 78.3263 80.2507 
L 75.703443 76.803516 
L 73.517729 74.274333 
L 71.332014 72.057394 
L 69.1463 70.1527 
L 66.960586 68.560251 
L 64.774871 67.280047 
L 63.0263 66.4807 
L 61.277729 65.88119 
L 59.529157 65.481516 
L 57.780586 65.28168 
L 56.9063 65.2567 
L 41.6063 65.2567 
L 41.6063 65.2567 
L 43.8095 67.7047 
L 45.20486 69.5407 
L 46.3799 71.3767 
L 47.33462 73.2127 
L 48.06902 75.0487 
L 48.5831 76.8847 
L 48.87686 78.7207 
L 48.9503 80.5567 
L 48.80342 82.3927 
L 48.43622 84.2287 
L 47.8487 86.0647 
L 47.04086 87.9007 
L 46.0127 89.7367 
L 44.76422 91.5727 
L 43.29542 93.4087 
L 41.6063 95.2447 
L 41.6063 95.2447 
" clip-path="url(#p4acfeb98c2)" style="fill: none; stroke: #000000; stroke-width: 2; stroke-linecap: round"/>
   </g>
   <g id="line2d_11">
    <path d="M 37.0163 95.2447 
L 37.60382 94.6327 
L 38.16686 94.0207 
L 38.70542 93.4087 
L 39.2195 92.7967 
L 39.7091 92.1847 
L 40.17422 91.5727 
L 40.61486 90.9607 
L 41.03102 90.3487 
L 41.4227 89.7367 
L 41.7899 89.1247 
L 42.13262 88.5127 
L 42.45086 87.9007 
L 42.74462 87.2887 
L 43.0139 86.6767 
L 43.2587 86.0647 
L 43.47902 85.4527 
L 43.67486 84.8407 
L 43.84622 84.2287 
L 43.9931 83.6167 
L 44.1155 83.0047 
L 44.21342 82.3927 
L 44.28686 81.7807 
L 44.33582 81.1687 
L 44.3603 80.5567 
L 44.3603 79.9447 
L 44.33582 79.3327 
L 44.28686 78.7207 
L 44.21342 78.1087 
L 44.1155 77.4967 
L 43.9931 76.8847 
L 43.84622 76.2727 
L 43.67486 75.6607 
L 43.47902 75.0487 
L 43.2587 74.4367 
L 43.0139 73.8247 
L 42.74462 73.2127 
L 42.45086 72.6007 
L 42.13262 71.9887 
L 41.7899 71.3767 
L 41.4227 70.7647 
L 41.03102 70.1527 
L 40.61486 69.5407 
L 40.17422 68.9287 
L 39.7091 68.3167 
L 39.2195 67.7047 
L 38.70542 67.0927 
L 38.16686 66.4807 
L 37.60382 65.8687 
L 37.0163 65.2567 
" clip-path="url(#p4acfeb98c2)" style="fill: none; stroke: #000000; stroke-width: 2; stroke-linecap: round"/>
   </g>
   <g id="line2d_12">
    <path d="M 26.3063 87.9007 
L 42.45086 87.9007 
" clip-path="url(#p4acfeb98c2)" style="fill: none; stroke: #000000; stroke-width: 2; stroke-linecap: round"/>
   </g>
   <g id="line2d_13">
    <path d="M 26.3063 72.6007 
L 42.45086 72.6007 
" clip-path="url(#p4acfeb98c2)" style="fill: none; stroke: #000000; stroke-width: 2; stroke-linecap: round"/>
   </g>
   <g id="line2d_14">
    <path d="M 78.3263 80.2507 
L 89.0363 80.2507 
" clip-path="url(#p4acfeb98c2)" style="fill: none; stroke: #000000; stroke-width: 2; stroke-linecap: round"/>
   </g>
   <g id="line2d_15">
    <path d="M 93.6263 64.9507 
L 89.0363 64.9507 
L 89.0363 80.2507 
" clip-path="url(#p4acfeb98c2)" style="fill: none; stroke: #000000; stroke-width: 2; stroke-linecap: round"/>
   </g>
   <g id="text_1">
    <g clip-path="url(#p4acfeb98c2)">
     <!-- $result$ -->
     <g transform="translate(153.2963 60.749919)scale(0.125 -0.125)">
      <defs>
       <path id="DejaVuSans-Oblique-72" d="M 2853 2969 
Q 2766 3016 2653 3041 
Q 2541 3066 2413 3066 
Q 1953 3066 1609 2717 
Q 1266 2369 1153 1784 
L 800 0 
L 225 0 
L 909 3500 
L 1484 3500 
L 1375 2956 
Q 1603 3259 1920 3421 
Q 2238 3584 2597 3584 
Q 2691 3584 2781 3573 
Q 2872 3563 2963 3538 
L 2853 2969 
z
" transform="scale(0.015625)"/>
       <path id="DejaVuSans-Oblique-65" d="M 3078 2063 
Q 3088 2113 3092 2166 
Q 3097 2219 3097 2272 
Q 3097 2653 2873 2875 
Q 2650 3097 2266 3097 
Q 1838 3097 1509 2826 
Q 1181 2556 1013 2059 
L 3078 2063 
z
M 3578 1613 
L 903 1613 
Q 884 1494 878 1425 
Q 872 1356 872 1306 
Q 872 872 1139 634 
Q 1406 397 1894 397 
Q 2269 397 2603 481 
Q 2938 566 3225 728 
L 3116 159 
Q 2806 34 2476 -28 
Q 2147 -91 1806 -91 
Q 1078 -91 686 257 
Q 294 606 294 1247 
Q 294 1794 489 2264 
Q 684 2734 1063 3103 
Q 1306 3334 1642 3459 
Q 1978 3584 2356 3584 
Q 2950 3584 3301 3228 
Q 3653 2872 3653 2272 
Q 3653 2128 3634 1964 
Q 3616 1800 3578 1613 
z
" transform="scale(0.015625)"/>
       <path id="DejaVuSans-Oblique-73" d="M 3200 3397 
L 3091 2853 
Q 2863 2978 2609 3040 
Q 2356 3103 2088 3103 
Q 1634 3103 1373 2948 
Q 1113 2794 1113 2528 
Q 1113 2219 1719 2053 
Q 1766 2041 1788 2034 
L 1972 1978 
Q 2547 1819 2739 1644 
Q 2931 1469 2931 1166 
Q 2931 609 2489 259 
Q 2047 -91 1331 -91 
Q 1053 -91 747 -37 
Q 441 16 72 128 
L 184 722 
Q 500 559 806 475 
Q 1113 391 1394 391 
Q 1816 391 2080 572 
Q 2344 753 2344 1031 
Q 2344 1331 1650 1516 
L 1591 1531 
L 1394 1581 
Q 956 1697 753 1886 
Q 550 2075 550 2369 
Q 550 2928 970 3256 
Q 1391 3584 2113 3584 
Q 2397 3584 2667 3537 
Q 2938 3491 3200 3397 
z
" transform="scale(0.015625)"/>
       <path id="DejaVuSans-Oblique-75" d="M 428 1388 
L 838 3500 
L 1416 3500 
L 1006 1409 
Q 975 1256 961 1147 
Q 947 1038 947 966 
Q 947 700 1109 554 
Q 1272 409 1569 409 
Q 2031 409 2368 721 
Q 2706 1034 2809 1563 
L 3194 3500 
L 3769 3500 
L 3091 0 
L 2516 0 
L 2631 550 
Q 2388 244 2052 76 
Q 1716 -91 1338 -91 
Q 878 -91 622 161 
Q 366 413 366 863 
Q 366 956 381 1097 
Q 397 1238 428 1388 
z
" transform="scale(0.015625)"/>
       <path id="DejaVuSans-Oblique-6c" d="M 1172 4863 
L 1747 4863 
L 800 0 
L 225 0 
L 1172 4863 
z
" transform="scale(0.015625)"/>
       <path id="DejaVuSans-Oblique-74" d="M 2706 3500 
L 2619 3053 
L 1472 3053 
L 1100 1153 
Q 1081 1047 1072 975 
Q 1063 903 1063 863 
Q 1063 663 1183 572 
Q 1303 481 1569 481 
L 2150 481 
L 2053 0 
L 1503 0 
Q 991 0 739 200 
Q 488 400 488 806 
Q 488 878 497 964 
Q 506 1050 525 1153 
L 897 3053 
L 409 3053 
L 500 3500 
L 978 3500 
L 1172 4494 
L 1747 4494 
L 1556 3500 
L 2706 3500 
z
" transform="scale(0.015625)"/>
      </defs>
      <use xlink:href="#DejaVuSans-Oblique-72" transform="translate(0 0.015625)"/>
      <use xlink:href="#DejaVuSans-Oblique-65" transform="translate(41.113281 0.015625)"/>
      <use xlink:href="#DejaVuSans-Oblique-73" transform="translate(102.636719 0.015625)"/>
      <use xlink:href="#DejaVuSans-Oblique-75" transform="translate(154.736328 0.015625)"/>
      <use xlink:href="#DejaVuSans-Oblique-6c" transform="translate(218.115234 0.015625)"/>
      <use xlink:href="#DejaVuSans-Oblique-74" transform="translate(245.898438 0.015625)"/>
     </g>
    </g>
   </g>
   <g id="text_2">
    <g clip-path="url(#p4acfeb98c2)">
     <!-- l -->
     <g transform="translate(24.363644 30.149919)scale(0.125 -0.125)">
      <defs>
       <path id="DejaVuSans-6c" d="M 603 4863 
L 1178 4863 
L 1178 0 
L 603 0 
L 603 4863 
z
" transform="scale(0.015625)"/>
      </defs>
      <use xlink:href="#DejaVuSans-6c"/>
     </g>
    </g>
   </g>
   <g id="text_3">
    <g clip-path="url(#p4acfeb98c2)">
     <!-- h -->
     <g transform="translate(19.914425 45.449919)scale(0.125 -0.125)">
      <defs>
       <path id="DejaVuSans-68" d="M 3513 2113 
L 3513 0 
L 2938 0 
L 2938 2094 
Q 2938 2591 2744 2837 
Q 2550 3084 2163 3084 
Q 1697 3084 1428 2787 
Q 1159 2491 1159 1978 
L 1159 0 
L 581 0 
L 581 4863 
L 1159 4863 
L 1159 2956 
Q 1366 3272 1645 3428 
Q 1925 3584 2291 3584 
Q 2894 3584 3203 3211 
Q 3513 2838 3513 2113 
z
" transform="scale(0.015625)"/>
      </defs>
      <use xlink:href="#DejaVuSans-68"/>
     </g>
    </g>
   </g>
   <g id="text_4">
    <g clip-path="url(#p4acfeb98c2)">
     <!-- h -->
     <g transform="translate(15.324425 76.049919)scale(0.125 -0.125)">
      <use xlink:href="#DejaVuSans-68"/>
     </g>
    </g>
   </g>
   <g id="text_5">
    <g clip-path="url(#p4acfeb98c2)">
     <!-- l -->
     <g transform="translate(19.773644 91.349919)scale(0.125 -0.125)">
      <use xlink:href="#DejaVuSans-6c"/>
     </g>
    </g>
   </g>
  </g>
 </g>
 <defs>
  <clipPath id="p4acfeb98c2">
   <rect x="7.2" y="7.2" width="189.992" height="94.0814"/>
  </clipPath>
 </defs>
</svg>
