<?xml version="1.0" encoding="utf-8" standalone="no"?>
<!DOCTYPE svg PUBLIC "-//W3C//DTD SVG 1.1//EN"
  "http://www.w3.org/Graphics/SVG/1.1/DTD/svg11.dtd">
<svg xmlns:xlink="http://www.w3.org/1999/xlink" width="204.392pt" height="74.0564pt" viewBox="0 0 204.392 74.0564" xmlns="http://www.w3.org/2000/svg" version="1.1">
 <metadata>
  <rdf:RDF xmlns:dc="http://purl.org/dc/elements/1.1/" xmlns:cc="http://creativecommons.org/ns#" xmlns:rdf="http://www.w3.org/1999/02/22-rdf-syntax-ns#">
   <cc:Work>
    <dc:type rdf:resource="http://purl.org/dc/dcmitype/StillImage"/>
    <dc:date>2022-07-21T03:44:11.081029</dc:date>
    <dc:format>image/svg+xml</dc:format>
    <dc:creator>
     <cc:Agent>
      <dc:title>Matplotlib v3.5.2, https://matplotlib.org/</dc:title>
     </cc:Agent>
    </dc:creator>
   </cc:Work>
  </rdf:RDF>
 </metadata>
 <defs>
  <style type="text/css">*{stroke-linejoin: round; stroke-linecap: butt}</style>
 </defs>
 <g id="figure_1">
  <g id="patch_1">
   <path d="M 0 74.0564 
L 204.392 74.0564 
L 204.392 0 
L 0 0 
L 0 74.0564 
z
" style="fill: none"/>
  </g>
  <g id="axes_1">
   <g id="patch_2">
    <path d="M 143.1983 49.4977 
C 144.172126 49.4977 145.106197 49.110795 145.794796 48.422196 
C 146.483395 47.733597 146.8703 46.799526 146.8703 45.8257 
C 146.8703 44.851874 146.483395 43.917803 145.794796 43.229204 
C 145.106197 42.540605 144.172126 42.1537 143.1983 42.1537 
C 142.224474 42.1537 141.290403 42.540605 140.601804 43.229204 
C 139.913205 43.917803 139.5263 44.851874 139.5263 45.8257 
C 139.5263 46.799526 139.913205 47.733597 140.601804 48.422196 
C 141.290403 49.110795 142.224474 49.4977 143.1983 49.4977 
L 143.1983 49.4977 
z
" clip-path="url(#p5053594adf)" style="fill: none; stroke: #000000; stroke-width: 2; stroke-linejoin: miter"/>
   </g>
   <g id="line2d_1">
    <path d="M 102.8063 60.8197 
L 119.854871 60.719782 
L 121.603443 60.420027 
L 123.352014 59.920435 
L 125.100586 59.221006 
L 126.849157 58.321741 
L 129.034871 56.916639 
L 131.220586 55.199292 
L 133.4063 53.1697 
L 135.592014 50.827863 
L 137.777729 48.173782 
L 139.5263 45.8257 
L 139.5263 45.8257 
L 136.903443 42.378516 
L 134.717729 39.849333 
L 132.532014 37.632394 
L 130.3463 35.7277 
L 128.160586 34.135251 
L 125.974871 32.855047 
L 124.2263 32.0557 
L 122.477729 31.45619 
L 120.729157 31.056516 
L 118.980586 30.85668 
L 118.1063 30.8317 
L 102.8063 30.8317 
L 102.8063 30.8317 
L 105.0095 33.2797 
L 106.40486 35.1157 
L 107.5799 36.9517 
L 108.53462 38.7877 
L 109.26902 40.6237 
L 109.7831 42.4597 
L 110.07686 44.2957 
L 110.1503 46.1317 
L 110.00342 47.9677 
L 109.63622 49.8037 
L 109.0487 51.6397 
L 108.24086 53.4757 
L 107.2127 55.3117 
L 105.96422 57.1477 
L 104.49542 58.9837 
L 102.8063 60.8197 
L 102.8063 60.8197 
" clip-path="url(#p5053594adf)" style="fill: none; stroke: #000000; stroke-width: 2; stroke-linecap: round"/>
   </g>
   <g id="line2d_2">
    <path d="M 98.2163 60.8197 
L 98.80382 60.2077 
L 99.36686 59.5957 
L 99.90542 58.9837 
L 100.4195 58.3717 
L 100.9091 57.7597 
L 101.37422 57.1477 
L 101.81486 56.5357 
L 102.23102 55.9237 
L 102.6227 55.3117 
L 102.9899 54.6997 
L 103.33262 54.0877 
L 103.65086 53.4757 
L 103.94462 52.8637 
L 104.2139 52.2517 
L 104.4587 51.6397 
L 104.67902 51.0277 
L 104.87486 50.4157 
L 105.04622 49.8037 
L 105.1931 49.1917 
L 105.3155 48.5797 
L 105.41342 47.9677 
L 105.48686 47.3557 
L 105.53582 46.7437 
L 105.5603 46.1317 
L 105.5603 45.5197 
L 105.53582 44.9077 
L 105.48686 44.2957 
L 105.41342 43.6837 
L 105.3155 43.0717 
L 105.1931 42.4597 
L 105.04622 41.8477 
L 104.87486 41.2357 
L 104.67902 40.6237 
L 104.4587 40.0117 
L 104.2139 39.3997 
L 103.94462 38.7877 
L 103.65086 38.1757 
L 103.33262 37.5637 
L 102.9899 36.9517 
L 102.6227 36.3397 
L 102.23102 35.7277 
L 101.81486 35.1157 
L 101.37422 34.5037 
L 100.9091 33.8917 
L 100.4195 33.2797 
L 99.90542 32.6677 
L 99.36686 32.0557 
L 98.80382 31.4437 
L 98.2163 30.8317 
" clip-path="url(#p5053594adf)" style="fill: none; stroke: #000000; stroke-width: 2; stroke-linecap: round"/>
   </g>
   <g id="line2d_3">
    <path d="M 87.5063 53.4757 
L 103.65086 53.4757 
" clip-path="url(#p5053594adf)" style="fill: none; stroke: #000000; stroke-width: 2; stroke-linecap: round"/>
   </g>
   <g id="line2d_4">
    <path d="M 87.5063 38.1757 
L 103.65086 38.1757 
" clip-path="url(#p5053594adf)" style="fill: none; stroke: #000000; stroke-width: 2; stroke-linecap: round"/>
   </g>
   <g id="line2d_5">
    <path d="M 146.8703 45.8257 
L 150.2363 45.8257 
" clip-path="url(#p5053594adf)" style="fill: none; stroke: #000000; stroke-width: 2; stroke-linecap: round"/>
   </g>
   <g id="line2d_6">
    <path d="M 41.6063 49.3447 
L 58.654871 49.244782 
L 60.403443 48.945027 
L 62.152014 48.445435 
L 63.900586 47.746006 
L 65.649157 46.846741 
L 67.834871 45.441639 
L 70.020586 43.724292 
L 72.2063 41.6947 
L 74.392014 39.352863 
L 76.577729 36.698782 
L 78.3263 34.3507 
L 78.3263 34.3507 
L 75.703443 30.903516 
L 73.517729 28.374333 
L 71.332014 26.157394 
L 69.1463 24.2527 
L 66.960586 22.660251 
L 64.774871 21.380047 
L 63.0263 20.5807 
L 61.277729 19.98119 
L 59.529157 19.581516 
L 57.780586 19.38168 
L 56.9063 19.3567 
L 41.6063 19.3567 
L 41.6063 19.3567 
L 43.8095 21.8047 
L 45.20486 23.6407 
L 46.3799 25.4767 
L 47.33462 27.3127 
L 48.06902 29.1487 
L 48.5831 30.9847 
L 48.87686 32.8207 
L 48.9503 34.6567 
L 48.80342 36.4927 
L 48.43622 38.3287 
L 47.8487 40.1647 
L 47.04086 42.0007 
L 46.0127 43.8367 
L 44.76422 45.6727 
L 43.29542 47.5087 
L 41.6063 49.3447 
L 41.6063 49.3447 
" clip-path="url(#p5053594adf)" style="fill: none; stroke: #000000; stroke-width: 2; stroke-linecap: round"/>
   </g>
   <g id="line2d_7">
    <path d="M 37.0163 49.3447 
L 37.60382 48.7327 
L 38.16686 48.1207 
L 38.70542 47.5087 
L 39.2195 46.8967 
L 39.7091 46.2847 
L 40.17422 45.6727 
L 40.61486 45.0607 
L 41.03102 44.4487 
L 41.4227 43.8367 
L 41.7899 43.2247 
L 42.13262 42.6127 
L 42.45086 42.0007 
L 42.74462 41.3887 
L 43.0139 40.7767 
L 43.2587 40.1647 
L 43.47902 39.5527 
L 43.67486 38.9407 
L 43.84622 38.3287 
L 43.9931 37.7167 
L 44.1155 37.1047 
L 44.21342 36.4927 
L 44.28686 35.8807 
L 44.33582 35.2687 
L 44.3603 34.6567 
L 44.3603 34.0447 
L 44.33582 33.4327 
L 44.28686 32.8207 
L 44.21342 32.2087 
L 44.1155 31.5967 
L 43.9931 30.9847 
L 43.84622 30.3727 
L 43.67486 29.7607 
L 43.47902 29.1487 
L 43.2587 28.5367 
L 43.0139 27.9247 
L 42.74462 27.3127 
L 42.45086 26.7007 
L 42.13262 26.0887 
L 41.7899 25.4767 
L 41.4227 24.8647 
L 41.03102 24.2527 
L 40.61486 23.6407 
L 40.17422 23.0287 
L 39.7091 22.4167 
L 39.2195 21.8047 
L 38.70542 21.1927 
L 38.16686 20.5807 
L 37.60382 19.9687 
L 37.0163 19.3567 
" clip-path="url(#p5053594adf)" style="fill: none; stroke: #000000; stroke-width: 2; stroke-linecap: round"/>
   </g>
   <g id="line2d_8">
    <path d="M 26.3063 42.0007 
L 42.45086 42.0007 
" clip-path="url(#p5053594adf)" style="fill: none; stroke: #000000; stroke-width: 2; stroke-linecap: round"/>
   </g>
   <g id="line2d_9">
    <path d="M 26.3063 26.7007 
L 42.45086 26.7007 
" clip-path="url(#p5053594adf)" style="fill: none; stroke: #000000; stroke-width: 2; stroke-linecap: round"/>
   </g>
   <g id="line2d_10">
    <path d="M 78.3263 34.3507 
L 89.0363 34.3507 
" clip-path="url(#p5053594adf)" style="fill: none; stroke: #000000; stroke-width: 2; stroke-linecap: round"/>
   </g>
   <g id="line2d_11">
    <path d="M 87.5063 38.1757 
L 89.0363 38.1757 
L 89.0363 34.3507 
" clip-path="url(#p5053594adf)" style="fill: none; stroke: #000000; stroke-width: 2; stroke-linecap: round"/>
   </g>
   <g id="text_1">
    <g clip-path="url(#p5053594adf)">
     <!-- $result$ -->
     <g transform="translate(153.2963 49.274919)scale(0.125 -0.125)">
      <defs>
       <path id="DejaVuSans-Oblique-72" d="M 2853 2969 
Q 2766 3016 2653 3041 
Q 2541 3066 2413 3066 
Q 1953 3066 1609 2717 
Q 1266 2369 1153 1784 
L 800 0 
L 225 0 
L 909 3500 
L 1484 3500 
L 1375 2956 
Q 1603 3259 1920 3421 
Q 2238 3584 2597 3584 
Q 2691 3584 2781 3573 
Q 2872 3563 2963 3538 
L 2853 2969 
z
" transform="scale(0.015625)"/>
       <path id="DejaVuSans-Oblique-65" d="M 3078 2063 
Q 3088 2113 3092 2166 
Q 3097 2219 3097 2272 
Q 3097 2653 2873 2875 
Q 2650 3097 2266 3097 
Q 1838 3097 1509 2826 
Q 1181 2556 1013 2059 
L 3078 2063 
z
M 3578 1613 
L 903 1613 
Q 884 1494 878 1425 
Q 872 1356 872 1306 
Q 872 872 1139 634 
Q 1406 397 1894 397 
Q 2269 397 2603 481 
Q 2938 566 3225 728 
L 3116 159 
Q 2806 34 2476 -28 
Q 2147 -91 1806 -91 
Q 1078 -91 686 257 
Q 294 606 294 1247 
Q 294 1794 489 2264 
Q 684 2734 1063 3103 
Q 1306 3334 1642 3459 
Q 1978 3584 2356 3584 
Q 2950 3584 3301 3228 
Q 3653 2872 3653 2272 
Q 3653 2128 3634 1964 
Q 3616 1800 3578 1613 
z
" transform="scale(0.015625)"/>
       <path id="DejaVuSans-Oblique-73" d="M 3200 3397 
L 3091 2853 
Q 2863 2978 2609 3040 
Q 2356 3103 2088 3103 
Q 1634 3103 1373 2948 
Q 1113 2794 1113 2528 
Q 1113 2219 1719 2053 
Q 1766 2041 1788 2034 
L 1972 1978 
Q 2547 1819 2739 1644 
Q 2931 1469 2931 1166 
Q 2931 609 2489 259 
Q 2047 -91 1331 -91 
Q 1053 -91 747 -37 
Q 441 16 72 128 
L 184 722 
Q 500 559 806 475 
Q 1113 391 1394 391 
Q 1816 391 2080 572 
Q 2344 753 2344 1031 
Q 2344 1331 1650 1516 
L 1591 1531 
L 1394 1581 
Q 956 1697 753 1886 
Q 550 2075 550 2369 
Q 550 2928 970 3256 
Q 1391 3584 2113 3584 
Q 2397 3584 2667 3537 
Q 2938 3491 3200 3397 
z
" transform="scale(0.015625)"/>
       <path id="DejaVuSans-Oblique-75" d="M 428 1388 
L 838 3500 
L 1416 3500 
L 1006 1409 
Q 975 1256 961 1147 
Q 947 1038 947 966 
Q 947 700 1109 554 
Q 1272 409 1569 409 
Q 2031 409 2368 721 
Q 2706 1034 2809 1563 
L 3194 3500 
L 3769 3500 
L 3091 0 
L 2516 0 
L 2631 550 
Q 2388 244 2052 76 
Q 1716 -91 1338 -91 
Q 878 -91 622 161 
Q 366 413 366 863 
Q 366 956 381 1097 
Q 397 1238 428 1388 
z
" transform="scale(0.015625)"/>
       <path id="DejaVuSans-Oblique-6c" d="M 1172 4863 
L 1747 4863 
L 800 0 
L 225 0 
L 1172 4863 
z
" transform="scale(0.015625)"/>
       <path id="DejaVuSans-Oblique-74" d="M 2706 3500 
L 2619 3053 
L 1472 3053 
L 1100 1153 
Q 1081 1047 1072 975 
Q 1063 903 1063 863 
Q 1063 663 1183 572 
Q 1303 481 1569 481 
L 2150 481 
L 2053 0 
L 1503 0 
Q 991 0 739 200 
Q 488 400 488 806 
Q 488 878 497 964 
Q 506 1050 525 1153 
L 897 3053 
L 409 3053 
L 500 3500 
L 978 3500 
L 1172 4494 
L 1747 4494 
L 1556 3500 
L 2706 3500 
z
" transform="scale(0.015625)"/>
      </defs>
      <use xlink:href="#DejaVuSans-Oblique-72" transform="translate(0 0.015625)"/>
      <use xlink:href="#DejaVuSans-Oblique-65" transform="translate(41.113281 0.015625)"/>
      <use xlink:href="#DejaVuSans-Oblique-73" transform="translate(102.636719 0.015625)"/>
      <use xlink:href="#DejaVuSans-Oblique-75" transform="translate(154.736328 0.015625)"/>
      <use xlink:href="#DejaVuSans-Oblique-6c" transform="translate(218.115234 0.015625)"/>
      <use xlink:href="#DejaVuSans-Oblique-74" transform="translate(245.898438 0.015625)"/>
     </g>
    </g>
   </g>
   <g id="text_2">
    <g clip-path="url(#p5053594adf)">
     <!-- h -->
     <g transform="translate(76.524425 56.924919)scale(0.125 -0.125)">
      <defs>
       <path id="DejaVuSans-68" d="M 3513 2113 
L 3513 0 
L 2938 0 
L 2938 2094 
Q 2938 2591 2744 2837 
Q 2550 3084 2163 3084 
Q 1697 3084 1428 2787 
Q 1159 2491 1159 1978 
L 1159 0 
L 581 0 
L 581 4863 
L 1159 4863 
L 1159 2956 
Q 1366 3272 1645 3428 
Q 1925 3584 2291 3584 
Q 2894 3584 3203 3211 
Q 3513 2838 3513 2113 
z
" transform="scale(0.015625)"/>
      </defs>
      <use xlink:href="#DejaVuSans-68"/>
     </g>
    </g>
   </g>
   <g id="text_3">
    <g clip-path="url(#p5053594adf)">
     <!-- h -->
     <g transform="translate(15.324425 30.149919)scale(0.125 -0.125)">
      <use xlink:href="#DejaVuSans-68"/>
     </g>
    </g>
   </g>
   <g id="text_4">
    <g clip-path="url(#p5053594adf)">
     <!-- h -->
     <g transform="translate(15.324425 45.449919)scale(0.125 -0.125)">
      <use xlink:href="#DejaVuSans-68"/>
     </g>
    </g>
   </g>
  </g>
 </g>
 <defs>
  <clipPath id="p5053594adf">
   <rect x="7.2" y="7.2" width="189.992" height="59.6564"/>
  </clipPath>
 </defs>
</svg>
