<?xml version="1.0" encoding="utf-8" standalone="no"?>
<!DOCTYPE svg PUBLIC "-//W3C//DTD SVG 1.1//EN"
  "http://www.w3.org/Graphics/SVG/1.1/DTD/svg11.dtd">
<svg xmlns:xlink="http://www.w3.org/1999/xlink" width="204.392pt" height="108.4814pt" viewBox="0 0 204.392 108.4814" xmlns="http://www.w3.org/2000/svg" version="1.1">
 <metadata>
  <rdf:RDF xmlns:dc="http://purl.org/dc/elements/1.1/" xmlns:cc="http://creativecommons.org/ns#" xmlns:rdf="http://www.w3.org/1999/02/22-rdf-syntax-ns#">
   <cc:Work>
    <dc:type rdf:resource="http://purl.org/dc/dcmitype/StillImage"/>
    <dc:date>2022-07-21T04:29:19.274934</dc:date>
    <dc:format>image/svg+xml</dc:format>
    <dc:creator>
     <cc:Agent>
      <dc:title>Matplotlib v3.5.2, https://matplotlib.org/</dc:title>
     </cc:Agent>
    </dc:creator>
   </cc:Work>
  </rdf:RDF>
 </metadata>
 <defs>
  <style type="text/css">*{stroke-linejoin: round; stroke-linecap: butt}</style>
 </defs>
 <g id="figure_1">
  <g id="patch_1">
   <path d="M 0 108.4814 
L 204.392 108.4814 
L 204.392 0 
L 0 0 
L 0 108.4814 
z
" style="fill: none"/>
  </g>
  <g id="axes_1">
   <g id="patch_2">
    <path d="M 81.9983 38.0227 
C 82.972126 38.0227 83.906197 37.635795 84.594796 36.947196 
C 85.283395 36.258597 85.6703 35.324526 85.6703 34.3507 
C 85.6703 33.376874 85.283395 32.442803 84.594796 31.754204 
C 83.906197 31.065605 82.972126 30.6787 81.9983 30.6787 
C 81.024474 30.6787 80.090403 31.065605 79.401804 31.754204 
C 78.713205 32.442803 78.3263 33.376874 78.3263 34.3507 
C 78.3263 35.324526 78.713205 36.258597 79.401804 36.947196 
C 80.090403 37.635795 81.024474 38.0227 81.9983 38.0227 
L 81.9983 38.0227 
z
" clip-path="url(#p094dd7feb6)" style="fill: none; stroke: #000000; stroke-width: 2; stroke-linejoin: miter"/>
   </g>
   <g id="line2d_1">
    <path d="M 102.8063 72.2947 
L 119.854871 72.194782 
L 121.603443 71.895027 
L 123.352014 71.395435 
L 125.100586 70.696006 
L 126.849157 69.796741 
L 129.034871 68.391639 
L 131.220586 66.674292 
L 133.4063 64.6447 
L 135.592014 62.302863 
L 137.777729 59.648782 
L 139.5263 57.3007 
L 139.5263 57.3007 
L 136.903443 53.853516 
L 134.717729 51.324333 
L 132.532014 49.107394 
L 130.3463 47.2027 
L 128.160586 45.610251 
L 125.974871 44.330047 
L 124.2263 43.5307 
L 122.477729 42.93119 
L 120.729157 42.531516 
L 118.980586 42.33168 
L 118.1063 42.3067 
L 102.8063 42.3067 
L 102.8063 42.3067 
L 105.0095 44.7547 
L 106.40486 46.5907 
L 107.5799 48.4267 
L 108.53462 50.2627 
L 109.26902 52.0987 
L 109.7831 53.9347 
L 110.07686 55.7707 
L 110.1503 57.6067 
L 110.00342 59.4427 
L 109.63622 61.2787 
L 109.0487 63.1147 
L 108.24086 64.9507 
L 107.2127 66.7867 
L 105.96422 68.6227 
L 104.49542 70.4587 
L 102.8063 72.2947 
L 102.8063 72.2947 
" clip-path="url(#p094dd7feb6)" style="fill: none; stroke: #000000; stroke-width: 2; stroke-linecap: round"/>
   </g>
   <g id="line2d_2">
    <path d="M 98.2163 72.2947 
L 98.80382 71.6827 
L 99.36686 71.0707 
L 99.90542 70.4587 
L 100.4195 69.8467 
L 100.9091 69.2347 
L 101.37422 68.6227 
L 101.81486 68.0107 
L 102.23102 67.3987 
L 102.6227 66.7867 
L 102.9899 66.1747 
L 103.33262 65.5627 
L 103.65086 64.9507 
L 103.94462 64.3387 
L 104.2139 63.7267 
L 104.4587 63.1147 
L 104.67902 62.5027 
L 104.87486 61.8907 
L 105.04622 61.2787 
L 105.1931 60.6667 
L 105.3155 60.0547 
L 105.41342 59.4427 
L 105.48686 58.8307 
L 105.53582 58.2187 
L 105.5603 57.6067 
L 105.5603 56.9947 
L 105.53582 56.3827 
L 105.48686 55.7707 
L 105.41342 55.1587 
L 105.3155 54.5467 
L 105.1931 53.9347 
L 105.04622 53.3227 
L 104.87486 52.7107 
L 104.67902 52.0987 
L 104.4587 51.4867 
L 104.2139 50.8747 
L 103.94462 50.2627 
L 103.65086 49.6507 
L 103.33262 49.0387 
L 102.9899 48.4267 
L 102.6227 47.8147 
L 102.23102 47.2027 
L 101.81486 46.5907 
L 101.37422 45.9787 
L 100.9091 45.3667 
L 100.4195 44.7547 
L 99.90542 44.1427 
L 99.36686 43.5307 
L 98.80382 42.9187 
L 98.2163 42.3067 
" clip-path="url(#p094dd7feb6)" style="fill: none; stroke: #000000; stroke-width: 2; stroke-linecap: round"/>
   </g>
   <g id="line2d_3">
    <path d="M 87.5063 64.9507 
L 103.65086 64.9507 
" clip-path="url(#p094dd7feb6)" style="fill: none; stroke: #000000; stroke-width: 2; stroke-linecap: round"/>
   </g>
   <g id="line2d_4">
    <path d="M 87.5063 49.6507 
L 103.65086 49.6507 
" clip-path="url(#p094dd7feb6)" style="fill: none; stroke: #000000; stroke-width: 2; stroke-linecap: round"/>
   </g>
   <g id="line2d_5">
    <path d="M 139.5263 57.3007 
L 150.2363 57.3007 
" clip-path="url(#p094dd7feb6)" style="fill: none; stroke: #000000; stroke-width: 2; stroke-linecap: round"/>
   </g>
   <g id="line2d_6">
    <path d="M 41.6063 49.3447 
L 58.654871 49.244782 
L 60.403443 48.945027 
L 62.152014 48.445435 
L 63.900586 47.746006 
L 65.649157 46.846741 
L 67.834871 45.441639 
L 70.020586 43.724292 
L 72.2063 41.6947 
L 74.392014 39.352863 
L 76.577729 36.698782 
L 78.3263 34.3507 
L 78.3263 34.3507 
L 75.703443 30.903516 
L 73.517729 28.374333 
L 71.332014 26.157394 
L 69.1463 24.2527 
L 66.960586 22.660251 
L 64.774871 21.380047 
L 63.0263 20.5807 
L 61.277729 19.98119 
L 59.529157 19.581516 
L 57.780586 19.38168 
L 56.9063 19.3567 
L 41.6063 19.3567 
L 41.6063 19.3567 
L 43.8095 21.8047 
L 45.20486 23.6407 
L 46.3799 25.4767 
L 47.33462 27.3127 
L 48.06902 29.1487 
L 48.5831 30.9847 
L 48.87686 32.8207 
L 48.9503 34.6567 
L 48.80342 36.4927 
L 48.43622 38.3287 
L 47.8487 40.1647 
L 47.04086 42.0007 
L 46.0127 43.8367 
L 44.76422 45.6727 
L 43.29542 47.5087 
L 41.6063 49.3447 
L 41.6063 49.3447 
" clip-path="url(#p094dd7feb6)" style="fill: none; stroke: #000000; stroke-width: 2; stroke-linecap: round"/>
   </g>
   <g id="line2d_7">
    <path d="M 30.8963 42.0007 
L 47.04086 42.0007 
" clip-path="url(#p094dd7feb6)" style="fill: none; stroke: #000000; stroke-width: 2; stroke-linecap: round"/>
   </g>
   <g id="line2d_8">
    <path d="M 30.8963 26.7007 
L 47.04086 26.7007 
" clip-path="url(#p094dd7feb6)" style="fill: none; stroke: #000000; stroke-width: 2; stroke-linecap: round"/>
   </g>
   <g id="line2d_9">
    <path d="M 85.6703 34.3507 
L 89.0363 34.3507 
" clip-path="url(#p094dd7feb6)" style="fill: none; stroke: #000000; stroke-width: 2; stroke-linecap: round"/>
   </g>
   <g id="line2d_10">
    <path d="M 87.5063 49.6507 
L 89.0363 49.6507 
L 89.0363 34.3507 
" clip-path="url(#p094dd7feb6)" style="fill: none; stroke: #000000; stroke-width: 2; stroke-linecap: round"/>
   </g>
   <g id="line2d_11">
    <path d="M 41.6063 95.2447 
L 58.654871 95.144782 
L 60.403443 94.845027 
L 62.152014 94.345435 
L 63.900586 93.646006 
L 65.649157 92.746741 
L 67.834871 91.341639 
L 70.020586 89.624292 
L 72.2063 87.5947 
L 74.392014 85.252863 
L 76.577729 82.598782 
L 78.3263 80.2507 
L 78.3263 80.2507 
L 75.703443 76.803516 
L 73.517729 74.274333 
L 71.332014 72.057394 
L 69.1463 70.1527 
L 66.960586 68.560251 
L 64.774871 67.280047 
L 63.0263 66.4807 
L 61.277729 65.88119 
L 59.529157 65.481516 
L 57.780586 65.28168 
L 56.9063 65.2567 
L 41.6063 65.2567 
L 41.6063 65.2567 
L 43.8095 67.7047 
L 45.20486 69.5407 
L 46.3799 71.3767 
L 47.33462 73.2127 
L 48.06902 75.0487 
L 48.5831 76.8847 
L 48.87686 78.7207 
L 48.9503 80.5567 
L 48.80342 82.3927 
L 48.43622 84.2287 
L 47.8487 86.0647 
L 47.04086 87.9007 
L 46.0127 89.7367 
L 44.76422 91.5727 
L 43.29542 93.4087 
L 41.6063 95.2447 
L 41.6063 95.2447 
" clip-path="url(#p094dd7feb6)" style="fill: none; stroke: #000000; stroke-width: 2; stroke-linecap: round"/>
   </g>
   <g id="line2d_12">
    <path d="M 37.0163 95.2447 
L 37.60382 94.6327 
L 38.16686 94.0207 
L 38.70542 93.4087 
L 39.2195 92.7967 
L 39.7091 92.1847 
L 40.17422 91.5727 
L 40.61486 90.9607 
L 41.03102 90.3487 
L 41.4227 89.7367 
L 41.7899 89.1247 
L 42.13262 88.5127 
L 42.45086 87.9007 
L 42.74462 87.2887 
L 43.0139 86.6767 
L 43.2587 86.0647 
L 43.47902 85.4527 
L 43.67486 84.8407 
L 43.84622 84.2287 
L 43.9931 83.6167 
L 44.1155 83.0047 
L 44.21342 82.3927 
L 44.28686 81.7807 
L 44.33582 81.1687 
L 44.3603 80.5567 
L 44.3603 79.9447 
L 44.33582 79.3327 
L 44.28686 78.7207 
L 44.21342 78.1087 
L 44.1155 77.4967 
L 43.9931 76.8847 
L 43.84622 76.2727 
L 43.67486 75.6607 
L 43.47902 75.0487 
L 43.2587 74.4367 
L 43.0139 73.8247 
L 42.74462 73.2127 
L 42.45086 72.6007 
L 42.13262 71.9887 
L 41.7899 71.3767 
L 41.4227 70.7647 
L 41.03102 70.1527 
L 40.61486 69.5407 
L 40.17422 68.9287 
L 39.7091 68.3167 
L 39.2195 67.7047 
L 38.70542 67.0927 
L 38.16686 66.4807 
L 37.60382 65.8687 
L 37.0163 65.2567 
" clip-path="url(#p094dd7feb6)" style="fill: none; stroke: #000000; stroke-width: 2; stroke-linecap: round"/>
   </g>
   <g id="line2d_13">
    <path d="M 26.3063 87.9007 
L 42.45086 87.9007 
" clip-path="url(#p094dd7feb6)" style="fill: none; stroke: #000000; stroke-width: 2; stroke-linecap: round"/>
   </g>
   <g id="line2d_14">
    <path d="M 26.3063 72.6007 
L 42.45086 72.6007 
" clip-path="url(#p094dd7feb6)" style="fill: none; stroke: #000000; stroke-width: 2; stroke-linecap: round"/>
   </g>
   <g id="line2d_15">
    <path d="M 78.3263 80.2507 
L 89.0363 80.2507 
" clip-path="url(#p094dd7feb6)" style="fill: none; stroke: #000000; stroke-width: 2; stroke-linecap: round"/>
   </g>
   <g id="line2d_16">
    <path d="M 87.5063 64.9507 
L 89.0363 64.9507 
L 89.0363 80.2507 
" clip-path="url(#p094dd7feb6)" style="fill: none; stroke: #000000; stroke-width: 2; stroke-linecap: round"/>
   </g>
   <g id="text_1">
    <g clip-path="url(#p094dd7feb6)">
     <!-- $result$ -->
     <g transform="translate(153.2963 60.749919)scale(0.125 -0.125)">
      <defs>
       <path id="DejaVuSans-Oblique-72" d="M 2853 2969 
Q 2766 3016 2653 3041 
Q 2541 3066 2413 3066 
Q 1953 3066 1609 2717 
Q 1266 2369 1153 1784 
L 800 0 
L 225 0 
L 909 3500 
L 1484 3500 
L 1375 2956 
Q 1603 3259 1920 3421 
Q 2238 3584 2597 3584 
Q 2691 3584 2781 3573 
Q 2872 3563 2963 3538 
L 2853 2969 
z
" transform="scale(0.015625)"/>
       <path id="DejaVuSans-Oblique-65" d="M 3078 2063 
Q 3088 2113 3092 2166 
Q 3097 2219 3097 2272 
Q 3097 2653 2873 2875 
Q 2650 3097 2266 3097 
Q 1838 3097 1509 2826 
Q 1181 2556 1013 2059 
L 3078 2063 
z
M 3578 1613 
L 903 1613 
Q 884 1494 878 1425 
Q 872 1356 872 1306 
Q 872 872 1139 634 
Q 1406 397 1894 397 
Q 2269 397 2603 481 
Q 2938 566 3225 728 
L 3116 159 
Q 2806 34 2476 -28 
Q 2147 -91 1806 -91 
Q 1078 -91 686 257 
Q 294 606 294 1247 
Q 294 1794 489 2264 
Q 684 2734 1063 3103 
Q 1306 3334 1642 3459 
Q 1978 3584 2356 3584 
Q 2950 3584 3301 3228 
Q 3653 2872 3653 2272 
Q 3653 2128 3634 1964 
Q 3616 1800 3578 1613 
z
" transform="scale(0.015625)"/>
       <path id="DejaVuSans-Oblique-73" d="M 3200 3397 
L 3091 2853 
Q 2863 2978 2609 3040 
Q 2356 3103 2088 3103 
Q 1634 3103 1373 2948 
Q 1113 2794 1113 2528 
Q 1113 2219 1719 2053 
Q 1766 2041 1788 2034 
L 1972 1978 
Q 2547 1819 2739 1644 
Q 2931 1469 2931 1166 
Q 2931 609 2489 259 
Q 2047 -91 1331 -91 
Q 1053 -91 747 -37 
Q 441 16 72 128 
L 184 722 
Q 500 559 806 475 
Q 1113 391 1394 391 
Q 1816 391 2080 572 
Q 2344 753 2344 1031 
Q 2344 1331 1650 1516 
L 1591 1531 
L 1394 1581 
Q 956 1697 753 1886 
Q 550 2075 550 2369 
Q 550 2928 970 3256 
Q 1391 3584 2113 3584 
Q 2397 3584 2667 3537 
Q 2938 3491 3200 3397 
z
" transform="scale(0.015625)"/>
       <path id="DejaVuSans-Oblique-75" d="M 428 1388 
L 838 3500 
L 1416 3500 
L 1006 1409 
Q 975 1256 961 1147 
Q 947 1038 947 966 
Q 947 700 1109 554 
Q 1272 409 1569 409 
Q 2031 409 2368 721 
Q 2706 1034 2809 1563 
L 3194 3500 
L 3769 3500 
L 3091 0 
L 2516 0 
L 2631 550 
Q 2388 244 2052 76 
Q 1716 -91 1338 -91 
Q 878 -91 622 161 
Q 366 413 366 863 
Q 366 956 381 1097 
Q 397 1238 428 1388 
z
" transform="scale(0.015625)"/>
       <path id="DejaVuSans-Oblique-6c" d="M 1172 4863 
L 1747 4863 
L 800 0 
L 225 0 
L 1172 4863 
z
" transform="scale(0.015625)"/>
       <path id="DejaVuSans-Oblique-74" d="M 2706 3500 
L 2619 3053 
L 1472 3053 
L 1100 1153 
Q 1081 1047 1072 975 
Q 1063 903 1063 863 
Q 1063 663 1183 572 
Q 1303 481 1569 481 
L 2150 481 
L 2053 0 
L 1503 0 
Q 991 0 739 200 
Q 488 400 488 806 
Q 488 878 497 964 
Q 506 1050 525 1153 
L 897 3053 
L 409 3053 
L 500 3500 
L 978 3500 
L 1172 4494 
L 1747 4494 
L 1556 3500 
L 2706 3500 
z
" transform="scale(0.015625)"/>
      </defs>
      <use xlink:href="#DejaVuSans-Oblique-72" transform="translate(0 0.015625)"/>
      <use xlink:href="#DejaVuSans-Oblique-65" transform="translate(41.113281 0.015625)"/>
      <use xlink:href="#DejaVuSans-Oblique-73" transform="translate(102.636719 0.015625)"/>
      <use xlink:href="#DejaVuSans-Oblique-75" transform="translate(154.736328 0.015625)"/>
      <use xlink:href="#DejaVuSans-Oblique-6c" transform="translate(218.115234 0.015625)"/>
      <use xlink:href="#DejaVuSans-Oblique-74" transform="translate(245.898438 0.015625)"/>
     </g>
    </g>
   </g>
   <g id="text_2">
    <g clip-path="url(#p094dd7feb6)">
     <!-- l -->
     <g transform="translate(24.363644 30.149919)scale(0.125 -0.125)">
      <defs>
       <path id="DejaVuSans-6c" d="M 603 4863 
L 1178 4863 
L 1178 0 
L 603 0 
L 603 4863 
z
" transform="scale(0.015625)"/>
      </defs>
      <use xlink:href="#DejaVuSans-6c"/>
     </g>
    </g>
   </g>
   <g id="text_3">
    <g clip-path="url(#p094dd7feb6)">
     <!-- l -->
     <g transform="translate(24.363644 45.449919)scale(0.125 -0.125)">
      <use xlink:href="#DejaVuSans-6c"/>
     </g>
    </g>
   </g>
   <g id="text_4">
    <g clip-path="url(#p094dd7feb6)">
     <!-- h -->
     <g transform="translate(15.324425 76.049919)scale(0.125 -0.125)">
      <defs>
       <path id="DejaVuSans-68" d="M 3513 2113 
L 3513 0 
L 2938 0 
L 2938 2094 
Q 2938 2591 2744 2837 
Q 2550 3084 2163 3084 
Q 1697 3084 1428 2787 
Q 1159 2491 1159 1978 
L 1159 0 
L 581 0 
L 581 4863 
L 1159 4863 
L 1159 2956 
Q 1366 3272 1645 3428 
Q 1925 3584 2291 3584 
Q 2894 3584 3203 3211 
Q 3513 2838 3513 2113 
z
" transform="scale(0.015625)"/>
      </defs>
      <use xlink:href="#DejaVuSans-68"/>
     </g>
    </g>
   </g>
   <g id="text_5">
    <g clip-path="url(#p094dd7feb6)">
     <!-- h -->
     <g transform="translate(15.324425 91.349919)scale(0.125 -0.125)">
      <use xlink:href="#DejaVuSans-68"/>
     </g>
    </g>
   </g>
  </g>
 </g>
 <defs>
  <clipPath id="p094dd7feb6">
   <rect x="7.2" y="7.2" width="189.992" height="94.0814"/>
  </clipPath>
 </defs>
</svg>
