<?xml version="1.0" encoding="utf-8" standalone="no"?>
<!DOCTYPE svg PUBLIC "-//W3C//DTD SVG 1.1//EN"
  "http://www.w3.org/Graphics/SVG/1.1/DTD/svg11.dtd">
<svg xmlns:xlink="http://www.w3.org/1999/xlink" width="197.1177pt" height="105.9348pt" viewBox="0 0 197.1177 105.9348" xmlns="http://www.w3.org/2000/svg" version="1.1">
 <metadata>
  <rdf:RDF xmlns:dc="http://purl.org/dc/elements/1.1/" xmlns:cc="http://creativecommons.org/ns#" xmlns:rdf="http://www.w3.org/1999/02/22-rdf-syntax-ns#">
   <cc:Work>
    <dc:type rdf:resource="http://purl.org/dc/dcmitype/StillImage"/>
    <dc:date>2022-07-23T01:13:10.425528</dc:date>
    <dc:format>image/svg+xml</dc:format>
    <dc:creator>
     <cc:Agent>
      <dc:title>Matplotlib v3.5.2, https://matplotlib.org/</dc:title>
     </cc:Agent>
    </dc:creator>
   </cc:Work>
  </rdf:RDF>
 </metadata>
 <defs>
  <style type="text/css">*{stroke-linejoin: round; stroke-linecap: butt}</style>
 </defs>
 <g id="figure_1">
  <g id="patch_1">
   <path d="M 0 105.9348 
L 197.1177 105.9348 
L 197.1177 0 
L 0 0 
L 0 105.9348 
z
" style="fill: none"/>
  </g>
  <g id="axes_1">
   <g id="patch_2">
    <path d="M 74.724 36.7494 
C 75.697826 36.7494 76.631897 36.362495 77.320496 35.673896 
C 78.009095 34.985297 78.396 34.051226 78.396 33.0774 
C 78.396 32.103574 78.009095 31.169503 77.320496 30.480904 
C 76.631897 29.792305 75.697826 29.4054 74.724 29.4054 
C 73.750174 29.4054 72.816103 29.792305 72.127504 30.480904 
C 71.438905 31.169503 71.052 32.103574 71.052 33.0774 
C 71.052 34.051226 71.438905 34.985297 72.127504 35.673896 
C 72.816103 36.362495 73.750174 36.7494 74.724 36.7494 
L 74.724 36.7494 
z
" clip-path="url(#p68cc4fc8a0)" style="fill: none; stroke: #000000; stroke-width: 2; stroke-linejoin: miter"/>
   </g>
   <g id="patch_3">
    <path d="M 74.724 82.6494 
C 75.697826 82.6494 76.631897 82.262495 77.320496 81.573896 
C 78.009095 80.885297 78.396 79.951226 78.396 78.9774 
C 78.396 78.003574 78.009095 77.069503 77.320496 76.380904 
C 76.631897 75.692305 75.697826 75.3054 74.724 75.3054 
C 73.750174 75.3054 72.816103 75.692305 72.127504 76.380904 
C 71.438905 77.069503 71.052 78.003574 71.052 78.9774 
C 71.052 79.951226 71.438905 80.885297 72.127504 81.573896 
C 72.816103 82.262495 73.750174 82.6494 74.724 82.6494 
L 74.724 82.6494 
z
" clip-path="url(#p68cc4fc8a0)" style="fill: none; stroke: #000000; stroke-width: 2; stroke-linejoin: miter"/>
   </g>
   <g id="line2d_1">
    <path d="M 95.532 71.0214 
L 112.580571 70.921482 
L 114.329143 70.621727 
L 116.077714 70.122135 
L 117.826286 69.422706 
L 119.574857 68.523441 
L 121.760571 67.118339 
L 123.946286 65.400992 
L 126.132 63.3714 
L 128.317714 61.029563 
L 130.503429 58.375482 
L 132.252 56.0274 
L 132.252 56.0274 
L 129.629143 52.580216 
L 127.443429 50.051033 
L 125.257714 47.834094 
L 123.072 45.9294 
L 120.886286 44.336951 
L 118.700571 43.056747 
L 116.952 42.2574 
L 115.203429 41.65789 
L 113.454857 41.258216 
L 111.706286 41.05838 
L 110.832 41.0334 
L 95.532 41.0334 
L 95.532 41.0334 
L 97.7352 43.4814 
L 99.13056 45.3174 
L 100.3056 47.1534 
L 101.26032 48.9894 
L 101.99472 50.8254 
L 102.5088 52.6614 
L 102.80256 54.4974 
L 102.876 56.3334 
L 102.72912 58.1694 
L 102.36192 60.0054 
L 101.7744 61.8414 
L 100.96656 63.6774 
L 99.9384 65.5134 
L 98.68992 67.3494 
L 97.22112 69.1854 
L 95.532 71.0214 
L 95.532 71.0214 
" clip-path="url(#p68cc4fc8a0)" style="fill: none; stroke: #000000; stroke-width: 2; stroke-linecap: round"/>
   </g>
   <g id="line2d_2">
    <path d="M 90.942 71.0214 
L 91.52952 70.4094 
L 92.09256 69.7974 
L 92.63112 69.1854 
L 93.1452 68.5734 
L 93.6348 67.9614 
L 94.09992 67.3494 
L 94.54056 66.7374 
L 94.95672 66.1254 
L 95.3484 65.5134 
L 95.7156 64.9014 
L 96.05832 64.2894 
L 96.37656 63.6774 
L 96.67032 63.0654 
L 96.9396 62.4534 
L 97.1844 61.8414 
L 97.40472 61.2294 
L 97.60056 60.6174 
L 97.77192 60.0054 
L 97.9188 59.3934 
L 98.0412 58.7814 
L 98.13912 58.1694 
L 98.21256 57.5574 
L 98.26152 56.9454 
L 98.286 56.3334 
L 98.286 55.7214 
L 98.26152 55.1094 
L 98.21256 54.4974 
L 98.13912 53.8854 
L 98.0412 53.2734 
L 97.9188 52.6614 
L 97.77192 52.0494 
L 97.60056 51.4374 
L 97.40472 50.8254 
L 97.1844 50.2134 
L 96.9396 49.6014 
L 96.67032 48.9894 
L 96.37656 48.3774 
L 96.05832 47.7654 
L 95.7156 47.1534 
L 95.3484 46.5414 
L 94.95672 45.9294 
L 94.54056 45.3174 
L 94.09992 44.7054 
L 93.6348 44.0934 
L 93.1452 43.4814 
L 92.63112 42.8694 
L 92.09256 42.2574 
L 91.52952 41.6454 
L 90.942 41.0334 
" clip-path="url(#p68cc4fc8a0)" style="fill: none; stroke: #000000; stroke-width: 2; stroke-linecap: round"/>
   </g>
   <g id="line2d_3">
    <path d="M 80.232 63.6774 
L 96.37656 63.6774 
" clip-path="url(#p68cc4fc8a0)" style="fill: none; stroke: #000000; stroke-width: 2; stroke-linecap: round"/>
   </g>
   <g id="line2d_4">
    <path d="M 80.232 48.3774 
L 96.37656 48.3774 
" clip-path="url(#p68cc4fc8a0)" style="fill: none; stroke: #000000; stroke-width: 2; stroke-linecap: round"/>
   </g>
   <g id="line2d_5">
    <path d="M 132.252 56.0274 
L 142.962 56.0274 
" clip-path="url(#p68cc4fc8a0)" style="fill: none; stroke: #000000; stroke-width: 2; stroke-linecap: round"/>
   </g>
   <g id="line2d_6">
    <path d="M 55.752 48.3774 
L 56.732274 48.345965 
L 57.708521 48.251787 
L 58.676727 48.095255 
L 59.632915 47.877011 
L 60.573156 47.597953 
L 61.493585 47.259226 
L 62.390421 46.862224 
L 63.259979 46.408576 
L 64.098684 45.900148 
L 64.903091 45.339028 
L 65.669894 44.727523 
L 66.395943 44.068145 
L 67.078253 43.363604 
L 67.714022 42.616794 
L 68.300635 41.830785 
L 68.835684 41.008806 
L 69.316969 40.154236 
L 69.742513 39.270585 
L 70.110567 38.361485 
L 70.419618 37.430672 
L 70.668397 36.48197 
L 70.855881 35.519278 
L 70.9813 34.546552 
L 71.044139 33.567789 
L 71.044139 32.587011 
L 70.9813 31.608248 
L 70.855881 30.635522 
L 70.668397 29.67283 
L 70.419618 28.724128 
L 70.110567 27.793315 
L 69.742513 26.884215 
L 69.316969 26.000564 
L 68.835684 25.145994 
L 68.300635 24.324015 
L 67.714022 23.538006 
L 67.078253 22.791196 
L 66.395943 22.086655 
L 65.669894 21.427277 
L 64.903091 20.815772 
L 64.098684 20.254652 
L 63.259979 19.746224 
L 62.390421 19.292576 
L 61.493585 18.895574 
L 60.573156 18.556847 
L 59.632915 18.277789 
L 58.676727 18.059545 
L 57.708521 17.903013 
L 56.732274 17.808835 
L 55.752 17.7774 
L 55.752 17.7774 
L 35.862 17.7774 
L 35.862 33.0774 
L 35.862 48.3774 
L 55.752 48.3774 
" clip-path="url(#p68cc4fc8a0)" style="fill: none; stroke: #000000; stroke-width: 2; stroke-linecap: round"/>
   </g>
   <g id="line2d_7">
    <path d="M 25.152 40.7274 
L 35.862 40.7274 
" clip-path="url(#p68cc4fc8a0)" style="fill: none; stroke: #000000; stroke-width: 2; stroke-linecap: round"/>
   </g>
   <g id="line2d_8">
    <path d="M 25.152 25.4274 
L 35.862 25.4274 
" clip-path="url(#p68cc4fc8a0)" style="fill: none; stroke: #000000; stroke-width: 2; stroke-linecap: round"/>
   </g>
   <g id="line2d_9">
    <path d="M 78.396 33.0774 
L 81.762 33.0774 
" clip-path="url(#p68cc4fc8a0)" style="fill: none; stroke: #000000; stroke-width: 2; stroke-linecap: round"/>
   </g>
   <g id="line2d_10">
    <path d="M 80.232 48.3774 
L 81.762 48.3774 
L 81.762 33.0774 
" clip-path="url(#p68cc4fc8a0)" style="fill: none; stroke: #000000; stroke-width: 2; stroke-linecap: round"/>
   </g>
   <g id="line2d_11">
    <path d="M 55.752 94.2774 
L 56.732274 94.245965 
L 57.708521 94.151787 
L 58.676727 93.995255 
L 59.632915 93.777011 
L 60.573156 93.497953 
L 61.493585 93.159226 
L 62.390421 92.762224 
L 63.259979 92.308576 
L 64.098684 91.800148 
L 64.903091 91.239028 
L 65.669894 90.627523 
L 66.395943 89.968145 
L 67.078253 89.263604 
L 67.714022 88.516794 
L 68.300635 87.730785 
L 68.835684 86.908806 
L 69.316969 86.054236 
L 69.742513 85.170585 
L 70.110567 84.261485 
L 70.419618 83.330672 
L 70.668397 82.38197 
L 70.855881 81.419278 
L 70.9813 80.446552 
L 71.044139 79.467789 
L 71.044139 78.487011 
L 70.9813 77.508248 
L 70.855881 76.535522 
L 70.668397 75.57283 
L 70.419618 74.624128 
L 70.110567 73.693315 
L 69.742513 72.784215 
L 69.316969 71.900564 
L 68.835684 71.045994 
L 68.300635 70.224015 
L 67.714022 69.438006 
L 67.078253 68.691196 
L 66.395943 67.986655 
L 65.669894 67.327277 
L 64.903091 66.715772 
L 64.098684 66.154652 
L 63.259979 65.646224 
L 62.390421 65.192576 
L 61.493585 64.795574 
L 60.573156 64.456847 
L 59.632915 64.177789 
L 58.676727 63.959545 
L 57.708521 63.803013 
L 56.732274 63.708835 
L 55.752 63.6774 
L 55.752 63.6774 
L 35.862 63.6774 
L 35.862 78.9774 
L 35.862 94.2774 
L 55.752 94.2774 
" clip-path="url(#p68cc4fc8a0)" style="fill: none; stroke: #000000; stroke-width: 2; stroke-linecap: round"/>
   </g>
   <g id="line2d_12">
    <path d="M 25.152 86.6274 
L 35.862 86.6274 
" clip-path="url(#p68cc4fc8a0)" style="fill: none; stroke: #000000; stroke-width: 2; stroke-linecap: round"/>
   </g>
   <g id="line2d_13">
    <path d="M 25.152 71.3274 
L 35.862 71.3274 
" clip-path="url(#p68cc4fc8a0)" style="fill: none; stroke: #000000; stroke-width: 2; stroke-linecap: round"/>
   </g>
   <g id="line2d_14">
    <path d="M 78.396 78.9774 
L 81.762 78.9774 
" clip-path="url(#p68cc4fc8a0)" style="fill: none; stroke: #000000; stroke-width: 2; stroke-linecap: round"/>
   </g>
   <g id="line2d_15">
    <path d="M 80.232 63.6774 
L 81.762 63.6774 
L 81.762 78.9774 
" clip-path="url(#p68cc4fc8a0)" style="fill: none; stroke: #000000; stroke-width: 2; stroke-linecap: round"/>
   </g>
   <g id="text_1">
    <g clip-path="url(#p68cc4fc8a0)">
     <!-- $result$ -->
     <g transform="translate(146.022 59.476619)scale(0.125 -0.125)">
      <defs>
       <path id="DejaVuSans-Oblique-72" d="M 2853 2969 
Q 2766 3016 2653 3041 
Q 2541 3066 2413 3066 
Q 1953 3066 1609 2717 
Q 1266 2369 1153 1784 
L 800 0 
L 225 0 
L 909 3500 
L 1484 3500 
L 1375 2956 
Q 1603 3259 1920 3421 
Q 2238 3584 2597 3584 
Q 2691 3584 2781 3573 
Q 2872 3563 2963 3538 
L 2853 2969 
z
" transform="scale(0.015625)"/>
       <path id="DejaVuSans-Oblique-65" d="M 3078 2063 
Q 3088 2113 3092 2166 
Q 3097 2219 3097 2272 
Q 3097 2653 2873 2875 
Q 2650 3097 2266 3097 
Q 1838 3097 1509 2826 
Q 1181 2556 1013 2059 
L 3078 2063 
z
M 3578 1613 
L 903 1613 
Q 884 1494 878 1425 
Q 872 1356 872 1306 
Q 872 872 1139 634 
Q 1406 397 1894 397 
Q 2269 397 2603 481 
Q 2938 566 3225 728 
L 3116 159 
Q 2806 34 2476 -28 
Q 2147 -91 1806 -91 
Q 1078 -91 686 257 
Q 294 606 294 1247 
Q 294 1794 489 2264 
Q 684 2734 1063 3103 
Q 1306 3334 1642 3459 
Q 1978 3584 2356 3584 
Q 2950 3584 3301 3228 
Q 3653 2872 3653 2272 
Q 3653 2128 3634 1964 
Q 3616 1800 3578 1613 
z
" transform="scale(0.015625)"/>
       <path id="DejaVuSans-Oblique-73" d="M 3200 3397 
L 3091 2853 
Q 2863 2978 2609 3040 
Q 2356 3103 2088 3103 
Q 1634 3103 1373 2948 
Q 1113 2794 1113 2528 
Q 1113 2219 1719 2053 
Q 1766 2041 1788 2034 
L 1972 1978 
Q 2547 1819 2739 1644 
Q 2931 1469 2931 1166 
Q 2931 609 2489 259 
Q 2047 -91 1331 -91 
Q 1053 -91 747 -37 
Q 441 16 72 128 
L 184 722 
Q 500 559 806 475 
Q 1113 391 1394 391 
Q 1816 391 2080 572 
Q 2344 753 2344 1031 
Q 2344 1331 1650 1516 
L 1591 1531 
L 1394 1581 
Q 956 1697 753 1886 
Q 550 2075 550 2369 
Q 550 2928 970 3256 
Q 1391 3584 2113 3584 
Q 2397 3584 2667 3537 
Q 2938 3491 3200 3397 
z
" transform="scale(0.015625)"/>
       <path id="DejaVuSans-Oblique-75" d="M 428 1388 
L 838 3500 
L 1416 3500 
L 1006 1409 
Q 975 1256 961 1147 
Q 947 1038 947 966 
Q 947 700 1109 554 
Q 1272 409 1569 409 
Q 2031 409 2368 721 
Q 2706 1034 2809 1563 
L 3194 3500 
L 3769 3500 
L 3091 0 
L 2516 0 
L 2631 550 
Q 2388 244 2052 76 
Q 1716 -91 1338 -91 
Q 878 -91 622 161 
Q 366 413 366 863 
Q 366 956 381 1097 
Q 397 1238 428 1388 
z
" transform="scale(0.015625)"/>
       <path id="DejaVuSans-Oblique-6c" d="M 1172 4863 
L 1747 4863 
L 800 0 
L 225 0 
L 1172 4863 
z
" transform="scale(0.015625)"/>
       <path id="DejaVuSans-Oblique-74" d="M 2706 3500 
L 2619 3053 
L 1472 3053 
L 1100 1153 
Q 1081 1047 1072 975 
Q 1063 903 1063 863 
Q 1063 663 1183 572 
Q 1303 481 1569 481 
L 2150 481 
L 2053 0 
L 1503 0 
Q 991 0 739 200 
Q 488 400 488 806 
Q 488 878 497 964 
Q 506 1050 525 1153 
L 897 3053 
L 409 3053 
L 500 3500 
L 978 3500 
L 1172 4494 
L 1747 4494 
L 1556 3500 
L 2706 3500 
z
" transform="scale(0.015625)"/>
      </defs>
      <use xlink:href="#DejaVuSans-Oblique-72" transform="translate(0 0.015625)"/>
      <use xlink:href="#DejaVuSans-Oblique-65" transform="translate(41.113281 0.015625)"/>
      <use xlink:href="#DejaVuSans-Oblique-73" transform="translate(102.636719 0.015625)"/>
      <use xlink:href="#DejaVuSans-Oblique-75" transform="translate(154.736328 0.015625)"/>
      <use xlink:href="#DejaVuSans-Oblique-6c" transform="translate(218.115234 0.015625)"/>
      <use xlink:href="#DejaVuSans-Oblique-74" transform="translate(245.898438 0.015625)"/>
     </g>
    </g>
   </g>
   <g id="text_2">
    <g clip-path="url(#p68cc4fc8a0)">
     <!-- a -->
     <g transform="translate(14.431844 28.876619)scale(0.125 -0.125)">
      <defs>
       <path id="DejaVuSans-61" d="M 2194 1759 
Q 1497 1759 1228 1600 
Q 959 1441 959 1056 
Q 959 750 1161 570 
Q 1363 391 1709 391 
Q 2188 391 2477 730 
Q 2766 1069 2766 1631 
L 2766 1759 
L 2194 1759 
z
M 3341 1997 
L 3341 0 
L 2766 0 
L 2766 531 
Q 2569 213 2275 61 
Q 1981 -91 1556 -91 
Q 1019 -91 701 211 
Q 384 513 384 1019 
Q 384 1609 779 1909 
Q 1175 2209 1959 2209 
L 2766 2209 
L 2766 2266 
Q 2766 2663 2505 2880 
Q 2244 3097 1772 3097 
Q 1472 3097 1187 3025 
Q 903 2953 641 2809 
L 641 3341 
Q 956 3463 1253 3523 
Q 1550 3584 1831 3584 
Q 2591 3584 2966 3190 
Q 3341 2797 3341 1997 
z
" transform="scale(0.015625)"/>
      </defs>
      <use xlink:href="#DejaVuSans-61"/>
     </g>
    </g>
   </g>
   <g id="text_3">
    <g clip-path="url(#p68cc4fc8a0)">
     <!-- a -->
     <g transform="translate(14.431844 44.176619)scale(0.125 -0.125)">
      <use xlink:href="#DejaVuSans-61"/>
     </g>
    </g>
   </g>
   <g id="text_4">
    <g clip-path="url(#p68cc4fc8a0)">
     <!-- a -->
     <g transform="translate(14.431844 74.776619)scale(0.125 -0.125)">
      <use xlink:href="#DejaVuSans-61"/>
     </g>
    </g>
   </g>
   <g id="text_5">
    <g clip-path="url(#p68cc4fc8a0)">
     <!-- a -->
     <g transform="translate(14.431844 90.076619)scale(0.125 -0.125)">
      <use xlink:href="#DejaVuSans-61"/>
     </g>
    </g>
   </g>
  </g>
 </g>
 <defs>
  <clipPath id="p68cc4fc8a0">
   <rect x="7.2" y="7.2" width="182.7177" height="91.5348"/>
  </clipPath>
 </defs>
</svg>
