<?xml version="1.0" encoding="utf-8" standalone="no"?>
<!DOCTYPE svg PUBLIC "-//W3C//DTD SVG 1.1//EN"
  "http://www.w3.org/Graphics/SVG/1.1/DTD/svg11.dtd">
<svg xmlns:xlink="http://www.w3.org/1999/xlink" width="199.3498pt" height="107.2557pt" viewBox="0 0 199.3498 107.2557" xmlns="http://www.w3.org/2000/svg" version="1.1">
 <metadata>
  <rdf:RDF xmlns:dc="http://purl.org/dc/elements/1.1/" xmlns:cc="http://creativecommons.org/ns#" xmlns:rdf="http://www.w3.org/1999/02/22-rdf-syntax-ns#">
   <cc:Work>
    <dc:type rdf:resource="http://purl.org/dc/dcmitype/StillImage"/>
    <dc:date>2022-07-23T01:38:25.661133</dc:date>
    <dc:format>image/svg+xml</dc:format>
    <dc:creator>
     <cc:Agent>
      <dc:title>Matplotlib v3.5.2, https://matplotlib.org/</dc:title>
     </cc:Agent>
    </dc:creator>
   </cc:Work>
  </rdf:RDF>
 </metadata>
 <defs>
  <style type="text/css">*{stroke-linejoin: round; stroke-linecap: butt}</style>
 </defs>
 <g id="figure_1">
  <g id="patch_1">
   <path d="M 0 107.2557 
L 199.3498 107.2557 
L 199.3498 0 
L 0 0 
L 0 107.2557 
z
" style="fill: none"/>
  </g>
  <g id="axes_1">
   <g id="patch_2">
    <path d="M 138.1561 59.6994 
C 139.129926 59.6994 140.063997 59.312495 140.752596 58.623896 
C 141.441195 57.935297 141.8281 57.001226 141.8281 56.0274 
C 141.8281 55.053574 141.441195 54.119503 140.752596 53.430904 
C 140.063997 52.742305 139.129926 52.3554 138.1561 52.3554 
C 137.182274 52.3554 136.248203 52.742305 135.559604 53.430904 
C 134.871005 54.119503 134.4841 55.053574 134.4841 56.0274 
C 134.4841 57.001226 134.871005 57.935297 135.559604 58.623896 
C 136.248203 59.312495 137.182274 59.6994 138.1561 59.6994 
L 138.1561 59.6994 
z
" clip-path="url(#p3fb04bf2cf)" style="fill: none; stroke: #000000; stroke-width: 2; stroke-linejoin: miter"/>
   </g>
   <g id="line2d_1">
    <path d="M 119.1841 71.3274 
L 120.164374 71.295965 
L 121.140621 71.201787 
L 122.108827 71.045255 
L 123.065015 70.827011 
L 124.005256 70.547953 
L 124.925685 70.209226 
L 125.822521 69.812224 
L 126.692079 69.358576 
L 127.530784 68.850148 
L 128.335191 68.289028 
L 129.101994 67.677523 
L 129.828043 67.018145 
L 130.510353 66.313604 
L 131.146122 65.566794 
L 131.732735 64.780785 
L 132.267784 63.958806 
L 132.749069 63.104236 
L 133.174613 62.220585 
L 133.542667 61.311485 
L 133.851718 60.380672 
L 134.100497 59.43197 
L 134.287981 58.469278 
L 134.4134 57.496552 
L 134.476239 56.517789 
L 134.476239 55.537011 
L 134.4134 54.558248 
L 134.287981 53.585522 
L 134.100497 52.62283 
L 133.851718 51.674128 
L 133.542667 50.743315 
L 133.174613 49.834215 
L 132.749069 48.950564 
L 132.267784 48.095994 
L 131.732735 47.274015 
L 131.146122 46.488006 
L 130.510353 45.741196 
L 129.828043 45.036655 
L 129.101994 44.377277 
L 128.335191 43.765772 
L 127.530784 43.204652 
L 126.692079 42.696224 
L 125.822521 42.242576 
L 124.925685 41.845574 
L 124.005256 41.506847 
L 123.065015 41.227789 
L 122.108827 41.009545 
L 121.140621 40.853013 
L 120.164374 40.758835 
L 119.1841 40.7274 
L 119.1841 40.7274 
L 99.2941 40.7274 
L 99.2941 56.0274 
L 99.2941 71.3274 
L 119.1841 71.3274 
" clip-path="url(#p3fb04bf2cf)" style="fill: none; stroke: #000000; stroke-width: 2; stroke-linecap: round"/>
   </g>
   <g id="line2d_2">
    <path d="M 88.5841 63.6774 
L 99.2941 63.6774 
" clip-path="url(#p3fb04bf2cf)" style="fill: none; stroke: #000000; stroke-width: 2; stroke-linecap: round"/>
   </g>
   <g id="line2d_3">
    <path d="M 88.5841 48.3774 
L 99.2941 48.3774 
" clip-path="url(#p3fb04bf2cf)" style="fill: none; stroke: #000000; stroke-width: 2; stroke-linecap: round"/>
   </g>
   <g id="line2d_4">
    <path d="M 141.8281 56.0274 
L 145.1941 56.0274 
" clip-path="url(#p3fb04bf2cf)" style="fill: none; stroke: #000000; stroke-width: 2; stroke-linecap: round"/>
   </g>
   <g id="line2d_5">
    <path d="M 36.5641 48.0714 
L 53.612671 47.971482 
L 55.361243 47.671727 
L 57.109814 47.172135 
L 58.858386 46.472706 
L 60.606957 45.573441 
L 62.792671 44.168339 
L 64.978386 42.450992 
L 67.1641 40.4214 
L 69.349814 38.079563 
L 71.535529 35.425482 
L 73.2841 33.0774 
L 73.2841 33.0774 
L 70.661243 29.630216 
L 68.475529 27.101033 
L 66.289814 24.884094 
L 64.1041 22.9794 
L 61.918386 21.386951 
L 59.732671 20.106747 
L 57.9841 19.3074 
L 56.235529 18.70789 
L 54.486957 18.308216 
L 52.738386 18.10838 
L 51.8641 18.0834 
L 36.5641 18.0834 
L 36.5641 18.0834 
L 38.7673 20.5314 
L 40.16266 22.3674 
L 41.3377 24.2034 
L 42.29242 26.0394 
L 43.02682 27.8754 
L 43.5409 29.7114 
L 43.83466 31.5474 
L 43.9081 33.3834 
L 43.76122 35.2194 
L 43.39402 37.0554 
L 42.8065 38.8914 
L 41.99866 40.7274 
L 40.9705 42.5634 
L 39.72202 44.3994 
L 38.25322 46.2354 
L 36.5641 48.0714 
L 36.5641 48.0714 
" clip-path="url(#p3fb04bf2cf)" style="fill: none; stroke: #000000; stroke-width: 2; stroke-linecap: round"/>
   </g>
   <g id="line2d_6">
    <path d="M 25.8541 40.7274 
L 41.99866 40.7274 
" clip-path="url(#p3fb04bf2cf)" style="fill: none; stroke: #000000; stroke-width: 2; stroke-linecap: round"/>
   </g>
   <g id="line2d_7">
    <path d="M 25.8541 25.4274 
L 41.99866 25.4274 
" clip-path="url(#p3fb04bf2cf)" style="fill: none; stroke: #000000; stroke-width: 2; stroke-linecap: round"/>
   </g>
   <g id="line2d_8">
    <path d="M 73.2841 33.0774 
L 83.9941 33.0774 
" clip-path="url(#p3fb04bf2cf)" style="fill: none; stroke: #000000; stroke-width: 2; stroke-linecap: round"/>
   </g>
   <g id="line2d_9">
    <path d="M 88.5841 48.3774 
L 83.9941 48.3774 
L 83.9941 33.0774 
" clip-path="url(#p3fb04bf2cf)" style="fill: none; stroke: #000000; stroke-width: 2; stroke-linecap: round"/>
   </g>
   <g id="line2d_10">
    <path d="M 36.5641 93.9714 
L 53.612671 93.871482 
L 55.361243 93.571727 
L 57.109814 93.072135 
L 58.858386 92.372706 
L 60.606957 91.473441 
L 62.792671 90.068339 
L 64.978386 88.350992 
L 67.1641 86.3214 
L 69.349814 83.979563 
L 71.535529 81.325482 
L 73.2841 78.9774 
L 73.2841 78.9774 
L 70.661243 75.530216 
L 68.475529 73.001033 
L 66.289814 70.784094 
L 64.1041 68.8794 
L 61.918386 67.286951 
L 59.732671 66.006747 
L 57.9841 65.2074 
L 56.235529 64.60789 
L 54.486957 64.208216 
L 52.738386 64.00838 
L 51.8641 63.9834 
L 36.5641 63.9834 
L 36.5641 63.9834 
L 38.7673 66.4314 
L 40.16266 68.2674 
L 41.3377 70.1034 
L 42.29242 71.9394 
L 43.02682 73.7754 
L 43.5409 75.6114 
L 43.83466 77.4474 
L 43.9081 79.2834 
L 43.76122 81.1194 
L 43.39402 82.9554 
L 42.8065 84.7914 
L 41.99866 86.6274 
L 40.9705 88.4634 
L 39.72202 90.2994 
L 38.25322 92.1354 
L 36.5641 93.9714 
L 36.5641 93.9714 
" clip-path="url(#p3fb04bf2cf)" style="fill: none; stroke: #000000; stroke-width: 2; stroke-linecap: round"/>
   </g>
   <g id="line2d_11">
    <path d="M 25.8541 86.6274 
L 41.99866 86.6274 
" clip-path="url(#p3fb04bf2cf)" style="fill: none; stroke: #000000; stroke-width: 2; stroke-linecap: round"/>
   </g>
   <g id="line2d_12">
    <path d="M 25.8541 71.3274 
L 41.99866 71.3274 
" clip-path="url(#p3fb04bf2cf)" style="fill: none; stroke: #000000; stroke-width: 2; stroke-linecap: round"/>
   </g>
   <g id="line2d_13">
    <path d="M 73.2841 78.9774 
L 83.9941 78.9774 
" clip-path="url(#p3fb04bf2cf)" style="fill: none; stroke: #000000; stroke-width: 2; stroke-linecap: round"/>
   </g>
   <g id="line2d_14">
    <path d="M 88.5841 63.6774 
L 83.9941 63.6774 
L 83.9941 78.9774 
" clip-path="url(#p3fb04bf2cf)" style="fill: none; stroke: #000000; stroke-width: 2; stroke-linecap: round"/>
   </g>
   <g id="text_1">
    <g clip-path="url(#p3fb04bf2cf)">
     <!-- $result$ -->
     <g transform="translate(148.2541 59.476619)scale(0.125 -0.125)">
      <defs>
       <path id="DejaVuSans-Oblique-72" d="M 2853 2969 
Q 2766 3016 2653 3041 
Q 2541 3066 2413 3066 
Q 1953 3066 1609 2717 
Q 1266 2369 1153 1784 
L 800 0 
L 225 0 
L 909 3500 
L 1484 3500 
L 1375 2956 
Q 1603 3259 1920 3421 
Q 2238 3584 2597 3584 
Q 2691 3584 2781 3573 
Q 2872 3563 2963 3538 
L 2853 2969 
z
" transform="scale(0.015625)"/>
       <path id="DejaVuSans-Oblique-65" d="M 3078 2063 
Q 3088 2113 3092 2166 
Q 3097 2219 3097 2272 
Q 3097 2653 2873 2875 
Q 2650 3097 2266 3097 
Q 1838 3097 1509 2826 
Q 1181 2556 1013 2059 
L 3078 2063 
z
M 3578 1613 
L 903 1613 
Q 884 1494 878 1425 
Q 872 1356 872 1306 
Q 872 872 1139 634 
Q 1406 397 1894 397 
Q 2269 397 2603 481 
Q 2938 566 3225 728 
L 3116 159 
Q 2806 34 2476 -28 
Q 2147 -91 1806 -91 
Q 1078 -91 686 257 
Q 294 606 294 1247 
Q 294 1794 489 2264 
Q 684 2734 1063 3103 
Q 1306 3334 1642 3459 
Q 1978 3584 2356 3584 
Q 2950 3584 3301 3228 
Q 3653 2872 3653 2272 
Q 3653 2128 3634 1964 
Q 3616 1800 3578 1613 
z
" transform="scale(0.015625)"/>
       <path id="DejaVuSans-Oblique-73" d="M 3200 3397 
L 3091 2853 
Q 2863 2978 2609 3040 
Q 2356 3103 2088 3103 
Q 1634 3103 1373 2948 
Q 1113 2794 1113 2528 
Q 1113 2219 1719 2053 
Q 1766 2041 1788 2034 
L 1972 1978 
Q 2547 1819 2739 1644 
Q 2931 1469 2931 1166 
Q 2931 609 2489 259 
Q 2047 -91 1331 -91 
Q 1053 -91 747 -37 
Q 441 16 72 128 
L 184 722 
Q 500 559 806 475 
Q 1113 391 1394 391 
Q 1816 391 2080 572 
Q 2344 753 2344 1031 
Q 2344 1331 1650 1516 
L 1591 1531 
L 1394 1581 
Q 956 1697 753 1886 
Q 550 2075 550 2369 
Q 550 2928 970 3256 
Q 1391 3584 2113 3584 
Q 2397 3584 2667 3537 
Q 2938 3491 3200 3397 
z
" transform="scale(0.015625)"/>
       <path id="DejaVuSans-Oblique-75" d="M 428 1388 
L 838 3500 
L 1416 3500 
L 1006 1409 
Q 975 1256 961 1147 
Q 947 1038 947 966 
Q 947 700 1109 554 
Q 1272 409 1569 409 
Q 2031 409 2368 721 
Q 2706 1034 2809 1563 
L 3194 3500 
L 3769 3500 
L 3091 0 
L 2516 0 
L 2631 550 
Q 2388 244 2052 76 
Q 1716 -91 1338 -91 
Q 878 -91 622 161 
Q 366 413 366 863 
Q 366 956 381 1097 
Q 397 1238 428 1388 
z
" transform="scale(0.015625)"/>
       <path id="DejaVuSans-Oblique-6c" d="M 1172 4863 
L 1747 4863 
L 800 0 
L 225 0 
L 1172 4863 
z
" transform="scale(0.015625)"/>
       <path id="DejaVuSans-Oblique-74" d="M 2706 3500 
L 2619 3053 
L 1472 3053 
L 1100 1153 
Q 1081 1047 1072 975 
Q 1063 903 1063 863 
Q 1063 663 1183 572 
Q 1303 481 1569 481 
L 2150 481 
L 2053 0 
L 1503 0 
Q 991 0 739 200 
Q 488 400 488 806 
Q 488 878 497 964 
Q 506 1050 525 1153 
L 897 3053 
L 409 3053 
L 500 3500 
L 978 3500 
L 1172 4494 
L 1747 4494 
L 1556 3500 
L 2706 3500 
z
" transform="scale(0.015625)"/>
      </defs>
      <use xlink:href="#DejaVuSans-Oblique-72" transform="translate(0 0.015625)"/>
      <use xlink:href="#DejaVuSans-Oblique-65" transform="translate(41.113281 0.015625)"/>
      <use xlink:href="#DejaVuSans-Oblique-73" transform="translate(102.636719 0.015625)"/>
      <use xlink:href="#DejaVuSans-Oblique-75" transform="translate(154.736328 0.015625)"/>
      <use xlink:href="#DejaVuSans-Oblique-6c" transform="translate(218.115234 0.015625)"/>
      <use xlink:href="#DejaVuSans-Oblique-74" transform="translate(245.898438 0.015625)"/>
     </g>
    </g>
   </g>
   <g id="text_2">
    <g clip-path="url(#p3fb04bf2cf)">
     <!-- a -->
     <g transform="translate(15.133944 28.876619)scale(0.125 -0.125)">
      <defs>
       <path id="DejaVuSans-61" d="M 2194 1759 
Q 1497 1759 1228 1600 
Q 959 1441 959 1056 
Q 959 750 1161 570 
Q 1363 391 1709 391 
Q 2188 391 2477 730 
Q 2766 1069 2766 1631 
L 2766 1759 
L 2194 1759 
z
M 3341 1997 
L 3341 0 
L 2766 0 
L 2766 531 
Q 2569 213 2275 61 
Q 1981 -91 1556 -91 
Q 1019 -91 701 211 
Q 384 513 384 1019 
Q 384 1609 779 1909 
Q 1175 2209 1959 2209 
L 2766 2209 
L 2766 2266 
Q 2766 2663 2505 2880 
Q 2244 3097 1772 3097 
Q 1472 3097 1187 3025 
Q 903 2953 641 2809 
L 641 3341 
Q 956 3463 1253 3523 
Q 1550 3584 1831 3584 
Q 2591 3584 2966 3190 
Q 3341 2797 3341 1997 
z
" transform="scale(0.015625)"/>
      </defs>
      <use xlink:href="#DejaVuSans-61"/>
     </g>
    </g>
   </g>
   <g id="text_3">
    <g clip-path="url(#p3fb04bf2cf)">
     <!-- b -->
     <g transform="translate(14.858553 44.176619)scale(0.125 -0.125)">
      <defs>
       <path id="DejaVuSans-62" d="M 3116 1747 
Q 3116 2381 2855 2742 
Q 2594 3103 2138 3103 
Q 1681 3103 1420 2742 
Q 1159 2381 1159 1747 
Q 1159 1113 1420 752 
Q 1681 391 2138 391 
Q 2594 391 2855 752 
Q 3116 1113 3116 1747 
z
M 1159 2969 
Q 1341 3281 1617 3432 
Q 1894 3584 2278 3584 
Q 2916 3584 3314 3078 
Q 3713 2572 3713 1747 
Q 3713 922 3314 415 
Q 2916 -91 2278 -91 
Q 1894 -91 1617 61 
Q 1341 213 1159 525 
L 1159 0 
L 581 0 
L 581 4863 
L 1159 4863 
L 1159 2969 
z
" transform="scale(0.015625)"/>
      </defs>
      <use xlink:href="#DejaVuSans-62"/>
     </g>
    </g>
   </g>
   <g id="text_4">
    <g clip-path="url(#p3fb04bf2cf)">
     <!-- c -->
     <g transform="translate(15.921053 74.776619)scale(0.125 -0.125)">
      <defs>
       <path id="DejaVuSans-63" d="M 3122 3366 
L 3122 2828 
Q 2878 2963 2633 3030 
Q 2388 3097 2138 3097 
Q 1578 3097 1268 2742 
Q 959 2388 959 1747 
Q 959 1106 1268 751 
Q 1578 397 2138 397 
Q 2388 397 2633 464 
Q 2878 531 3122 666 
L 3122 134 
Q 2881 22 2623 -34 
Q 2366 -91 2075 -91 
Q 1284 -91 818 406 
Q 353 903 353 1747 
Q 353 2603 823 3093 
Q 1294 3584 2113 3584 
Q 2378 3584 2631 3529 
Q 2884 3475 3122 3366 
z
" transform="scale(0.015625)"/>
      </defs>
      <use xlink:href="#DejaVuSans-63"/>
     </g>
    </g>
   </g>
   <g id="text_5">
    <g clip-path="url(#p3fb04bf2cf)">
     <!-- d -->
     <g transform="translate(14.858553 90.076619)scale(0.125 -0.125)">
      <defs>
       <path id="DejaVuSans-64" d="M 2906 2969 
L 2906 4863 
L 3481 4863 
L 3481 0 
L 2906 0 
L 2906 525 
Q 2725 213 2448 61 
Q 2172 -91 1784 -91 
Q 1150 -91 751 415 
Q 353 922 353 1747 
Q 353 2572 751 3078 
Q 1150 3584 1784 3584 
Q 2172 3584 2448 3432 
Q 2725 3281 2906 2969 
z
M 947 1747 
Q 947 1113 1208 752 
Q 1469 391 1925 391 
Q 2381 391 2643 752 
Q 2906 1113 2906 1747 
Q 2906 2381 2643 2742 
Q 2381 3103 1925 3103 
Q 1469 3103 1208 2742 
Q 947 2381 947 1747 
z
" transform="scale(0.015625)"/>
      </defs>
      <use xlink:href="#DejaVuSans-64"/>
     </g>
    </g>
   </g>
  </g>
 </g>
 <defs>
  <clipPath id="p3fb04bf2cf">
   <rect x="7.2" y="7.2" width="184.9498" height="92.8557"/>
  </clipPath>
 </defs>
</svg>
