<?xml version="1.0" encoding="utf-8" standalone="no"?>
<!DOCTYPE svg PUBLIC "-//W3C//DTD SVG 1.1//EN"
  "http://www.w3.org/Graphics/SVG/1.1/DTD/svg11.dtd">
<svg xmlns:xlink="http://www.w3.org/1999/xlink" width="197.8198pt" height="107.2557pt" viewBox="0 0 197.8198 107.2557" xmlns="http://www.w3.org/2000/svg" version="1.1">
 <metadata>
  <rdf:RDF xmlns:dc="http://purl.org/dc/elements/1.1/" xmlns:cc="http://creativecommons.org/ns#" xmlns:rdf="http://www.w3.org/1999/02/22-rdf-syntax-ns#">
   <cc:Work>
    <dc:type rdf:resource="http://purl.org/dc/dcmitype/StillImage"/>
    <dc:date>2022-07-24T21:38:41.312684</dc:date>
    <dc:format>image/svg+xml</dc:format>
    <dc:creator>
     <cc:Agent>
      <dc:title>Matplotlib v3.5.2, https://matplotlib.org/</dc:title>
     </cc:Agent>
    </dc:creator>
   </cc:Work>
  </rdf:RDF>
 </metadata>
 <defs>
  <style type="text/css">*{stroke-linejoin: round; stroke-linecap: butt}</style>
 </defs>
 <g id="figure_1">
  <g id="patch_1">
   <path d="M 0 107.2557 
L 197.8198 107.2557 
L 197.8198 0 
L 0 0 
L 0 107.2557 
z
" style="fill: none"/>
  </g>
  <g id="axes_1">
   <g id="patch_2">
    <path d="M 75.4261 82.6494 
C 76.399926 82.6494 77.333997 82.262495 78.022596 81.573896 
C 78.711195 80.885297 79.0981 79.951226 79.0981 78.9774 
C 79.0981 78.003574 78.711195 77.069503 78.022596 76.380904 
C 77.333997 75.692305 76.399926 75.3054 75.4261 75.3054 
C 74.452274 75.3054 73.518203 75.692305 72.829604 76.380904 
C 72.141005 77.069503 71.7541 78.003574 71.7541 78.9774 
C 71.7541 79.951226 72.141005 80.885297 72.829604 81.573896 
C 73.518203 82.262495 74.452274 82.6494 75.4261 82.6494 
L 75.4261 82.6494 
z
" clip-path="url(#pdcf5f9c8ff)" style="fill: none; stroke: #000000; stroke-width: 2; stroke-linejoin: miter"/>
   </g>
   <g id="line2d_1">
    <path d="M 96.2341 71.0214 
L 113.282671 70.921482 
L 115.031243 70.621727 
L 116.779814 70.122135 
L 118.528386 69.422706 
L 120.276957 68.523441 
L 122.462671 67.118339 
L 124.648386 65.400992 
L 126.8341 63.3714 
L 129.019814 61.029563 
L 131.205529 58.375482 
L 132.9541 56.0274 
L 132.9541 56.0274 
L 130.331243 52.580216 
L 128.145529 50.051033 
L 125.959814 47.834094 
L 123.7741 45.9294 
L 121.588386 44.336951 
L 119.402671 43.056747 
L 117.6541 42.2574 
L 115.905529 41.65789 
L 114.156957 41.258216 
L 112.408386 41.05838 
L 111.5341 41.0334 
L 96.2341 41.0334 
L 96.2341 41.0334 
L 98.4373 43.4814 
L 99.83266 45.3174 
L 101.0077 47.1534 
L 101.96242 48.9894 
L 102.69682 50.8254 
L 103.2109 52.6614 
L 103.50466 54.4974 
L 103.5781 56.3334 
L 103.43122 58.1694 
L 103.06402 60.0054 
L 102.4765 61.8414 
L 101.66866 63.6774 
L 100.6405 65.5134 
L 99.39202 67.3494 
L 97.92322 69.1854 
L 96.2341 71.0214 
L 96.2341 71.0214 
" clip-path="url(#pdcf5f9c8ff)" style="fill: none; stroke: #000000; stroke-width: 2; stroke-linecap: round"/>
   </g>
   <g id="line2d_2">
    <path d="M 85.5241 63.6774 
L 101.66866 63.6774 
" clip-path="url(#pdcf5f9c8ff)" style="fill: none; stroke: #000000; stroke-width: 2; stroke-linecap: round"/>
   </g>
   <g id="line2d_3">
    <path d="M 85.5241 48.3774 
L 101.66866 48.3774 
" clip-path="url(#pdcf5f9c8ff)" style="fill: none; stroke: #000000; stroke-width: 2; stroke-linecap: round"/>
   </g>
   <g id="line2d_4">
    <path d="M 132.9541 56.0274 
L 143.6641 56.0274 
" clip-path="url(#pdcf5f9c8ff)" style="fill: none; stroke: #000000; stroke-width: 2; stroke-linecap: round"/>
   </g>
   <g id="line2d_5">
    <path d="M 56.4541 48.3774 
L 57.434374 48.345965 
L 58.410621 48.251787 
L 59.378827 48.095255 
L 60.335015 47.877011 
L 61.275256 47.597953 
L 62.195685 47.259226 
L 63.092521 46.862224 
L 63.962079 46.408576 
L 64.800784 45.900148 
L 65.605191 45.339028 
L 66.371994 44.727523 
L 67.098043 44.068145 
L 67.780353 43.363604 
L 68.416122 42.616794 
L 69.002735 41.830785 
L 69.537784 41.008806 
L 70.019069 40.154236 
L 70.444613 39.270585 
L 70.812667 38.361485 
L 71.121718 37.430672 
L 71.370497 36.48197 
L 71.557981 35.519278 
L 71.6834 34.546552 
L 71.746239 33.567789 
L 71.746239 32.587011 
L 71.6834 31.608248 
L 71.557981 30.635522 
L 71.370497 29.67283 
L 71.121718 28.724128 
L 70.812667 27.793315 
L 70.444613 26.884215 
L 70.019069 26.000564 
L 69.537784 25.145994 
L 69.002735 24.324015 
L 68.416122 23.538006 
L 67.780353 22.791196 
L 67.098043 22.086655 
L 66.371994 21.427277 
L 65.605191 20.815772 
L 64.800784 20.254652 
L 63.962079 19.746224 
L 63.092521 19.292576 
L 62.195685 18.895574 
L 61.275256 18.556847 
L 60.335015 18.277789 
L 59.378827 18.059545 
L 58.410621 17.903013 
L 57.434374 17.808835 
L 56.4541 17.7774 
L 56.4541 17.7774 
L 36.5641 17.7774 
L 36.5641 33.0774 
L 36.5641 48.3774 
L 56.4541 48.3774 
" clip-path="url(#pdcf5f9c8ff)" style="fill: none; stroke: #000000; stroke-width: 2; stroke-linecap: round"/>
   </g>
   <g id="line2d_6">
    <path d="M 25.8541 40.7274 
L 36.5641 40.7274 
" clip-path="url(#pdcf5f9c8ff)" style="fill: none; stroke: #000000; stroke-width: 2; stroke-linecap: round"/>
   </g>
   <g id="line2d_7">
    <path d="M 25.8541 25.4274 
L 36.5641 25.4274 
" clip-path="url(#pdcf5f9c8ff)" style="fill: none; stroke: #000000; stroke-width: 2; stroke-linecap: round"/>
   </g>
   <g id="line2d_8">
    <path d="M 71.7541 33.0774 
L 82.4641 33.0774 
" clip-path="url(#pdcf5f9c8ff)" style="fill: none; stroke: #000000; stroke-width: 2; stroke-linecap: round"/>
   </g>
   <g id="line2d_9">
    <path d="M 85.5241 48.3774 
L 82.4641 48.3774 
L 82.4641 33.0774 
" clip-path="url(#pdcf5f9c8ff)" style="fill: none; stroke: #000000; stroke-width: 2; stroke-linecap: round"/>
   </g>
   <g id="line2d_10">
    <path d="M 56.4541 94.2774 
L 57.434374 94.245965 
L 58.410621 94.151787 
L 59.378827 93.995255 
L 60.335015 93.777011 
L 61.275256 93.497953 
L 62.195685 93.159226 
L 63.092521 92.762224 
L 63.962079 92.308576 
L 64.800784 91.800148 
L 65.605191 91.239028 
L 66.371994 90.627523 
L 67.098043 89.968145 
L 67.780353 89.263604 
L 68.416122 88.516794 
L 69.002735 87.730785 
L 69.537784 86.908806 
L 70.019069 86.054236 
L 70.444613 85.170585 
L 70.812667 84.261485 
L 71.121718 83.330672 
L 71.370497 82.38197 
L 71.557981 81.419278 
L 71.6834 80.446552 
L 71.746239 79.467789 
L 71.746239 78.487011 
L 71.6834 77.508248 
L 71.557981 76.535522 
L 71.370497 75.57283 
L 71.121718 74.624128 
L 70.812667 73.693315 
L 70.444613 72.784215 
L 70.019069 71.900564 
L 69.537784 71.045994 
L 69.002735 70.224015 
L 68.416122 69.438006 
L 67.780353 68.691196 
L 67.098043 67.986655 
L 66.371994 67.327277 
L 65.605191 66.715772 
L 64.800784 66.154652 
L 63.962079 65.646224 
L 63.092521 65.192576 
L 62.195685 64.795574 
L 61.275256 64.456847 
L 60.335015 64.177789 
L 59.378827 63.959545 
L 58.410621 63.803013 
L 57.434374 63.708835 
L 56.4541 63.6774 
L 56.4541 63.6774 
L 36.5641 63.6774 
L 36.5641 78.9774 
L 36.5641 94.2774 
L 56.4541 94.2774 
" clip-path="url(#pdcf5f9c8ff)" style="fill: none; stroke: #000000; stroke-width: 2; stroke-linecap: round"/>
   </g>
   <g id="line2d_11">
    <path d="M 25.8541 86.6274 
L 36.5641 86.6274 
" clip-path="url(#pdcf5f9c8ff)" style="fill: none; stroke: #000000; stroke-width: 2; stroke-linecap: round"/>
   </g>
   <g id="line2d_12">
    <path d="M 25.8541 71.3274 
L 36.5641 71.3274 
" clip-path="url(#pdcf5f9c8ff)" style="fill: none; stroke: #000000; stroke-width: 2; stroke-linecap: round"/>
   </g>
   <g id="line2d_13">
    <path d="M 79.0981 78.9774 
L 82.4641 78.9774 
" clip-path="url(#pdcf5f9c8ff)" style="fill: none; stroke: #000000; stroke-width: 2; stroke-linecap: round"/>
   </g>
   <g id="line2d_14">
    <path d="M 85.5241 63.6774 
L 82.4641 63.6774 
L 82.4641 78.9774 
" clip-path="url(#pdcf5f9c8ff)" style="fill: none; stroke: #000000; stroke-width: 2; stroke-linecap: round"/>
   </g>
   <g id="text_1">
    <g clip-path="url(#pdcf5f9c8ff)">
     <!-- $result$ -->
     <g transform="translate(146.7241 59.476619)scale(0.125 -0.125)">
      <defs>
       <path id="DejaVuSans-Oblique-72" d="M 2853 2969 
Q 2766 3016 2653 3041 
Q 2541 3066 2413 3066 
Q 1953 3066 1609 2717 
Q 1266 2369 1153 1784 
L 800 0 
L 225 0 
L 909 3500 
L 1484 3500 
L 1375 2956 
Q 1603 3259 1920 3421 
Q 2238 3584 2597 3584 
Q 2691 3584 2781 3573 
Q 2872 3563 2963 3538 
L 2853 2969 
z
" transform="scale(0.015625)"/>
       <path id="DejaVuSans-Oblique-65" d="M 3078 2063 
Q 3088 2113 3092 2166 
Q 3097 2219 3097 2272 
Q 3097 2653 2873 2875 
Q 2650 3097 2266 3097 
Q 1838 3097 1509 2826 
Q 1181 2556 1013 2059 
L 3078 2063 
z
M 3578 1613 
L 903 1613 
Q 884 1494 878 1425 
Q 872 1356 872 1306 
Q 872 872 1139 634 
Q 1406 397 1894 397 
Q 2269 397 2603 481 
Q 2938 566 3225 728 
L 3116 159 
Q 2806 34 2476 -28 
Q 2147 -91 1806 -91 
Q 1078 -91 686 257 
Q 294 606 294 1247 
Q 294 1794 489 2264 
Q 684 2734 1063 3103 
Q 1306 3334 1642 3459 
Q 1978 3584 2356 3584 
Q 2950 3584 3301 3228 
Q 3653 2872 3653 2272 
Q 3653 2128 3634 1964 
Q 3616 1800 3578 1613 
z
" transform="scale(0.015625)"/>
       <path id="DejaVuSans-Oblique-73" d="M 3200 3397 
L 3091 2853 
Q 2863 2978 2609 3040 
Q 2356 3103 2088 3103 
Q 1634 3103 1373 2948 
Q 1113 2794 1113 2528 
Q 1113 2219 1719 2053 
Q 1766 2041 1788 2034 
L 1972 1978 
Q 2547 1819 2739 1644 
Q 2931 1469 2931 1166 
Q 2931 609 2489 259 
Q 2047 -91 1331 -91 
Q 1053 -91 747 -37 
Q 441 16 72 128 
L 184 722 
Q 500 559 806 475 
Q 1113 391 1394 391 
Q 1816 391 2080 572 
Q 2344 753 2344 1031 
Q 2344 1331 1650 1516 
L 1591 1531 
L 1394 1581 
Q 956 1697 753 1886 
Q 550 2075 550 2369 
Q 550 2928 970 3256 
Q 1391 3584 2113 3584 
Q 2397 3584 2667 3537 
Q 2938 3491 3200 3397 
z
" transform="scale(0.015625)"/>
       <path id="DejaVuSans-Oblique-75" d="M 428 1388 
L 838 3500 
L 1416 3500 
L 1006 1409 
Q 975 1256 961 1147 
Q 947 1038 947 966 
Q 947 700 1109 554 
Q 1272 409 1569 409 
Q 2031 409 2368 721 
Q 2706 1034 2809 1563 
L 3194 3500 
L 3769 3500 
L 3091 0 
L 2516 0 
L 2631 550 
Q 2388 244 2052 76 
Q 1716 -91 1338 -91 
Q 878 -91 622 161 
Q 366 413 366 863 
Q 366 956 381 1097 
Q 397 1238 428 1388 
z
" transform="scale(0.015625)"/>
       <path id="DejaVuSans-Oblique-6c" d="M 1172 4863 
L 1747 4863 
L 800 0 
L 225 0 
L 1172 4863 
z
" transform="scale(0.015625)"/>
       <path id="DejaVuSans-Oblique-74" d="M 2706 3500 
L 2619 3053 
L 1472 3053 
L 1100 1153 
Q 1081 1047 1072 975 
Q 1063 903 1063 863 
Q 1063 663 1183 572 
Q 1303 481 1569 481 
L 2150 481 
L 2053 0 
L 1503 0 
Q 991 0 739 200 
Q 488 400 488 806 
Q 488 878 497 964 
Q 506 1050 525 1153 
L 897 3053 
L 409 3053 
L 500 3500 
L 978 3500 
L 1172 4494 
L 1747 4494 
L 1556 3500 
L 2706 3500 
z
" transform="scale(0.015625)"/>
      </defs>
      <use xlink:href="#DejaVuSans-Oblique-72" transform="translate(0 0.015625)"/>
      <use xlink:href="#DejaVuSans-Oblique-65" transform="translate(41.113281 0.015625)"/>
      <use xlink:href="#DejaVuSans-Oblique-73" transform="translate(102.636719 0.015625)"/>
      <use xlink:href="#DejaVuSans-Oblique-75" transform="translate(154.736328 0.015625)"/>
      <use xlink:href="#DejaVuSans-Oblique-6c" transform="translate(218.115234 0.015625)"/>
      <use xlink:href="#DejaVuSans-Oblique-74" transform="translate(245.898438 0.015625)"/>
     </g>
    </g>
   </g>
   <g id="text_2">
    <g clip-path="url(#pdcf5f9c8ff)">
     <!-- a -->
     <g transform="translate(15.133944 28.876619)scale(0.125 -0.125)">
      <defs>
       <path id="DejaVuSans-61" d="M 2194 1759 
Q 1497 1759 1228 1600 
Q 959 1441 959 1056 
Q 959 750 1161 570 
Q 1363 391 1709 391 
Q 2188 391 2477 730 
Q 2766 1069 2766 1631 
L 2766 1759 
L 2194 1759 
z
M 3341 1997 
L 3341 0 
L 2766 0 
L 2766 531 
Q 2569 213 2275 61 
Q 1981 -91 1556 -91 
Q 1019 -91 701 211 
Q 384 513 384 1019 
Q 384 1609 779 1909 
Q 1175 2209 1959 2209 
L 2766 2209 
L 2766 2266 
Q 2766 2663 2505 2880 
Q 2244 3097 1772 3097 
Q 1472 3097 1187 3025 
Q 903 2953 641 2809 
L 641 3341 
Q 956 3463 1253 3523 
Q 1550 3584 1831 3584 
Q 2591 3584 2966 3190 
Q 3341 2797 3341 1997 
z
" transform="scale(0.015625)"/>
      </defs>
      <use xlink:href="#DejaVuSans-61"/>
     </g>
    </g>
   </g>
   <g id="text_3">
    <g clip-path="url(#pdcf5f9c8ff)">
     <!-- b -->
     <g transform="translate(14.858553 44.176619)scale(0.125 -0.125)">
      <defs>
       <path id="DejaVuSans-62" d="M 3116 1747 
Q 3116 2381 2855 2742 
Q 2594 3103 2138 3103 
Q 1681 3103 1420 2742 
Q 1159 2381 1159 1747 
Q 1159 1113 1420 752 
Q 1681 391 2138 391 
Q 2594 391 2855 752 
Q 3116 1113 3116 1747 
z
M 1159 2969 
Q 1341 3281 1617 3432 
Q 1894 3584 2278 3584 
Q 2916 3584 3314 3078 
Q 3713 2572 3713 1747 
Q 3713 922 3314 415 
Q 2916 -91 2278 -91 
Q 1894 -91 1617 61 
Q 1341 213 1159 525 
L 1159 0 
L 581 0 
L 581 4863 
L 1159 4863 
L 1159 2969 
z
" transform="scale(0.015625)"/>
      </defs>
      <use xlink:href="#DejaVuSans-62"/>
     </g>
    </g>
   </g>
   <g id="text_4">
    <g clip-path="url(#pdcf5f9c8ff)">
     <!-- c -->
     <g transform="translate(15.921053 74.776619)scale(0.125 -0.125)">
      <defs>
       <path id="DejaVuSans-63" d="M 3122 3366 
L 3122 2828 
Q 2878 2963 2633 3030 
Q 2388 3097 2138 3097 
Q 1578 3097 1268 2742 
Q 959 2388 959 1747 
Q 959 1106 1268 751 
Q 1578 397 2138 397 
Q 2388 397 2633 464 
Q 2878 531 3122 666 
L 3122 134 
Q 2881 22 2623 -34 
Q 2366 -91 2075 -91 
Q 1284 -91 818 406 
Q 353 903 353 1747 
Q 353 2603 823 3093 
Q 1294 3584 2113 3584 
Q 2378 3584 2631 3529 
Q 2884 3475 3122 3366 
z
" transform="scale(0.015625)"/>
      </defs>
      <use xlink:href="#DejaVuSans-63"/>
     </g>
    </g>
   </g>
   <g id="text_5">
    <g clip-path="url(#pdcf5f9c8ff)">
     <!-- d -->
     <g transform="translate(14.858553 90.076619)scale(0.125 -0.125)">
      <defs>
       <path id="DejaVuSans-64" d="M 2906 2969 
L 2906 4863 
L 3481 4863 
L 3481 0 
L 2906 0 
L 2906 525 
Q 2725 213 2448 61 
Q 2172 -91 1784 -91 
Q 1150 -91 751 415 
Q 353 922 353 1747 
Q 353 2572 751 3078 
Q 1150 3584 1784 3584 
Q 2172 3584 2448 3432 
Q 2725 3281 2906 2969 
z
M 947 1747 
Q 947 1113 1208 752 
Q 1469 391 1925 391 
Q 2381 391 2643 752 
Q 2906 1113 2906 1747 
Q 2906 2381 2643 2742 
Q 2381 3103 1925 3103 
Q 1469 3103 1208 2742 
Q 947 2381 947 1747 
z
" transform="scale(0.015625)"/>
      </defs>
      <use xlink:href="#DejaVuSans-64"/>
     </g>
    </g>
   </g>
  </g>
 </g>
 <defs>
  <clipPath id="pdcf5f9c8ff">
   <rect x="7.2" y="7.2" width="183.4198" height="92.8557"/>
  </clipPath>
 </defs>
</svg>
