<?xml version="1.0" encoding="utf-8" standalone="no"?>
<!DOCTYPE svg PUBLIC "-//W3C//DTD SVG 1.1//EN"
  "http://www.w3.org/Graphics/SVG/1.1/DTD/svg11.dtd">
<svg xmlns:xlink="http://www.w3.org/1999/xlink" width="203.7375pt" height="71.52765pt" viewBox="0 0 203.7375 71.52765" xmlns="http://www.w3.org/2000/svg" version="1.1">
 <metadata>
  <rdf:RDF xmlns:dc="http://purl.org/dc/elements/1.1/" xmlns:cc="http://creativecommons.org/ns#" xmlns:rdf="http://www.w3.org/1999/02/22-rdf-syntax-ns#">
   <cc:Work>
    <dc:type rdf:resource="http://purl.org/dc/dcmitype/StillImage"/>
    <dc:date>2022-07-24T21:59:39.039896</dc:date>
    <dc:format>image/svg+xml</dc:format>
    <dc:creator>
     <cc:Agent>
      <dc:title>Matplotlib v3.5.2, https://matplotlib.org/</dc:title>
     </cc:Agent>
    </dc:creator>
   </cc:Work>
  </rdf:RDF>
 </metadata>
 <defs>
  <style type="text/css">*{stroke-linejoin: round; stroke-linecap: butt}</style>
 </defs>
 <g id="figure_1">
  <g id="patch_1">
   <path d="M 0 71.52765 
L 203.7375 71.52765 
L 203.7375 0 
L 0 0 
L 0 71.52765 
z
" style="fill: none"/>
  </g>
  <g id="axes_1">
   <g id="patch_2">
    <path d="M 142.5438 48.2244 
C 143.517626 48.2244 144.451697 47.837495 145.140296 47.148896 
C 145.828895 46.460297 146.2158 45.526226 146.2158 44.5524 
C 146.2158 43.578574 145.828895 42.644503 145.140296 41.955904 
C 144.451697 41.267305 143.517626 40.8804 142.5438 40.8804 
C 141.569974 40.8804 140.635903 41.267305 139.947304 41.955904 
C 139.258705 42.644503 138.8718 43.578574 138.8718 44.5524 
C 138.8718 45.526226 139.258705 46.460297 139.947304 47.148896 
C 140.635903 47.837495 141.569974 48.2244 142.5438 48.2244 
L 142.5438 48.2244 
z
" clip-path="url(#pbbbe79cda0)" style="fill: none; stroke: #000000; stroke-width: 2; stroke-linejoin: miter"/>
   </g>
   <g id="line2d_1">
    <path d="M 102.1518 59.5464 
L 119.200371 59.446482 
L 120.948943 59.146727 
L 122.697514 58.647135 
L 124.446086 57.947706 
L 126.194657 57.048441 
L 128.380371 55.643339 
L 130.566086 53.925992 
L 132.7518 51.8964 
L 134.937514 49.554563 
L 137.123229 46.900482 
L 138.8718 44.5524 
L 138.8718 44.5524 
L 136.248943 41.105216 
L 134.063229 38.576033 
L 131.877514 36.359094 
L 129.6918 34.4544 
L 127.506086 32.861951 
L 125.320371 31.581747 
L 123.5718 30.7824 
L 121.823229 30.18289 
L 120.074657 29.783216 
L 118.326086 29.58338 
L 117.4518 29.5584 
L 102.1518 29.5584 
L 102.1518 29.5584 
L 104.355 32.0064 
L 105.75036 33.8424 
L 106.9254 35.6784 
L 107.88012 37.5144 
L 108.61452 39.3504 
L 109.1286 41.1864 
L 109.42236 43.0224 
L 109.4958 44.8584 
L 109.34892 46.6944 
L 108.98172 48.5304 
L 108.3942 50.3664 
L 107.58636 52.2024 
L 106.5582 54.0384 
L 105.30972 55.8744 
L 103.84092 57.7104 
L 102.1518 59.5464 
L 102.1518 59.5464 
" clip-path="url(#pbbbe79cda0)" style="fill: none; stroke: #000000; stroke-width: 2; stroke-linecap: round"/>
   </g>
   <g id="line2d_2">
    <path d="M 97.5618 59.5464 
L 98.14932 58.9344 
L 98.71236 58.3224 
L 99.25092 57.7104 
L 99.765 57.0984 
L 100.2546 56.4864 
L 100.71972 55.8744 
L 101.16036 55.2624 
L 101.57652 54.6504 
L 101.9682 54.0384 
L 102.3354 53.4264 
L 102.67812 52.8144 
L 102.99636 52.2024 
L 103.29012 51.5904 
L 103.5594 50.9784 
L 103.8042 50.3664 
L 104.02452 49.7544 
L 104.22036 49.1424 
L 104.39172 48.5304 
L 104.5386 47.9184 
L 104.661 47.3064 
L 104.75892 46.6944 
L 104.83236 46.0824 
L 104.88132 45.4704 
L 104.9058 44.8584 
L 104.9058 44.2464 
L 104.88132 43.6344 
L 104.83236 43.0224 
L 104.75892 42.4104 
L 104.661 41.7984 
L 104.5386 41.1864 
L 104.39172 40.5744 
L 104.22036 39.9624 
L 104.02452 39.3504 
L 103.8042 38.7384 
L 103.5594 38.1264 
L 103.29012 37.5144 
L 102.99636 36.9024 
L 102.67812 36.2904 
L 102.3354 35.6784 
L 101.9682 35.0664 
L 101.57652 34.4544 
L 101.16036 33.8424 
L 100.71972 33.2304 
L 100.2546 32.6184 
L 99.765 32.0064 
L 99.25092 31.3944 
L 98.71236 30.7824 
L 98.14932 30.1704 
L 97.5618 29.5584 
" clip-path="url(#pbbbe79cda0)" style="fill: none; stroke: #000000; stroke-width: 2; stroke-linecap: round"/>
   </g>
   <g id="line2d_3">
    <path d="M 86.8518 52.2024 
L 102.99636 52.2024 
" clip-path="url(#pbbbe79cda0)" style="fill: none; stroke: #000000; stroke-width: 2; stroke-linecap: round"/>
   </g>
   <g id="line2d_4">
    <path d="M 86.8518 36.9024 
L 102.99636 36.9024 
" clip-path="url(#pbbbe79cda0)" style="fill: none; stroke: #000000; stroke-width: 2; stroke-linecap: round"/>
   </g>
   <g id="line2d_5">
    <path d="M 146.2158 44.5524 
L 149.5818 44.5524 
" clip-path="url(#pbbbe79cda0)" style="fill: none; stroke: #000000; stroke-width: 2; stroke-linecap: round"/>
   </g>
   <g id="line2d_6">
    <path d="M 40.9518 48.0714 
L 58.000371 47.971482 
L 59.748943 47.671727 
L 61.497514 47.172135 
L 63.246086 46.472706 
L 64.994657 45.573441 
L 67.180371 44.168339 
L 69.366086 42.450992 
L 71.5518 40.4214 
L 73.737514 38.079563 
L 75.923229 35.425482 
L 77.6718 33.0774 
L 77.6718 33.0774 
L 75.048943 29.630216 
L 72.863229 27.101033 
L 70.677514 24.884094 
L 68.4918 22.9794 
L 66.306086 21.386951 
L 64.120371 20.106747 
L 62.3718 19.3074 
L 60.623229 18.70789 
L 58.874657 18.308216 
L 57.126086 18.10838 
L 56.2518 18.0834 
L 40.9518 18.0834 
L 40.9518 18.0834 
L 43.155 20.5314 
L 44.55036 22.3674 
L 45.7254 24.2034 
L 46.68012 26.0394 
L 47.41452 27.8754 
L 47.9286 29.7114 
L 48.22236 31.5474 
L 48.2958 33.3834 
L 48.14892 35.2194 
L 47.78172 37.0554 
L 47.1942 38.8914 
L 46.38636 40.7274 
L 45.3582 42.5634 
L 44.10972 44.3994 
L 42.64092 46.2354 
L 40.9518 48.0714 
L 40.9518 48.0714 
" clip-path="url(#pbbbe79cda0)" style="fill: none; stroke: #000000; stroke-width: 2; stroke-linecap: round"/>
   </g>
   <g id="line2d_7">
    <path d="M 36.3618 48.0714 
L 36.94932 47.4594 
L 37.51236 46.8474 
L 38.05092 46.2354 
L 38.565 45.6234 
L 39.0546 45.0114 
L 39.51972 44.3994 
L 39.96036 43.7874 
L 40.37652 43.1754 
L 40.7682 42.5634 
L 41.1354 41.9514 
L 41.47812 41.3394 
L 41.79636 40.7274 
L 42.09012 40.1154 
L 42.3594 39.5034 
L 42.6042 38.8914 
L 42.82452 38.2794 
L 43.02036 37.6674 
L 43.19172 37.0554 
L 43.3386 36.4434 
L 43.461 35.8314 
L 43.55892 35.2194 
L 43.63236 34.6074 
L 43.68132 33.9954 
L 43.7058 33.3834 
L 43.7058 32.7714 
L 43.68132 32.1594 
L 43.63236 31.5474 
L 43.55892 30.9354 
L 43.461 30.3234 
L 43.3386 29.7114 
L 43.19172 29.0994 
L 43.02036 28.4874 
L 42.82452 27.8754 
L 42.6042 27.2634 
L 42.3594 26.6514 
L 42.09012 26.0394 
L 41.79636 25.4274 
L 41.47812 24.8154 
L 41.1354 24.2034 
L 40.7682 23.5914 
L 40.37652 22.9794 
L 39.96036 22.3674 
L 39.51972 21.7554 
L 39.0546 21.1434 
L 38.565 20.5314 
L 38.05092 19.9194 
L 37.51236 19.3074 
L 36.94932 18.6954 
L 36.3618 18.0834 
" clip-path="url(#pbbbe79cda0)" style="fill: none; stroke: #000000; stroke-width: 2; stroke-linecap: round"/>
   </g>
   <g id="line2d_8">
    <path d="M 25.6518 40.7274 
L 41.79636 40.7274 
" clip-path="url(#pbbbe79cda0)" style="fill: none; stroke: #000000; stroke-width: 2; stroke-linecap: round"/>
   </g>
   <g id="line2d_9">
    <path d="M 25.6518 25.4274 
L 41.79636 25.4274 
" clip-path="url(#pbbbe79cda0)" style="fill: none; stroke: #000000; stroke-width: 2; stroke-linecap: round"/>
   </g>
   <g id="line2d_10">
    <path d="M 77.6718 33.0774 
L 88.3818 33.0774 
" clip-path="url(#pbbbe79cda0)" style="fill: none; stroke: #000000; stroke-width: 2; stroke-linecap: round"/>
   </g>
   <g id="line2d_11">
    <path d="M 86.8518 36.9024 
L 88.3818 36.9024 
L 88.3818 33.0774 
" clip-path="url(#pbbbe79cda0)" style="fill: none; stroke: #000000; stroke-width: 2; stroke-linecap: round"/>
   </g>
   <g id="text_1">
    <g clip-path="url(#pbbbe79cda0)">
     <!-- $result$ -->
     <g transform="translate(152.6418 48.001619)scale(0.125 -0.125)">
      <defs>
       <path id="DejaVuSans-Oblique-72" d="M 2853 2969 
Q 2766 3016 2653 3041 
Q 2541 3066 2413 3066 
Q 1953 3066 1609 2717 
Q 1266 2369 1153 1784 
L 800 0 
L 225 0 
L 909 3500 
L 1484 3500 
L 1375 2956 
Q 1603 3259 1920 3421 
Q 2238 3584 2597 3584 
Q 2691 3584 2781 3573 
Q 2872 3563 2963 3538 
L 2853 2969 
z
" transform="scale(0.015625)"/>
       <path id="DejaVuSans-Oblique-65" d="M 3078 2063 
Q 3088 2113 3092 2166 
Q 3097 2219 3097 2272 
Q 3097 2653 2873 2875 
Q 2650 3097 2266 3097 
Q 1838 3097 1509 2826 
Q 1181 2556 1013 2059 
L 3078 2063 
z
M 3578 1613 
L 903 1613 
Q 884 1494 878 1425 
Q 872 1356 872 1306 
Q 872 872 1139 634 
Q 1406 397 1894 397 
Q 2269 397 2603 481 
Q 2938 566 3225 728 
L 3116 159 
Q 2806 34 2476 -28 
Q 2147 -91 1806 -91 
Q 1078 -91 686 257 
Q 294 606 294 1247 
Q 294 1794 489 2264 
Q 684 2734 1063 3103 
Q 1306 3334 1642 3459 
Q 1978 3584 2356 3584 
Q 2950 3584 3301 3228 
Q 3653 2872 3653 2272 
Q 3653 2128 3634 1964 
Q 3616 1800 3578 1613 
z
" transform="scale(0.015625)"/>
       <path id="DejaVuSans-Oblique-73" d="M 3200 3397 
L 3091 2853 
Q 2863 2978 2609 3040 
Q 2356 3103 2088 3103 
Q 1634 3103 1373 2948 
Q 1113 2794 1113 2528 
Q 1113 2219 1719 2053 
Q 1766 2041 1788 2034 
L 1972 1978 
Q 2547 1819 2739 1644 
Q 2931 1469 2931 1166 
Q 2931 609 2489 259 
Q 2047 -91 1331 -91 
Q 1053 -91 747 -37 
Q 441 16 72 128 
L 184 722 
Q 500 559 806 475 
Q 1113 391 1394 391 
Q 1816 391 2080 572 
Q 2344 753 2344 1031 
Q 2344 1331 1650 1516 
L 1591 1531 
L 1394 1581 
Q 956 1697 753 1886 
Q 550 2075 550 2369 
Q 550 2928 970 3256 
Q 1391 3584 2113 3584 
Q 2397 3584 2667 3537 
Q 2938 3491 3200 3397 
z
" transform="scale(0.015625)"/>
       <path id="DejaVuSans-Oblique-75" d="M 428 1388 
L 838 3500 
L 1416 3500 
L 1006 1409 
Q 975 1256 961 1147 
Q 947 1038 947 966 
Q 947 700 1109 554 
Q 1272 409 1569 409 
Q 2031 409 2368 721 
Q 2706 1034 2809 1563 
L 3194 3500 
L 3769 3500 
L 3091 0 
L 2516 0 
L 2631 550 
Q 2388 244 2052 76 
Q 1716 -91 1338 -91 
Q 878 -91 622 161 
Q 366 413 366 863 
Q 366 956 381 1097 
Q 397 1238 428 1388 
z
" transform="scale(0.015625)"/>
       <path id="DejaVuSans-Oblique-6c" d="M 1172 4863 
L 1747 4863 
L 800 0 
L 225 0 
L 1172 4863 
z
" transform="scale(0.015625)"/>
       <path id="DejaVuSans-Oblique-74" d="M 2706 3500 
L 2619 3053 
L 1472 3053 
L 1100 1153 
Q 1081 1047 1072 975 
Q 1063 903 1063 863 
Q 1063 663 1183 572 
Q 1303 481 1569 481 
L 2150 481 
L 2053 0 
L 1503 0 
Q 991 0 739 200 
Q 488 400 488 806 
Q 488 878 497 964 
Q 506 1050 525 1153 
L 897 3053 
L 409 3053 
L 500 3500 
L 978 3500 
L 1172 4494 
L 1747 4494 
L 1556 3500 
L 2706 3500 
z
" transform="scale(0.015625)"/>
      </defs>
      <use xlink:href="#DejaVuSans-Oblique-72" transform="translate(0 0.015625)"/>
      <use xlink:href="#DejaVuSans-Oblique-65" transform="translate(41.113281 0.015625)"/>
      <use xlink:href="#DejaVuSans-Oblique-73" transform="translate(102.636719 0.015625)"/>
      <use xlink:href="#DejaVuSans-Oblique-75" transform="translate(154.736328 0.015625)"/>
      <use xlink:href="#DejaVuSans-Oblique-6c" transform="translate(218.115234 0.015625)"/>
      <use xlink:href="#DejaVuSans-Oblique-74" transform="translate(245.898438 0.015625)"/>
     </g>
    </g>
   </g>
   <g id="text_2">
    <g clip-path="url(#pbbbe79cda0)">
     <!-- c -->
     <g transform="translate(76.918753 55.651619)scale(0.125 -0.125)">
      <defs>
       <path id="DejaVuSans-63" d="M 3122 3366 
L 3122 2828 
Q 2878 2963 2633 3030 
Q 2388 3097 2138 3097 
Q 1578 3097 1268 2742 
Q 959 2388 959 1747 
Q 959 1106 1268 751 
Q 1578 397 2138 397 
Q 2388 397 2633 464 
Q 2878 531 3122 666 
L 3122 134 
Q 2881 22 2623 -34 
Q 2366 -91 2075 -91 
Q 1284 -91 818 406 
Q 353 903 353 1747 
Q 353 2603 823 3093 
Q 1294 3584 2113 3584 
Q 2378 3584 2631 3529 
Q 2884 3475 3122 3366 
z
" transform="scale(0.015625)"/>
      </defs>
      <use xlink:href="#DejaVuSans-63"/>
     </g>
    </g>
   </g>
   <g id="text_3">
    <g clip-path="url(#pbbbe79cda0)">
     <!-- a -->
     <g transform="translate(14.931644 28.876619)scale(0.125 -0.125)">
      <defs>
       <path id="DejaVuSans-61" d="M 2194 1759 
Q 1497 1759 1228 1600 
Q 959 1441 959 1056 
Q 959 750 1161 570 
Q 1363 391 1709 391 
Q 2188 391 2477 730 
Q 2766 1069 2766 1631 
L 2766 1759 
L 2194 1759 
z
M 3341 1997 
L 3341 0 
L 2766 0 
L 2766 531 
Q 2569 213 2275 61 
Q 1981 -91 1556 -91 
Q 1019 -91 701 211 
Q 384 513 384 1019 
Q 384 1609 779 1909 
Q 1175 2209 1959 2209 
L 2766 2209 
L 2766 2266 
Q 2766 2663 2505 2880 
Q 2244 3097 1772 3097 
Q 1472 3097 1187 3025 
Q 903 2953 641 2809 
L 641 3341 
Q 956 3463 1253 3523 
Q 1550 3584 1831 3584 
Q 2591 3584 2966 3190 
Q 3341 2797 3341 1997 
z
" transform="scale(0.015625)"/>
      </defs>
      <use xlink:href="#DejaVuSans-61"/>
     </g>
    </g>
   </g>
   <g id="text_4">
    <g clip-path="url(#pbbbe79cda0)">
     <!-- b -->
     <g transform="translate(14.656253 44.176619)scale(0.125 -0.125)">
      <defs>
       <path id="DejaVuSans-62" d="M 3116 1747 
Q 3116 2381 2855 2742 
Q 2594 3103 2138 3103 
Q 1681 3103 1420 2742 
Q 1159 2381 1159 1747 
Q 1159 1113 1420 752 
Q 1681 391 2138 391 
Q 2594 391 2855 752 
Q 3116 1113 3116 1747 
z
M 1159 2969 
Q 1341 3281 1617 3432 
Q 1894 3584 2278 3584 
Q 2916 3584 3314 3078 
Q 3713 2572 3713 1747 
Q 3713 922 3314 415 
Q 2916 -91 2278 -91 
Q 1894 -91 1617 61 
Q 1341 213 1159 525 
L 1159 0 
L 581 0 
L 581 4863 
L 1159 4863 
L 1159 2969 
z
" transform="scale(0.015625)"/>
      </defs>
      <use xlink:href="#DejaVuSans-62"/>
     </g>
    </g>
   </g>
  </g>
 </g>
 <defs>
  <clipPath id="pbbbe79cda0">
   <rect x="7.2" y="7.2" width="189.3375" height="57.12765"/>
  </clipPath>
 </defs>
</svg>
