<?xml version="1.0" encoding="utf-8" standalone="no"?>
<!DOCTYPE svg PUBLIC "-//W3C//DTD SVG 1.1//EN"
  "http://www.w3.org/Graphics/SVG/1.1/DTD/svg11.dtd">
<svg xmlns:xlink="http://www.w3.org/1999/xlink" width="194.7734pt" height="74.0564pt" viewBox="0 0 194.7734 74.0564" xmlns="http://www.w3.org/2000/svg" version="1.1">
 <metadata>
  <rdf:RDF xmlns:dc="http://purl.org/dc/elements/1.1/" xmlns:cc="http://creativecommons.org/ns#" xmlns:rdf="http://www.w3.org/1999/02/22-rdf-syntax-ns#">
   <cc:Work>
    <dc:type rdf:resource="http://purl.org/dc/dcmitype/StillImage"/>
    <dc:date>2022-07-21T03:54:30.961117</dc:date>
    <dc:format>image/svg+xml</dc:format>
    <dc:creator>
     <cc:Agent>
      <dc:title>Matplotlib v3.5.2, https://matplotlib.org/</dc:title>
     </cc:Agent>
    </dc:creator>
   </cc:Work>
  </rdf:RDF>
 </metadata>
 <defs>
  <style type="text/css">*{stroke-linejoin: round; stroke-linecap: butt}</style>
 </defs>
 <g id="figure_1">
  <g id="patch_1">
   <path d="M 0 74.0564 
L 194.7734 74.0564 
L 194.7734 0 
L 0 0 
L 0 74.0564 
z
" style="fill: none"/>
  </g>
  <g id="axes_1">
   <g id="line2d_1">
    <path d="M 93.1877 60.8197 
L 110.236271 60.719782 
L 111.984843 60.420027 
L 113.733414 59.920435 
L 115.481986 59.221006 
L 117.230557 58.321741 
L 119.416271 56.916639 
L 121.601986 55.199292 
L 123.7877 53.1697 
L 125.973414 50.827863 
L 128.159129 48.173782 
L 129.9077 45.8257 
L 129.9077 45.8257 
L 127.284843 42.378516 
L 125.099129 39.849333 
L 122.913414 37.632394 
L 120.7277 35.7277 
L 118.541986 34.135251 
L 116.356271 32.855047 
L 114.6077 32.0557 
L 112.859129 31.45619 
L 111.110557 31.056516 
L 109.361986 30.85668 
L 108.4877 30.8317 
L 93.1877 30.8317 
L 93.1877 30.8317 
L 95.3909 33.2797 
L 96.78626 35.1157 
L 97.9613 36.9517 
L 98.91602 38.7877 
L 99.65042 40.6237 
L 100.1645 42.4597 
L 100.45826 44.2957 
L 100.5317 46.1317 
L 100.38482 47.9677 
L 100.01762 49.8037 
L 99.4301 51.6397 
L 98.62226 53.4757 
L 97.5941 55.3117 
L 96.34562 57.1477 
L 94.87682 58.9837 
L 93.1877 60.8197 
L 93.1877 60.8197 
" clip-path="url(#p3f96a2bb9c)" style="fill: none; stroke: #000000; stroke-width: 2; stroke-linecap: round"/>
   </g>
   <g id="line2d_2">
    <path d="M 82.4777 53.4757 
L 98.62226 53.4757 
" clip-path="url(#p3f96a2bb9c)" style="fill: none; stroke: #000000; stroke-width: 2; stroke-linecap: round"/>
   </g>
   <g id="line2d_3">
    <path d="M 82.4777 38.1757 
L 98.62226 38.1757 
" clip-path="url(#p3f96a2bb9c)" style="fill: none; stroke: #000000; stroke-width: 2; stroke-linecap: round"/>
   </g>
   <g id="line2d_4">
    <path d="M 129.9077 45.8257 
L 140.6177 45.8257 
" clip-path="url(#p3f96a2bb9c)" style="fill: none; stroke: #000000; stroke-width: 2; stroke-linecap: round"/>
   </g>
   <g id="line2d_5">
    <path d="M 53.4077 49.6507 
L 54.387974 49.619265 
L 55.364221 49.525087 
L 56.332427 49.368555 
L 57.288615 49.150311 
L 58.228856 48.871253 
L 59.149285 48.532526 
L 60.046121 48.135524 
L 60.915679 47.681876 
L 61.754384 47.173448 
L 62.558791 46.612328 
L 63.325594 46.000823 
L 64.051643 45.341445 
L 64.733953 44.636904 
L 65.369722 43.890094 
L 65.956335 43.104085 
L 66.491384 42.282106 
L 66.972669 41.427536 
L 67.398213 40.543885 
L 67.766267 39.634785 
L 68.075318 38.703972 
L 68.324097 37.75527 
L 68.511581 36.792578 
L 68.637 35.819852 
L 68.699839 34.841089 
L 68.699839 33.860311 
L 68.637 32.881548 
L 68.511581 31.908822 
L 68.324097 30.94613 
L 68.075318 29.997428 
L 67.766267 29.066615 
L 67.398213 28.157515 
L 66.972669 27.273864 
L 66.491384 26.419294 
L 65.956335 25.597315 
L 65.369722 24.811306 
L 64.733953 24.064496 
L 64.051643 23.359955 
L 63.325594 22.700577 
L 62.558791 22.089072 
L 61.754384 21.527952 
L 60.915679 21.019524 
L 60.046121 20.565876 
L 59.149285 20.168874 
L 58.228856 19.830147 
L 57.288615 19.551089 
L 56.332427 19.332845 
L 55.364221 19.176313 
L 54.387974 19.082135 
L 53.4077 19.0507 
L 53.4077 19.0507 
L 33.5177 19.0507 
L 33.5177 34.3507 
L 33.5177 49.6507 
L 53.4077 49.6507 
" clip-path="url(#p3f96a2bb9c)" style="fill: none; stroke: #000000; stroke-width: 2; stroke-linecap: round"/>
   </g>
   <g id="line2d_6">
    <path d="M 22.8077 42.0007 
L 33.5177 42.0007 
" clip-path="url(#p3f96a2bb9c)" style="fill: none; stroke: #000000; stroke-width: 2; stroke-linecap: round"/>
   </g>
   <g id="line2d_7">
    <path d="M 22.8077 26.7007 
L 33.5177 26.7007 
" clip-path="url(#p3f96a2bb9c)" style="fill: none; stroke: #000000; stroke-width: 2; stroke-linecap: round"/>
   </g>
   <g id="line2d_8">
    <path d="M 68.7077 34.3507 
L 79.4177 34.3507 
" clip-path="url(#p3f96a2bb9c)" style="fill: none; stroke: #000000; stroke-width: 2; stroke-linecap: round"/>
   </g>
   <g id="line2d_9">
    <path d="M 82.4777 38.1757 
L 79.4177 38.1757 
L 79.4177 34.3507 
" clip-path="url(#p3f96a2bb9c)" style="fill: none; stroke: #000000; stroke-width: 2; stroke-linecap: round"/>
   </g>
   <g id="text_1">
    <g clip-path="url(#p3f96a2bb9c)">
     <!-- $result$ -->
     <g transform="translate(143.6777 49.274919)scale(0.125 -0.125)">
      <defs>
       <path id="DejaVuSans-Oblique-72" d="M 2853 2969 
Q 2766 3016 2653 3041 
Q 2541 3066 2413 3066 
Q 1953 3066 1609 2717 
Q 1266 2369 1153 1784 
L 800 0 
L 225 0 
L 909 3500 
L 1484 3500 
L 1375 2956 
Q 1603 3259 1920 3421 
Q 2238 3584 2597 3584 
Q 2691 3584 2781 3573 
Q 2872 3563 2963 3538 
L 2853 2969 
z
" transform="scale(0.015625)"/>
       <path id="DejaVuSans-Oblique-65" d="M 3078 2063 
Q 3088 2113 3092 2166 
Q 3097 2219 3097 2272 
Q 3097 2653 2873 2875 
Q 2650 3097 2266 3097 
Q 1838 3097 1509 2826 
Q 1181 2556 1013 2059 
L 3078 2063 
z
M 3578 1613 
L 903 1613 
Q 884 1494 878 1425 
Q 872 1356 872 1306 
Q 872 872 1139 634 
Q 1406 397 1894 397 
Q 2269 397 2603 481 
Q 2938 566 3225 728 
L 3116 159 
Q 2806 34 2476 -28 
Q 2147 -91 1806 -91 
Q 1078 -91 686 257 
Q 294 606 294 1247 
Q 294 1794 489 2264 
Q 684 2734 1063 3103 
Q 1306 3334 1642 3459 
Q 1978 3584 2356 3584 
Q 2950 3584 3301 3228 
Q 3653 2872 3653 2272 
Q 3653 2128 3634 1964 
Q 3616 1800 3578 1613 
z
" transform="scale(0.015625)"/>
       <path id="DejaVuSans-Oblique-73" d="M 3200 3397 
L 3091 2853 
Q 2863 2978 2609 3040 
Q 2356 3103 2088 3103 
Q 1634 3103 1373 2948 
Q 1113 2794 1113 2528 
Q 1113 2219 1719 2053 
Q 1766 2041 1788 2034 
L 1972 1978 
Q 2547 1819 2739 1644 
Q 2931 1469 2931 1166 
Q 2931 609 2489 259 
Q 2047 -91 1331 -91 
Q 1053 -91 747 -37 
Q 441 16 72 128 
L 184 722 
Q 500 559 806 475 
Q 1113 391 1394 391 
Q 1816 391 2080 572 
Q 2344 753 2344 1031 
Q 2344 1331 1650 1516 
L 1591 1531 
L 1394 1581 
Q 956 1697 753 1886 
Q 550 2075 550 2369 
Q 550 2928 970 3256 
Q 1391 3584 2113 3584 
Q 2397 3584 2667 3537 
Q 2938 3491 3200 3397 
z
" transform="scale(0.015625)"/>
       <path id="DejaVuSans-Oblique-75" d="M 428 1388 
L 838 3500 
L 1416 3500 
L 1006 1409 
Q 975 1256 961 1147 
Q 947 1038 947 966 
Q 947 700 1109 554 
Q 1272 409 1569 409 
Q 2031 409 2368 721 
Q 2706 1034 2809 1563 
L 3194 3500 
L 3769 3500 
L 3091 0 
L 2516 0 
L 2631 550 
Q 2388 244 2052 76 
Q 1716 -91 1338 -91 
Q 878 -91 622 161 
Q 366 413 366 863 
Q 366 956 381 1097 
Q 397 1238 428 1388 
z
" transform="scale(0.015625)"/>
       <path id="DejaVuSans-Oblique-6c" d="M 1172 4863 
L 1747 4863 
L 800 0 
L 225 0 
L 1172 4863 
z
" transform="scale(0.015625)"/>
       <path id="DejaVuSans-Oblique-74" d="M 2706 3500 
L 2619 3053 
L 1472 3053 
L 1100 1153 
Q 1081 1047 1072 975 
Q 1063 903 1063 863 
Q 1063 663 1183 572 
Q 1303 481 1569 481 
L 2150 481 
L 2053 0 
L 1503 0 
Q 991 0 739 200 
Q 488 400 488 806 
Q 488 878 497 964 
Q 506 1050 525 1153 
L 897 3053 
L 409 3053 
L 500 3500 
L 978 3500 
L 1172 4494 
L 1747 4494 
L 1556 3500 
L 2706 3500 
z
" transform="scale(0.015625)"/>
      </defs>
      <use xlink:href="#DejaVuSans-Oblique-72" transform="translate(0 0.015625)"/>
      <use xlink:href="#DejaVuSans-Oblique-65" transform="translate(41.113281 0.015625)"/>
      <use xlink:href="#DejaVuSans-Oblique-73" transform="translate(102.636719 0.015625)"/>
      <use xlink:href="#DejaVuSans-Oblique-75" transform="translate(154.736328 0.015625)"/>
      <use xlink:href="#DejaVuSans-Oblique-6c" transform="translate(218.115234 0.015625)"/>
      <use xlink:href="#DejaVuSans-Oblique-74" transform="translate(245.898438 0.015625)"/>
     </g>
    </g>
   </g>
   <g id="text_2">
    <g clip-path="url(#p3f96a2bb9c)">
     <!-- h -->
     <g transform="translate(71.495825 56.924919)scale(0.125 -0.125)">
      <defs>
       <path id="DejaVuSans-68" d="M 3513 2113 
L 3513 0 
L 2938 0 
L 2938 2094 
Q 2938 2591 2744 2837 
Q 2550 3084 2163 3084 
Q 1697 3084 1428 2787 
Q 1159 2491 1159 1978 
L 1159 0 
L 581 0 
L 581 4863 
L 1159 4863 
L 1159 2956 
Q 1366 3272 1645 3428 
Q 1925 3584 2291 3584 
Q 2894 3584 3203 3211 
Q 3513 2838 3513 2113 
z
" transform="scale(0.015625)"/>
      </defs>
      <use xlink:href="#DejaVuSans-68"/>
     </g>
    </g>
   </g>
   <g id="text_3">
    <g clip-path="url(#p3f96a2bb9c)">
     <!-- l -->
     <g transform="translate(16.275044 30.149919)scale(0.125 -0.125)">
      <defs>
       <path id="DejaVuSans-6c" d="M 603 4863 
L 1178 4863 
L 1178 0 
L 603 0 
L 603 4863 
z
" transform="scale(0.015625)"/>
      </defs>
      <use xlink:href="#DejaVuSans-6c"/>
     </g>
    </g>
   </g>
   <g id="text_4">
    <g clip-path="url(#p3f96a2bb9c)">
     <!-- l -->
     <g transform="translate(16.275044 45.449919)scale(0.125 -0.125)">
      <use xlink:href="#DejaVuSans-6c"/>
     </g>
    </g>
   </g>
  </g>
 </g>
 <defs>
  <clipPath id="p3f96a2bb9c">
   <rect x="7.2" y="7.2" width="180.3734" height="59.6564"/>
  </clipPath>
 </defs>
</svg>
