<?xml version="1.0" encoding="utf-8" standalone="no"?>
<!DOCTYPE svg PUBLIC "-//W3C//DTD SVG 1.1//EN"
  "http://www.w3.org/Graphics/SVG/1.1/DTD/svg11.dtd">
<svg xmlns:xlink="http://www.w3.org/1999/xlink" width="199.3498pt" height="107.28545pt" viewBox="0 0 199.3498 107.28545" xmlns="http://www.w3.org/2000/svg" version="1.1">
 <metadata>
  <rdf:RDF xmlns:dc="http://purl.org/dc/elements/1.1/" xmlns:cc="http://creativecommons.org/ns#" xmlns:rdf="http://www.w3.org/1999/02/22-rdf-syntax-ns#">
   <cc:Work>
    <dc:type rdf:resource="http://purl.org/dc/dcmitype/StillImage"/>
    <dc:date>2022-07-23T11:40:56.128667</dc:date>
    <dc:format>image/svg+xml</dc:format>
    <dc:creator>
     <cc:Agent>
      <dc:title>Matplotlib v3.5.2, https://matplotlib.org/</dc:title>
     </cc:Agent>
    </dc:creator>
   </cc:Work>
  </rdf:RDF>
 </metadata>
 <defs>
  <style type="text/css">*{stroke-linejoin: round; stroke-linecap: butt}</style>
 </defs>
 <g id="figure_1">
  <g id="patch_1">
   <path d="M 0 107.28545 
L 199.3498 107.28545 
L 199.3498 0 
L 0 0 
L 0 107.28545 
z
" style="fill: none"/>
  </g>
  <g id="axes_1">
   <g id="patch_2">
    <path d="M 138.1561 59.71725 
C 139.129926 59.71725 140.063997 59.330345 140.752596 58.641746 
C 141.441195 57.953147 141.8281 57.019076 141.8281 56.04525 
C 141.8281 55.071424 141.441195 54.137353 140.752596 53.448754 
C 140.063997 52.760155 139.129926 52.37325 138.1561 52.37325 
C 137.182274 52.37325 136.248203 52.760155 135.559604 53.448754 
C 134.871005 54.137353 134.4841 55.071424 134.4841 56.04525 
C 134.4841 57.019076 134.871005 57.953147 135.559604 58.641746 
C 136.248203 59.330345 137.182274 59.71725 138.1561 59.71725 
L 138.1561 59.71725 
z
" clip-path="url(#pfd66fd5493)" style="fill: none; stroke: #000000; stroke-width: 2; stroke-linejoin: miter"/>
   </g>
   <g id="patch_3">
    <path d="M 76.9561 36.76725 
C 77.929926 36.76725 78.863997 36.380345 79.552596 35.691746 
C 80.241195 35.003147 80.6281 34.069076 80.6281 33.09525 
C 80.6281 32.121424 80.241195 31.187353 79.552596 30.498754 
C 78.863997 29.810155 77.929926 29.42325 76.9561 29.42325 
C 75.982274 29.42325 75.048203 29.810155 74.359604 30.498754 
C 73.671005 31.187353 73.2841 32.121424 73.2841 33.09525 
C 73.2841 34.069076 73.671005 35.003147 74.359604 35.691746 
C 75.048203 36.380345 75.982274 36.76725 76.9561 36.76725 
L 76.9561 36.76725 
z
" clip-path="url(#pfd66fd5493)" style="fill: none; stroke: #000000; stroke-width: 2; stroke-linejoin: miter"/>
   </g>
   <g id="line2d_1">
    <path d="M 97.7641 71.03925 
L 114.812671 70.939332 
L 116.561243 70.639577 
L 118.309814 70.139985 
L 120.058386 69.440556 
L 121.806957 68.541291 
L 123.992671 67.136189 
L 126.178386 65.418842 
L 128.3641 63.38925 
L 130.549814 61.047413 
L 132.735529 58.393332 
L 134.4841 56.04525 
L 134.4841 56.04525 
L 131.861243 52.598066 
L 129.675529 50.068883 
L 127.489814 47.851944 
L 125.3041 45.94725 
L 123.118386 44.354801 
L 120.932671 43.074597 
L 119.1841 42.27525 
L 117.435529 41.67574 
L 115.686957 41.276066 
L 113.938386 41.07623 
L 113.0641 41.05125 
L 97.7641 41.05125 
L 97.7641 41.05125 
L 99.9673 43.49925 
L 101.36266 45.33525 
L 102.5377 47.17125 
L 103.49242 49.00725 
L 104.22682 50.84325 
L 104.7409 52.67925 
L 105.03466 54.51525 
L 105.1081 56.35125 
L 104.96122 58.18725 
L 104.59402 60.02325 
L 104.0065 61.85925 
L 103.19866 63.69525 
L 102.1705 65.53125 
L 100.92202 67.36725 
L 99.45322 69.20325 
L 97.7641 71.03925 
L 97.7641 71.03925 
" clip-path="url(#pfd66fd5493)" style="fill: none; stroke: #000000; stroke-width: 2; stroke-linecap: round"/>
   </g>
   <g id="line2d_2">
    <path d="M 93.1741 71.03925 
L 93.76162 70.42725 
L 94.32466 69.81525 
L 94.86322 69.20325 
L 95.3773 68.59125 
L 95.8669 67.97925 
L 96.33202 67.36725 
L 96.77266 66.75525 
L 97.18882 66.14325 
L 97.5805 65.53125 
L 97.9477 64.91925 
L 98.29042 64.30725 
L 98.60866 63.69525 
L 98.90242 63.08325 
L 99.1717 62.47125 
L 99.4165 61.85925 
L 99.63682 61.24725 
L 99.83266 60.63525 
L 100.00402 60.02325 
L 100.1509 59.41125 
L 100.2733 58.79925 
L 100.37122 58.18725 
L 100.44466 57.57525 
L 100.49362 56.96325 
L 100.5181 56.35125 
L 100.5181 55.73925 
L 100.49362 55.12725 
L 100.44466 54.51525 
L 100.37122 53.90325 
L 100.2733 53.29125 
L 100.1509 52.67925 
L 100.00402 52.06725 
L 99.83266 51.45525 
L 99.63682 50.84325 
L 99.4165 50.23125 
L 99.1717 49.61925 
L 98.90242 49.00725 
L 98.60866 48.39525 
L 98.29042 47.78325 
L 97.9477 47.17125 
L 97.5805 46.55925 
L 97.18882 45.94725 
L 96.77266 45.33525 
L 96.33202 44.72325 
L 95.8669 44.11125 
L 95.3773 43.49925 
L 94.86322 42.88725 
L 94.32466 42.27525 
L 93.76162 41.66325 
L 93.1741 41.05125 
" clip-path="url(#pfd66fd5493)" style="fill: none; stroke: #000000; stroke-width: 2; stroke-linecap: round"/>
   </g>
   <g id="line2d_3">
    <path d="M 82.4641 63.69525 
L 98.60866 63.69525 
" clip-path="url(#pfd66fd5493)" style="fill: none; stroke: #000000; stroke-width: 2; stroke-linecap: round"/>
   </g>
   <g id="line2d_4">
    <path d="M 82.4641 48.39525 
L 98.60866 48.39525 
" clip-path="url(#pfd66fd5493)" style="fill: none; stroke: #000000; stroke-width: 2; stroke-linecap: round"/>
   </g>
   <g id="line2d_5">
    <path d="M 141.8281 56.04525 
L 145.1941 56.04525 
" clip-path="url(#pfd66fd5493)" style="fill: none; stroke: #000000; stroke-width: 2; stroke-linecap: round"/>
   </g>
   <g id="line2d_6">
    <path d="M 36.5641 48.08925 
L 53.612671 47.989332 
L 55.361243 47.689577 
L 57.109814 47.189985 
L 58.858386 46.490556 
L 60.606957 45.591291 
L 62.792671 44.186189 
L 64.978386 42.468842 
L 67.1641 40.43925 
L 69.349814 38.097413 
L 71.535529 35.443332 
L 73.2841 33.09525 
L 73.2841 33.09525 
L 70.661243 29.648066 
L 68.475529 27.118883 
L 66.289814 24.901944 
L 64.1041 22.99725 
L 61.918386 21.404801 
L 59.732671 20.124597 
L 57.9841 19.32525 
L 56.235529 18.72574 
L 54.486957 18.326066 
L 52.738386 18.12623 
L 51.8641 18.10125 
L 36.5641 18.10125 
L 36.5641 18.10125 
L 38.7673 20.54925 
L 40.16266 22.38525 
L 41.3377 24.22125 
L 42.29242 26.05725 
L 43.02682 27.89325 
L 43.5409 29.72925 
L 43.83466 31.56525 
L 43.9081 33.40125 
L 43.76122 35.23725 
L 43.39402 37.07325 
L 42.8065 38.90925 
L 41.99866 40.74525 
L 40.9705 42.58125 
L 39.72202 44.41725 
L 38.25322 46.25325 
L 36.5641 48.08925 
L 36.5641 48.08925 
" clip-path="url(#pfd66fd5493)" style="fill: none; stroke: #000000; stroke-width: 2; stroke-linecap: round"/>
   </g>
   <g id="line2d_7">
    <path d="M 25.8541 40.74525 
L 41.99866 40.74525 
" clip-path="url(#pfd66fd5493)" style="fill: none; stroke: #000000; stroke-width: 2; stroke-linecap: round"/>
   </g>
   <g id="line2d_8">
    <path d="M 25.8541 25.44525 
L 41.99866 25.44525 
" clip-path="url(#pfd66fd5493)" style="fill: none; stroke: #000000; stroke-width: 2; stroke-linecap: round"/>
   </g>
   <g id="line2d_9">
    <path d="M 80.6281 33.09525 
L 83.9941 33.09525 
" clip-path="url(#pfd66fd5493)" style="fill: none; stroke: #000000; stroke-width: 2; stroke-linecap: round"/>
   </g>
   <g id="line2d_10">
    <path d="M 82.4641 48.39525 
L 83.9941 48.39525 
L 83.9941 33.09525 
" clip-path="url(#pfd66fd5493)" style="fill: none; stroke: #000000; stroke-width: 2; stroke-linecap: round"/>
   </g>
   <g id="line2d_11">
    <path d="M 57.9841 94.29525 
L 58.964374 94.263815 
L 59.940621 94.169637 
L 60.908827 94.013105 
L 61.865015 93.794861 
L 62.805256 93.515803 
L 63.725685 93.177076 
L 64.622521 92.780074 
L 65.492079 92.326426 
L 66.330784 91.817998 
L 67.135191 91.256878 
L 67.901994 90.645373 
L 68.628043 89.985995 
L 69.310353 89.281454 
L 69.946122 88.534644 
L 70.532735 87.748635 
L 71.067784 86.926656 
L 71.549069 86.072086 
L 71.974613 85.188435 
L 72.342667 84.279335 
L 72.651718 83.348522 
L 72.900497 82.39982 
L 73.087981 81.437128 
L 73.2134 80.464402 
L 73.276239 79.485639 
L 73.276239 78.504861 
L 73.2134 77.526098 
L 73.087981 76.553372 
L 72.900497 75.59068 
L 72.651718 74.641978 
L 72.342667 73.711165 
L 71.974613 72.802065 
L 71.549069 71.918414 
L 71.067784 71.063844 
L 70.532735 70.241865 
L 69.946122 69.455856 
L 69.310353 68.709046 
L 68.628043 68.004505 
L 67.901994 67.345127 
L 67.135191 66.733622 
L 66.330784 66.172502 
L 65.492079 65.664074 
L 64.622521 65.210426 
L 63.725685 64.813424 
L 62.805256 64.474697 
L 61.865015 64.195639 
L 60.908827 63.977395 
L 59.940621 63.820863 
L 58.964374 63.726685 
L 57.9841 63.69525 
L 57.9841 63.69525 
L 38.0941 63.69525 
L 38.0941 78.99525 
L 38.0941 94.29525 
L 57.9841 94.29525 
" clip-path="url(#pfd66fd5493)" style="fill: none; stroke: #000000; stroke-width: 2; stroke-linecap: round"/>
   </g>
   <g id="line2d_12">
    <path d="M 27.3841 86.64525 
L 38.0941 86.64525 
" clip-path="url(#pfd66fd5493)" style="fill: none; stroke: #000000; stroke-width: 2; stroke-linecap: round"/>
   </g>
   <g id="line2d_13">
    <path d="M 27.3841 71.34525 
L 38.0941 71.34525 
" clip-path="url(#pfd66fd5493)" style="fill: none; stroke: #000000; stroke-width: 2; stroke-linecap: round"/>
   </g>
   <g id="line2d_14">
    <path d="M 73.2841 78.99525 
L 83.9941 78.99525 
" clip-path="url(#pfd66fd5493)" style="fill: none; stroke: #000000; stroke-width: 2; stroke-linecap: round"/>
   </g>
   <g id="line2d_15">
    <path d="M 82.4641 63.69525 
L 83.9941 63.69525 
L 83.9941 78.99525 
" clip-path="url(#pfd66fd5493)" style="fill: none; stroke: #000000; stroke-width: 2; stroke-linecap: round"/>
   </g>
   <g id="text_1">
    <g clip-path="url(#pfd66fd5493)">
     <!-- $result$ -->
     <g transform="translate(148.2541 59.494469)scale(0.125 -0.125)">
      <defs>
       <path id="DejaVuSans-Oblique-72" d="M 2853 2969 
Q 2766 3016 2653 3041 
Q 2541 3066 2413 3066 
Q 1953 3066 1609 2717 
Q 1266 2369 1153 1784 
L 800 0 
L 225 0 
L 909 3500 
L 1484 3500 
L 1375 2956 
Q 1603 3259 1920 3421 
Q 2238 3584 2597 3584 
Q 2691 3584 2781 3573 
Q 2872 3563 2963 3538 
L 2853 2969 
z
" transform="scale(0.015625)"/>
       <path id="DejaVuSans-Oblique-65" d="M 3078 2063 
Q 3088 2113 3092 2166 
Q 3097 2219 3097 2272 
Q 3097 2653 2873 2875 
Q 2650 3097 2266 3097 
Q 1838 3097 1509 2826 
Q 1181 2556 1013 2059 
L 3078 2063 
z
M 3578 1613 
L 903 1613 
Q 884 1494 878 1425 
Q 872 1356 872 1306 
Q 872 872 1139 634 
Q 1406 397 1894 397 
Q 2269 397 2603 481 
Q 2938 566 3225 728 
L 3116 159 
Q 2806 34 2476 -28 
Q 2147 -91 1806 -91 
Q 1078 -91 686 257 
Q 294 606 294 1247 
Q 294 1794 489 2264 
Q 684 2734 1063 3103 
Q 1306 3334 1642 3459 
Q 1978 3584 2356 3584 
Q 2950 3584 3301 3228 
Q 3653 2872 3653 2272 
Q 3653 2128 3634 1964 
Q 3616 1800 3578 1613 
z
" transform="scale(0.015625)"/>
       <path id="DejaVuSans-Oblique-73" d="M 3200 3397 
L 3091 2853 
Q 2863 2978 2609 3040 
Q 2356 3103 2088 3103 
Q 1634 3103 1373 2948 
Q 1113 2794 1113 2528 
Q 1113 2219 1719 2053 
Q 1766 2041 1788 2034 
L 1972 1978 
Q 2547 1819 2739 1644 
Q 2931 1469 2931 1166 
Q 2931 609 2489 259 
Q 2047 -91 1331 -91 
Q 1053 -91 747 -37 
Q 441 16 72 128 
L 184 722 
Q 500 559 806 475 
Q 1113 391 1394 391 
Q 1816 391 2080 572 
Q 2344 753 2344 1031 
Q 2344 1331 1650 1516 
L 1591 1531 
L 1394 1581 
Q 956 1697 753 1886 
Q 550 2075 550 2369 
Q 550 2928 970 3256 
Q 1391 3584 2113 3584 
Q 2397 3584 2667 3537 
Q 2938 3491 3200 3397 
z
" transform="scale(0.015625)"/>
       <path id="DejaVuSans-Oblique-75" d="M 428 1388 
L 838 3500 
L 1416 3500 
L 1006 1409 
Q 975 1256 961 1147 
Q 947 1038 947 966 
Q 947 700 1109 554 
Q 1272 409 1569 409 
Q 2031 409 2368 721 
Q 2706 1034 2809 1563 
L 3194 3500 
L 3769 3500 
L 3091 0 
L 2516 0 
L 2631 550 
Q 2388 244 2052 76 
Q 1716 -91 1338 -91 
Q 878 -91 622 161 
Q 366 413 366 863 
Q 366 956 381 1097 
Q 397 1238 428 1388 
z
" transform="scale(0.015625)"/>
       <path id="DejaVuSans-Oblique-6c" d="M 1172 4863 
L 1747 4863 
L 800 0 
L 225 0 
L 1172 4863 
z
" transform="scale(0.015625)"/>
       <path id="DejaVuSans-Oblique-74" d="M 2706 3500 
L 2619 3053 
L 1472 3053 
L 1100 1153 
Q 1081 1047 1072 975 
Q 1063 903 1063 863 
Q 1063 663 1183 572 
Q 1303 481 1569 481 
L 2150 481 
L 2053 0 
L 1503 0 
Q 991 0 739 200 
Q 488 400 488 806 
Q 488 878 497 964 
Q 506 1050 525 1153 
L 897 3053 
L 409 3053 
L 500 3500 
L 978 3500 
L 1172 4494 
L 1747 4494 
L 1556 3500 
L 2706 3500 
z
" transform="scale(0.015625)"/>
      </defs>
      <use xlink:href="#DejaVuSans-Oblique-72" transform="translate(0 0.015625)"/>
      <use xlink:href="#DejaVuSans-Oblique-65" transform="translate(41.113281 0.015625)"/>
      <use xlink:href="#DejaVuSans-Oblique-73" transform="translate(102.636719 0.015625)"/>
      <use xlink:href="#DejaVuSans-Oblique-75" transform="translate(154.736328 0.015625)"/>
      <use xlink:href="#DejaVuSans-Oblique-6c" transform="translate(218.115234 0.015625)"/>
      <use xlink:href="#DejaVuSans-Oblique-74" transform="translate(245.898438 0.015625)"/>
     </g>
    </g>
   </g>
   <g id="text_2">
    <g clip-path="url(#pfd66fd5493)">
     <!-- c -->
     <g transform="translate(15.921053 28.894469)scale(0.125 -0.125)">
      <defs>
       <path id="DejaVuSans-63" d="M 3122 3366 
L 3122 2828 
Q 2878 2963 2633 3030 
Q 2388 3097 2138 3097 
Q 1578 3097 1268 2742 
Q 959 2388 959 1747 
Q 959 1106 1268 751 
Q 1578 397 2138 397 
Q 2388 397 2633 464 
Q 2878 531 3122 666 
L 3122 134 
Q 2881 22 2623 -34 
Q 2366 -91 2075 -91 
Q 1284 -91 818 406 
Q 353 903 353 1747 
Q 353 2603 823 3093 
Q 1294 3584 2113 3584 
Q 2378 3584 2631 3529 
Q 2884 3475 3122 3366 
z
" transform="scale(0.015625)"/>
      </defs>
      <use xlink:href="#DejaVuSans-63"/>
     </g>
    </g>
   </g>
   <g id="text_3">
    <g clip-path="url(#pfd66fd5493)">
     <!-- d -->
     <g transform="translate(14.858553 44.194469)scale(0.125 -0.125)">
      <defs>
       <path id="DejaVuSans-64" d="M 2906 2969 
L 2906 4863 
L 3481 4863 
L 3481 0 
L 2906 0 
L 2906 525 
Q 2725 213 2448 61 
Q 2172 -91 1784 -91 
Q 1150 -91 751 415 
Q 353 922 353 1747 
Q 353 2572 751 3078 
Q 1150 3584 1784 3584 
Q 2172 3584 2448 3432 
Q 2725 3281 2906 2969 
z
M 947 1747 
Q 947 1113 1208 752 
Q 1469 391 1925 391 
Q 2381 391 2643 752 
Q 2906 1113 2906 1747 
Q 2906 2381 2643 2742 
Q 2381 3103 1925 3103 
Q 1469 3103 1208 2742 
Q 947 2381 947 1747 
z
" transform="scale(0.015625)"/>
      </defs>
      <use xlink:href="#DejaVuSans-64"/>
     </g>
    </g>
   </g>
   <g id="text_4">
    <g clip-path="url(#pfd66fd5493)">
     <!-- a -->
     <g transform="translate(16.663944 74.794469)scale(0.125 -0.125)">
      <defs>
       <path id="DejaVuSans-61" d="M 2194 1759 
Q 1497 1759 1228 1600 
Q 959 1441 959 1056 
Q 959 750 1161 570 
Q 1363 391 1709 391 
Q 2188 391 2477 730 
Q 2766 1069 2766 1631 
L 2766 1759 
L 2194 1759 
z
M 3341 1997 
L 3341 0 
L 2766 0 
L 2766 531 
Q 2569 213 2275 61 
Q 1981 -91 1556 -91 
Q 1019 -91 701 211 
Q 384 513 384 1019 
Q 384 1609 779 1909 
Q 1175 2209 1959 2209 
L 2766 2209 
L 2766 2266 
Q 2766 2663 2505 2880 
Q 2244 3097 1772 3097 
Q 1472 3097 1187 3025 
Q 903 2953 641 2809 
L 641 3341 
Q 956 3463 1253 3523 
Q 1550 3584 1831 3584 
Q 2591 3584 2966 3190 
Q 3341 2797 3341 1997 
z
" transform="scale(0.015625)"/>
      </defs>
      <use xlink:href="#DejaVuSans-61"/>
     </g>
    </g>
   </g>
   <g id="text_5">
    <g clip-path="url(#pfd66fd5493)">
     <!-- b -->
     <g transform="translate(16.388553 90.094469)scale(0.125 -0.125)">
      <defs>
       <path id="DejaVuSans-62" d="M 3116 1747 
Q 3116 2381 2855 2742 
Q 2594 3103 2138 3103 
Q 1681 3103 1420 2742 
Q 1159 2381 1159 1747 
Q 1159 1113 1420 752 
Q 1681 391 2138 391 
Q 2594 391 2855 752 
Q 3116 1113 3116 1747 
z
M 1159 2969 
Q 1341 3281 1617 3432 
Q 1894 3584 2278 3584 
Q 2916 3584 3314 3078 
Q 3713 2572 3713 1747 
Q 3713 922 3314 415 
Q 2916 -91 2278 -91 
Q 1894 -91 1617 61 
Q 1341 213 1159 525 
L 1159 0 
L 581 0 
L 581 4863 
L 1159 4863 
L 1159 2969 
z
" transform="scale(0.015625)"/>
      </defs>
      <use xlink:href="#DejaVuSans-62"/>
     </g>
    </g>
   </g>
  </g>
 </g>
 <defs>
  <clipPath id="pfd66fd5493">
   <rect x="7.2" y="7.2" width="184.9498" height="92.88545"/>
  </clipPath>
 </defs>
</svg>
