<?xml version="1.0" encoding="utf-8" standalone="no"?>
<!DOCTYPE svg PUBLIC "-//W3C//DTD SVG 1.1//EN"
  "http://www.w3.org/Graphics/SVG/1.1/DTD/svg11.dtd">
<svg xmlns:xlink="http://www.w3.org/1999/xlink" width="199.1475pt" height="71.52765pt" viewBox="0 0 199.1475 71.52765" xmlns="http://www.w3.org/2000/svg" version="1.1">
 <metadata>
  <rdf:RDF xmlns:dc="http://purl.org/dc/elements/1.1/" xmlns:cc="http://creativecommons.org/ns#" xmlns:rdf="http://www.w3.org/1999/02/22-rdf-syntax-ns#">
   <cc:Work>
    <dc:type rdf:resource="http://purl.org/dc/dcmitype/StillImage"/>
    <dc:date>2022-07-24T21:57:59.041904</dc:date>
    <dc:format>image/svg+xml</dc:format>
    <dc:creator>
     <cc:Agent>
      <dc:title>Matplotlib v3.5.2, https://matplotlib.org/</dc:title>
     </cc:Agent>
    </dc:creator>
   </cc:Work>
  </rdf:RDF>
 </metadata>
 <defs>
  <style type="text/css">*{stroke-linejoin: round; stroke-linecap: butt}</style>
 </defs>
 <g id="figure_1">
  <g id="patch_1">
   <path d="M 0 71.52765 
L 199.1475 71.52765 
L 199.1475 0 
L 0 0 
L 0 71.52765 
z
" style="fill: none"/>
  </g>
  <g id="axes_1">
   <g id="patch_2">
    <path d="M 137.9538 48.2244 
C 138.927626 48.2244 139.861697 47.837495 140.550296 47.148896 
C 141.238895 46.460297 141.6258 45.526226 141.6258 44.5524 
C 141.6258 43.578574 141.238895 42.644503 140.550296 41.955904 
C 139.861697 41.267305 138.927626 40.8804 137.9538 40.8804 
C 136.979974 40.8804 136.045903 41.267305 135.357304 41.955904 
C 134.668705 42.644503 134.2818 43.578574 134.2818 44.5524 
C 134.2818 45.526226 134.668705 46.460297 135.357304 47.148896 
C 136.045903 47.837495 136.979974 48.2244 137.9538 48.2244 
L 137.9538 48.2244 
z
" clip-path="url(#p22bbc45aba)" style="fill: none; stroke: #000000; stroke-width: 2; stroke-linejoin: miter"/>
   </g>
   <g id="patch_3">
    <path d="M 76.7538 36.7494 
C 77.727626 36.7494 78.661697 36.362495 79.350296 35.673896 
C 80.038895 34.985297 80.4258 34.051226 80.4258 33.0774 
C 80.4258 32.103574 80.038895 31.169503 79.350296 30.480904 
C 78.661697 29.792305 77.727626 29.4054 76.7538 29.4054 
C 75.779974 29.4054 74.845903 29.792305 74.157304 30.480904 
C 73.468705 31.169503 73.0818 32.103574 73.0818 33.0774 
C 73.0818 34.051226 73.468705 34.985297 74.157304 35.673896 
C 74.845903 36.362495 75.779974 36.7494 76.7538 36.7494 
L 76.7538 36.7494 
z
" clip-path="url(#p22bbc45aba)" style="fill: none; stroke: #000000; stroke-width: 2; stroke-linejoin: miter"/>
   </g>
   <g id="line2d_1">
    <path d="M 118.9818 59.8524 
L 119.962074 59.820965 
L 120.938321 59.726787 
L 121.906527 59.570255 
L 122.862715 59.352011 
L 123.802956 59.072953 
L 124.723385 58.734226 
L 125.620221 58.337224 
L 126.489779 57.883576 
L 127.328484 57.375148 
L 128.132891 56.814028 
L 128.899694 56.202523 
L 129.625743 55.543145 
L 130.308053 54.838604 
L 130.943822 54.091794 
L 131.530435 53.305785 
L 132.065484 52.483806 
L 132.546769 51.629236 
L 132.972313 50.745585 
L 133.340367 49.836485 
L 133.649418 48.905672 
L 133.898197 47.95697 
L 134.085681 46.994278 
L 134.2111 46.021552 
L 134.273939 45.042789 
L 134.273939 44.062011 
L 134.2111 43.083248 
L 134.085681 42.110522 
L 133.898197 41.14783 
L 133.649418 40.199128 
L 133.340367 39.268315 
L 132.972313 38.359215 
L 132.546769 37.475564 
L 132.065484 36.620994 
L 131.530435 35.799015 
L 130.943822 35.013006 
L 130.308053 34.266196 
L 129.625743 33.561655 
L 128.899694 32.902277 
L 128.132891 32.290772 
L 127.328484 31.729652 
L 126.489779 31.221224 
L 125.620221 30.767576 
L 124.723385 30.370574 
L 123.802956 30.031847 
L 122.862715 29.752789 
L 121.906527 29.534545 
L 120.938321 29.378013 
L 119.962074 29.283835 
L 118.9818 29.2524 
L 118.9818 29.2524 
L 99.0918 29.2524 
L 99.0918 44.5524 
L 99.0918 59.8524 
L 118.9818 59.8524 
" clip-path="url(#p22bbc45aba)" style="fill: none; stroke: #000000; stroke-width: 2; stroke-linecap: round"/>
   </g>
   <g id="line2d_2">
    <path d="M 88.3818 52.2024 
L 99.0918 52.2024 
" clip-path="url(#p22bbc45aba)" style="fill: none; stroke: #000000; stroke-width: 2; stroke-linecap: round"/>
   </g>
   <g id="line2d_3">
    <path d="M 88.3818 36.9024 
L 99.0918 36.9024 
" clip-path="url(#p22bbc45aba)" style="fill: none; stroke: #000000; stroke-width: 2; stroke-linecap: round"/>
   </g>
   <g id="line2d_4">
    <path d="M 141.6258 44.5524 
L 144.9918 44.5524 
" clip-path="url(#p22bbc45aba)" style="fill: none; stroke: #000000; stroke-width: 2; stroke-linecap: round"/>
   </g>
   <g id="line2d_5">
    <path d="M 36.3618 48.0714 
L 53.410371 47.971482 
L 55.158943 47.671727 
L 56.907514 47.172135 
L 58.656086 46.472706 
L 60.404657 45.573441 
L 62.590371 44.168339 
L 64.776086 42.450992 
L 66.9618 40.4214 
L 69.147514 38.079563 
L 71.333229 35.425482 
L 73.0818 33.0774 
L 73.0818 33.0774 
L 70.458943 29.630216 
L 68.273229 27.101033 
L 66.087514 24.884094 
L 63.9018 22.9794 
L 61.716086 21.386951 
L 59.530371 20.106747 
L 57.7818 19.3074 
L 56.033229 18.70789 
L 54.284657 18.308216 
L 52.536086 18.10838 
L 51.6618 18.0834 
L 36.3618 18.0834 
L 36.3618 18.0834 
L 38.565 20.5314 
L 39.96036 22.3674 
L 41.1354 24.2034 
L 42.09012 26.0394 
L 42.82452 27.8754 
L 43.3386 29.7114 
L 43.63236 31.5474 
L 43.7058 33.3834 
L 43.55892 35.2194 
L 43.19172 37.0554 
L 42.6042 38.8914 
L 41.79636 40.7274 
L 40.7682 42.5634 
L 39.51972 44.3994 
L 38.05092 46.2354 
L 36.3618 48.0714 
L 36.3618 48.0714 
" clip-path="url(#p22bbc45aba)" style="fill: none; stroke: #000000; stroke-width: 2; stroke-linecap: round"/>
   </g>
   <g id="line2d_6">
    <path d="M 25.6518 40.7274 
L 41.79636 40.7274 
" clip-path="url(#p22bbc45aba)" style="fill: none; stroke: #000000; stroke-width: 2; stroke-linecap: round"/>
   </g>
   <g id="line2d_7">
    <path d="M 25.6518 25.4274 
L 41.79636 25.4274 
" clip-path="url(#p22bbc45aba)" style="fill: none; stroke: #000000; stroke-width: 2; stroke-linecap: round"/>
   </g>
   <g id="line2d_8">
    <path d="M 80.4258 33.0774 
L 83.7918 33.0774 
" clip-path="url(#p22bbc45aba)" style="fill: none; stroke: #000000; stroke-width: 2; stroke-linecap: round"/>
   </g>
   <g id="line2d_9">
    <path d="M 88.3818 36.9024 
L 83.7918 36.9024 
L 83.7918 33.0774 
" clip-path="url(#p22bbc45aba)" style="fill: none; stroke: #000000; stroke-width: 2; stroke-linecap: round"/>
   </g>
   <g id="text_1">
    <g clip-path="url(#p22bbc45aba)">
     <!-- $result$ -->
     <g transform="translate(148.0518 48.001619)scale(0.125 -0.125)">
      <defs>
       <path id="DejaVuSans-Oblique-72" d="M 2853 2969 
Q 2766 3016 2653 3041 
Q 2541 3066 2413 3066 
Q 1953 3066 1609 2717 
Q 1266 2369 1153 1784 
L 800 0 
L 225 0 
L 909 3500 
L 1484 3500 
L 1375 2956 
Q 1603 3259 1920 3421 
Q 2238 3584 2597 3584 
Q 2691 3584 2781 3573 
Q 2872 3563 2963 3538 
L 2853 2969 
z
" transform="scale(0.015625)"/>
       <path id="DejaVuSans-Oblique-65" d="M 3078 2063 
Q 3088 2113 3092 2166 
Q 3097 2219 3097 2272 
Q 3097 2653 2873 2875 
Q 2650 3097 2266 3097 
Q 1838 3097 1509 2826 
Q 1181 2556 1013 2059 
L 3078 2063 
z
M 3578 1613 
L 903 1613 
Q 884 1494 878 1425 
Q 872 1356 872 1306 
Q 872 872 1139 634 
Q 1406 397 1894 397 
Q 2269 397 2603 481 
Q 2938 566 3225 728 
L 3116 159 
Q 2806 34 2476 -28 
Q 2147 -91 1806 -91 
Q 1078 -91 686 257 
Q 294 606 294 1247 
Q 294 1794 489 2264 
Q 684 2734 1063 3103 
Q 1306 3334 1642 3459 
Q 1978 3584 2356 3584 
Q 2950 3584 3301 3228 
Q 3653 2872 3653 2272 
Q 3653 2128 3634 1964 
Q 3616 1800 3578 1613 
z
" transform="scale(0.015625)"/>
       <path id="DejaVuSans-Oblique-73" d="M 3200 3397 
L 3091 2853 
Q 2863 2978 2609 3040 
Q 2356 3103 2088 3103 
Q 1634 3103 1373 2948 
Q 1113 2794 1113 2528 
Q 1113 2219 1719 2053 
Q 1766 2041 1788 2034 
L 1972 1978 
Q 2547 1819 2739 1644 
Q 2931 1469 2931 1166 
Q 2931 609 2489 259 
Q 2047 -91 1331 -91 
Q 1053 -91 747 -37 
Q 441 16 72 128 
L 184 722 
Q 500 559 806 475 
Q 1113 391 1394 391 
Q 1816 391 2080 572 
Q 2344 753 2344 1031 
Q 2344 1331 1650 1516 
L 1591 1531 
L 1394 1581 
Q 956 1697 753 1886 
Q 550 2075 550 2369 
Q 550 2928 970 3256 
Q 1391 3584 2113 3584 
Q 2397 3584 2667 3537 
Q 2938 3491 3200 3397 
z
" transform="scale(0.015625)"/>
       <path id="DejaVuSans-Oblique-75" d="M 428 1388 
L 838 3500 
L 1416 3500 
L 1006 1409 
Q 975 1256 961 1147 
Q 947 1038 947 966 
Q 947 700 1109 554 
Q 1272 409 1569 409 
Q 2031 409 2368 721 
Q 2706 1034 2809 1563 
L 3194 3500 
L 3769 3500 
L 3091 0 
L 2516 0 
L 2631 550 
Q 2388 244 2052 76 
Q 1716 -91 1338 -91 
Q 878 -91 622 161 
Q 366 413 366 863 
Q 366 956 381 1097 
Q 397 1238 428 1388 
z
" transform="scale(0.015625)"/>
       <path id="DejaVuSans-Oblique-6c" d="M 1172 4863 
L 1747 4863 
L 800 0 
L 225 0 
L 1172 4863 
z
" transform="scale(0.015625)"/>
       <path id="DejaVuSans-Oblique-74" d="M 2706 3500 
L 2619 3053 
L 1472 3053 
L 1100 1153 
Q 1081 1047 1072 975 
Q 1063 903 1063 863 
Q 1063 663 1183 572 
Q 1303 481 1569 481 
L 2150 481 
L 2053 0 
L 1503 0 
Q 991 0 739 200 
Q 488 400 488 806 
Q 488 878 497 964 
Q 506 1050 525 1153 
L 897 3053 
L 409 3053 
L 500 3500 
L 978 3500 
L 1172 4494 
L 1747 4494 
L 1556 3500 
L 2706 3500 
z
" transform="scale(0.015625)"/>
      </defs>
      <use xlink:href="#DejaVuSans-Oblique-72" transform="translate(0 0.015625)"/>
      <use xlink:href="#DejaVuSans-Oblique-65" transform="translate(41.113281 0.015625)"/>
      <use xlink:href="#DejaVuSans-Oblique-73" transform="translate(102.636719 0.015625)"/>
      <use xlink:href="#DejaVuSans-Oblique-75" transform="translate(154.736328 0.015625)"/>
      <use xlink:href="#DejaVuSans-Oblique-6c" transform="translate(218.115234 0.015625)"/>
      <use xlink:href="#DejaVuSans-Oblique-74" transform="translate(245.898438 0.015625)"/>
     </g>
    </g>
   </g>
   <g id="text_2">
    <g clip-path="url(#p22bbc45aba)">
     <!-- c -->
     <g transform="translate(78.448753 55.651619)scale(0.125 -0.125)">
      <defs>
       <path id="DejaVuSans-63" d="M 3122 3366 
L 3122 2828 
Q 2878 2963 2633 3030 
Q 2388 3097 2138 3097 
Q 1578 3097 1268 2742 
Q 959 2388 959 1747 
Q 959 1106 1268 751 
Q 1578 397 2138 397 
Q 2388 397 2633 464 
Q 2878 531 3122 666 
L 3122 134 
Q 2881 22 2623 -34 
Q 2366 -91 2075 -91 
Q 1284 -91 818 406 
Q 353 903 353 1747 
Q 353 2603 823 3093 
Q 1294 3584 2113 3584 
Q 2378 3584 2631 3529 
Q 2884 3475 3122 3366 
z
" transform="scale(0.015625)"/>
      </defs>
      <use xlink:href="#DejaVuSans-63"/>
     </g>
    </g>
   </g>
   <g id="text_3">
    <g clip-path="url(#p22bbc45aba)">
     <!-- a -->
     <g transform="translate(14.931644 28.876619)scale(0.125 -0.125)">
      <defs>
       <path id="DejaVuSans-61" d="M 2194 1759 
Q 1497 1759 1228 1600 
Q 959 1441 959 1056 
Q 959 750 1161 570 
Q 1363 391 1709 391 
Q 2188 391 2477 730 
Q 2766 1069 2766 1631 
L 2766 1759 
L 2194 1759 
z
M 3341 1997 
L 3341 0 
L 2766 0 
L 2766 531 
Q 2569 213 2275 61 
Q 1981 -91 1556 -91 
Q 1019 -91 701 211 
Q 384 513 384 1019 
Q 384 1609 779 1909 
Q 1175 2209 1959 2209 
L 2766 2209 
L 2766 2266 
Q 2766 2663 2505 2880 
Q 2244 3097 1772 3097 
Q 1472 3097 1187 3025 
Q 903 2953 641 2809 
L 641 3341 
Q 956 3463 1253 3523 
Q 1550 3584 1831 3584 
Q 2591 3584 2966 3190 
Q 3341 2797 3341 1997 
z
" transform="scale(0.015625)"/>
      </defs>
      <use xlink:href="#DejaVuSans-61"/>
     </g>
    </g>
   </g>
   <g id="text_4">
    <g clip-path="url(#p22bbc45aba)">
     <!-- b -->
     <g transform="translate(14.656253 44.176619)scale(0.125 -0.125)">
      <defs>
       <path id="DejaVuSans-62" d="M 3116 1747 
Q 3116 2381 2855 2742 
Q 2594 3103 2138 3103 
Q 1681 3103 1420 2742 
Q 1159 2381 1159 1747 
Q 1159 1113 1420 752 
Q 1681 391 2138 391 
Q 2594 391 2855 752 
Q 3116 1113 3116 1747 
z
M 1159 2969 
Q 1341 3281 1617 3432 
Q 1894 3584 2278 3584 
Q 2916 3584 3314 3078 
Q 3713 2572 3713 1747 
Q 3713 922 3314 415 
Q 2916 -91 2278 -91 
Q 1894 -91 1617 61 
Q 1341 213 1159 525 
L 1159 0 
L 581 0 
L 581 4863 
L 1159 4863 
L 1159 2969 
z
" transform="scale(0.015625)"/>
      </defs>
      <use xlink:href="#DejaVuSans-62"/>
     </g>
    </g>
   </g>
  </g>
 </g>
 <defs>
  <clipPath id="p22bbc45aba">
   <rect x="7.2" y="7.2" width="184.7475" height="57.12765"/>
  </clipPath>
 </defs>
</svg>
