<?xml version="1.0" encoding="utf-8" standalone="no"?>
<!DOCTYPE svg PUBLIC "-//W3C//DTD SVG 1.1//EN"
  "http://www.w3.org/Graphics/SVG/1.1/DTD/svg11.dtd">
<svg xmlns:xlink="http://www.w3.org/1999/xlink" width="203.9398pt" height="107.28545pt" viewBox="0 0 203.9398 107.28545" xmlns="http://www.w3.org/2000/svg" version="1.1">
 <metadata>
  <rdf:RDF xmlns:dc="http://purl.org/dc/elements/1.1/" xmlns:cc="http://creativecommons.org/ns#" xmlns:rdf="http://www.w3.org/1999/02/22-rdf-syntax-ns#">
   <cc:Work>
    <dc:type rdf:resource="http://purl.org/dc/dcmitype/StillImage"/>
    <dc:date>2022-07-23T11:30:28.227936</dc:date>
    <dc:format>image/svg+xml</dc:format>
    <dc:creator>
     <cc:Agent>
      <dc:title>Matplotlib v3.5.2, https://matplotlib.org/</dc:title>
     </cc:Agent>
    </dc:creator>
   </cc:Work>
  </rdf:RDF>
 </metadata>
 <defs>
  <style type="text/css">*{stroke-linejoin: round; stroke-linecap: butt}</style>
 </defs>
 <g id="figure_1">
  <g id="patch_1">
   <path d="M 0 107.28545 
L 203.9398 107.28545 
L 203.9398 0 
L 0 0 
L 0 107.28545 
z
" style="fill: none"/>
  </g>
  <g id="axes_1">
   <g id="patch_2">
    <path d="M 142.7461 59.71725 
C 143.719926 59.71725 144.653997 59.330345 145.342596 58.641746 
C 146.031195 57.953147 146.4181 57.019076 146.4181 56.04525 
C 146.4181 55.071424 146.031195 54.137353 145.342596 53.448754 
C 144.653997 52.760155 143.719926 52.37325 142.7461 52.37325 
C 141.772274 52.37325 140.838203 52.760155 140.149604 53.448754 
C 139.461005 54.137353 139.0741 55.071424 139.0741 56.04525 
C 139.0741 57.019076 139.461005 57.953147 140.149604 58.641746 
C 140.838203 59.330345 141.772274 59.71725 142.7461 59.71725 
L 142.7461 59.71725 
z
" clip-path="url(#pc5b7930a38)" style="fill: none; stroke: #000000; stroke-width: 2; stroke-linejoin: miter"/>
   </g>
   <g id="line2d_1">
    <path d="M 102.3541 71.03925 
L 119.402671 70.939332 
L 121.151243 70.639577 
L 122.899814 70.139985 
L 124.648386 69.440556 
L 126.396957 68.541291 
L 128.582671 67.136189 
L 130.768386 65.418842 
L 132.9541 63.38925 
L 135.139814 61.047413 
L 137.325529 58.393332 
L 139.0741 56.04525 
L 139.0741 56.04525 
L 136.451243 52.598066 
L 134.265529 50.068883 
L 132.079814 47.851944 
L 129.8941 45.94725 
L 127.708386 44.354801 
L 125.522671 43.074597 
L 123.7741 42.27525 
L 122.025529 41.67574 
L 120.276957 41.276066 
L 118.528386 41.07623 
L 117.6541 41.05125 
L 102.3541 41.05125 
L 102.3541 41.05125 
L 104.5573 43.49925 
L 105.95266 45.33525 
L 107.1277 47.17125 
L 108.08242 49.00725 
L 108.81682 50.84325 
L 109.3309 52.67925 
L 109.62466 54.51525 
L 109.6981 56.35125 
L 109.55122 58.18725 
L 109.18402 60.02325 
L 108.5965 61.85925 
L 107.78866 63.69525 
L 106.7605 65.53125 
L 105.51202 67.36725 
L 104.04322 69.20325 
L 102.3541 71.03925 
L 102.3541 71.03925 
" clip-path="url(#pc5b7930a38)" style="fill: none; stroke: #000000; stroke-width: 2; stroke-linecap: round"/>
   </g>
   <g id="line2d_2">
    <path d="M 97.7641 71.03925 
L 98.35162 70.42725 
L 98.91466 69.81525 
L 99.45322 69.20325 
L 99.9673 68.59125 
L 100.4569 67.97925 
L 100.92202 67.36725 
L 101.36266 66.75525 
L 101.77882 66.14325 
L 102.1705 65.53125 
L 102.5377 64.91925 
L 102.88042 64.30725 
L 103.19866 63.69525 
L 103.49242 63.08325 
L 103.7617 62.47125 
L 104.0065 61.85925 
L 104.22682 61.24725 
L 104.42266 60.63525 
L 104.59402 60.02325 
L 104.7409 59.41125 
L 104.8633 58.79925 
L 104.96122 58.18725 
L 105.03466 57.57525 
L 105.08362 56.96325 
L 105.1081 56.35125 
L 105.1081 55.73925 
L 105.08362 55.12725 
L 105.03466 54.51525 
L 104.96122 53.90325 
L 104.8633 53.29125 
L 104.7409 52.67925 
L 104.59402 52.06725 
L 104.42266 51.45525 
L 104.22682 50.84325 
L 104.0065 50.23125 
L 103.7617 49.61925 
L 103.49242 49.00725 
L 103.19866 48.39525 
L 102.88042 47.78325 
L 102.5377 47.17125 
L 102.1705 46.55925 
L 101.77882 45.94725 
L 101.36266 45.33525 
L 100.92202 44.72325 
L 100.4569 44.11125 
L 99.9673 43.49925 
L 99.45322 42.88725 
L 98.91466 42.27525 
L 98.35162 41.66325 
L 97.7641 41.05125 
" clip-path="url(#pc5b7930a38)" style="fill: none; stroke: #000000; stroke-width: 2; stroke-linecap: round"/>
   </g>
   <g id="line2d_3">
    <path d="M 87.0541 63.69525 
L 103.19866 63.69525 
" clip-path="url(#pc5b7930a38)" style="fill: none; stroke: #000000; stroke-width: 2; stroke-linecap: round"/>
   </g>
   <g id="line2d_4">
    <path d="M 87.0541 48.39525 
L 103.19866 48.39525 
" clip-path="url(#pc5b7930a38)" style="fill: none; stroke: #000000; stroke-width: 2; stroke-linecap: round"/>
   </g>
   <g id="line2d_5">
    <path d="M 146.4181 56.04525 
L 149.7841 56.04525 
" clip-path="url(#pc5b7930a38)" style="fill: none; stroke: #000000; stroke-width: 2; stroke-linecap: round"/>
   </g>
   <g id="line2d_6">
    <path d="M 41.1541 48.08925 
L 58.202671 47.989332 
L 59.951243 47.689577 
L 61.699814 47.189985 
L 63.448386 46.490556 
L 65.196957 45.591291 
L 67.382671 44.186189 
L 69.568386 42.468842 
L 71.7541 40.43925 
L 73.939814 38.097413 
L 76.125529 35.443332 
L 77.8741 33.09525 
L 77.8741 33.09525 
L 75.251243 29.648066 
L 73.065529 27.118883 
L 70.879814 24.901944 
L 68.6941 22.99725 
L 66.508386 21.404801 
L 64.322671 20.124597 
L 62.5741 19.32525 
L 60.825529 18.72574 
L 59.076957 18.326066 
L 57.328386 18.12623 
L 56.4541 18.10125 
L 41.1541 18.10125 
L 41.1541 18.10125 
L 43.3573 20.54925 
L 44.75266 22.38525 
L 45.9277 24.22125 
L 46.88242 26.05725 
L 47.61682 27.89325 
L 48.1309 29.72925 
L 48.42466 31.56525 
L 48.4981 33.40125 
L 48.35122 35.23725 
L 47.98402 37.07325 
L 47.3965 38.90925 
L 46.58866 40.74525 
L 45.5605 42.58125 
L 44.31202 44.41725 
L 42.84322 46.25325 
L 41.1541 48.08925 
L 41.1541 48.08925 
" clip-path="url(#pc5b7930a38)" style="fill: none; stroke: #000000; stroke-width: 2; stroke-linecap: round"/>
   </g>
   <g id="line2d_7">
    <path d="M 36.5641 48.08925 
L 37.15162 47.47725 
L 37.71466 46.86525 
L 38.25322 46.25325 
L 38.7673 45.64125 
L 39.2569 45.02925 
L 39.72202 44.41725 
L 40.16266 43.80525 
L 40.57882 43.19325 
L 40.9705 42.58125 
L 41.3377 41.96925 
L 41.68042 41.35725 
L 41.99866 40.74525 
L 42.29242 40.13325 
L 42.5617 39.52125 
L 42.8065 38.90925 
L 43.02682 38.29725 
L 43.22266 37.68525 
L 43.39402 37.07325 
L 43.5409 36.46125 
L 43.6633 35.84925 
L 43.76122 35.23725 
L 43.83466 34.62525 
L 43.88362 34.01325 
L 43.9081 33.40125 
L 43.9081 32.78925 
L 43.88362 32.17725 
L 43.83466 31.56525 
L 43.76122 30.95325 
L 43.6633 30.34125 
L 43.5409 29.72925 
L 43.39402 29.11725 
L 43.22266 28.50525 
L 43.02682 27.89325 
L 42.8065 27.28125 
L 42.5617 26.66925 
L 42.29242 26.05725 
L 41.99866 25.44525 
L 41.68042 24.83325 
L 41.3377 24.22125 
L 40.9705 23.60925 
L 40.57882 22.99725 
L 40.16266 22.38525 
L 39.72202 21.77325 
L 39.2569 21.16125 
L 38.7673 20.54925 
L 38.25322 19.93725 
L 37.71466 19.32525 
L 37.15162 18.71325 
L 36.5641 18.10125 
" clip-path="url(#pc5b7930a38)" style="fill: none; stroke: #000000; stroke-width: 2; stroke-linecap: round"/>
   </g>
   <g id="line2d_8">
    <path d="M 25.8541 40.74525 
L 41.99866 40.74525 
" clip-path="url(#pc5b7930a38)" style="fill: none; stroke: #000000; stroke-width: 2; stroke-linecap: round"/>
   </g>
   <g id="line2d_9">
    <path d="M 25.8541 25.44525 
L 41.99866 25.44525 
" clip-path="url(#pc5b7930a38)" style="fill: none; stroke: #000000; stroke-width: 2; stroke-linecap: round"/>
   </g>
   <g id="line2d_10">
    <path d="M 77.8741 33.09525 
L 88.5841 33.09525 
" clip-path="url(#pc5b7930a38)" style="fill: none; stroke: #000000; stroke-width: 2; stroke-linecap: round"/>
   </g>
   <g id="line2d_11">
    <path d="M 87.0541 48.39525 
L 88.5841 48.39525 
L 88.5841 33.09525 
" clip-path="url(#pc5b7930a38)" style="fill: none; stroke: #000000; stroke-width: 2; stroke-linecap: round"/>
   </g>
   <g id="line2d_12">
    <path d="M 41.1541 93.98925 
L 58.202671 93.889332 
L 59.951243 93.589577 
L 61.699814 93.089985 
L 63.448386 92.390556 
L 65.196957 91.491291 
L 67.382671 90.086189 
L 69.568386 88.368842 
L 71.7541 86.33925 
L 73.939814 83.997413 
L 76.125529 81.343332 
L 77.8741 78.99525 
L 77.8741 78.99525 
L 75.251243 75.548066 
L 73.065529 73.018883 
L 70.879814 70.801944 
L 68.6941 68.89725 
L 66.508386 67.304801 
L 64.322671 66.024597 
L 62.5741 65.22525 
L 60.825529 64.62574 
L 59.076957 64.226066 
L 57.328386 64.02623 
L 56.4541 64.00125 
L 41.1541 64.00125 
L 41.1541 64.00125 
L 43.3573 66.44925 
L 44.75266 68.28525 
L 45.9277 70.12125 
L 46.88242 71.95725 
L 47.61682 73.79325 
L 48.1309 75.62925 
L 48.42466 77.46525 
L 48.4981 79.30125 
L 48.35122 81.13725 
L 47.98402 82.97325 
L 47.3965 84.80925 
L 46.58866 86.64525 
L 45.5605 88.48125 
L 44.31202 90.31725 
L 42.84322 92.15325 
L 41.1541 93.98925 
L 41.1541 93.98925 
" clip-path="url(#pc5b7930a38)" style="fill: none; stroke: #000000; stroke-width: 2; stroke-linecap: round"/>
   </g>
   <g id="line2d_13">
    <path d="M 36.5641 93.98925 
L 37.15162 93.37725 
L 37.71466 92.76525 
L 38.25322 92.15325 
L 38.7673 91.54125 
L 39.2569 90.92925 
L 39.72202 90.31725 
L 40.16266 89.70525 
L 40.57882 89.09325 
L 40.9705 88.48125 
L 41.3377 87.86925 
L 41.68042 87.25725 
L 41.99866 86.64525 
L 42.29242 86.03325 
L 42.5617 85.42125 
L 42.8065 84.80925 
L 43.02682 84.19725 
L 43.22266 83.58525 
L 43.39402 82.97325 
L 43.5409 82.36125 
L 43.6633 81.74925 
L 43.76122 81.13725 
L 43.83466 80.52525 
L 43.88362 79.91325 
L 43.9081 79.30125 
L 43.9081 78.68925 
L 43.88362 78.07725 
L 43.83466 77.46525 
L 43.76122 76.85325 
L 43.6633 76.24125 
L 43.5409 75.62925 
L 43.39402 75.01725 
L 43.22266 74.40525 
L 43.02682 73.79325 
L 42.8065 73.18125 
L 42.5617 72.56925 
L 42.29242 71.95725 
L 41.99866 71.34525 
L 41.68042 70.73325 
L 41.3377 70.12125 
L 40.9705 69.50925 
L 40.57882 68.89725 
L 40.16266 68.28525 
L 39.72202 67.67325 
L 39.2569 67.06125 
L 38.7673 66.44925 
L 38.25322 65.83725 
L 37.71466 65.22525 
L 37.15162 64.61325 
L 36.5641 64.00125 
" clip-path="url(#pc5b7930a38)" style="fill: none; stroke: #000000; stroke-width: 2; stroke-linecap: round"/>
   </g>
   <g id="line2d_14">
    <path d="M 25.8541 86.64525 
L 41.99866 86.64525 
" clip-path="url(#pc5b7930a38)" style="fill: none; stroke: #000000; stroke-width: 2; stroke-linecap: round"/>
   </g>
   <g id="line2d_15">
    <path d="M 25.8541 71.34525 
L 41.99866 71.34525 
" clip-path="url(#pc5b7930a38)" style="fill: none; stroke: #000000; stroke-width: 2; stroke-linecap: round"/>
   </g>
   <g id="line2d_16">
    <path d="M 77.8741 78.99525 
L 88.5841 78.99525 
" clip-path="url(#pc5b7930a38)" style="fill: none; stroke: #000000; stroke-width: 2; stroke-linecap: round"/>
   </g>
   <g id="line2d_17">
    <path d="M 87.0541 63.69525 
L 88.5841 63.69525 
L 88.5841 78.99525 
" clip-path="url(#pc5b7930a38)" style="fill: none; stroke: #000000; stroke-width: 2; stroke-linecap: round"/>
   </g>
   <g id="text_1">
    <g clip-path="url(#pc5b7930a38)">
     <!-- $result$ -->
     <g transform="translate(152.8441 59.494469)scale(0.125 -0.125)">
      <defs>
       <path id="DejaVuSans-Oblique-72" d="M 2853 2969 
Q 2766 3016 2653 3041 
Q 2541 3066 2413 3066 
Q 1953 3066 1609 2717 
Q 1266 2369 1153 1784 
L 800 0 
L 225 0 
L 909 3500 
L 1484 3500 
L 1375 2956 
Q 1603 3259 1920 3421 
Q 2238 3584 2597 3584 
Q 2691 3584 2781 3573 
Q 2872 3563 2963 3538 
L 2853 2969 
z
" transform="scale(0.015625)"/>
       <path id="DejaVuSans-Oblique-65" d="M 3078 2063 
Q 3088 2113 3092 2166 
Q 3097 2219 3097 2272 
Q 3097 2653 2873 2875 
Q 2650 3097 2266 3097 
Q 1838 3097 1509 2826 
Q 1181 2556 1013 2059 
L 3078 2063 
z
M 3578 1613 
L 903 1613 
Q 884 1494 878 1425 
Q 872 1356 872 1306 
Q 872 872 1139 634 
Q 1406 397 1894 397 
Q 2269 397 2603 481 
Q 2938 566 3225 728 
L 3116 159 
Q 2806 34 2476 -28 
Q 2147 -91 1806 -91 
Q 1078 -91 686 257 
Q 294 606 294 1247 
Q 294 1794 489 2264 
Q 684 2734 1063 3103 
Q 1306 3334 1642 3459 
Q 1978 3584 2356 3584 
Q 2950 3584 3301 3228 
Q 3653 2872 3653 2272 
Q 3653 2128 3634 1964 
Q 3616 1800 3578 1613 
z
" transform="scale(0.015625)"/>
       <path id="DejaVuSans-Oblique-73" d="M 3200 3397 
L 3091 2853 
Q 2863 2978 2609 3040 
Q 2356 3103 2088 3103 
Q 1634 3103 1373 2948 
Q 1113 2794 1113 2528 
Q 1113 2219 1719 2053 
Q 1766 2041 1788 2034 
L 1972 1978 
Q 2547 1819 2739 1644 
Q 2931 1469 2931 1166 
Q 2931 609 2489 259 
Q 2047 -91 1331 -91 
Q 1053 -91 747 -37 
Q 441 16 72 128 
L 184 722 
Q 500 559 806 475 
Q 1113 391 1394 391 
Q 1816 391 2080 572 
Q 2344 753 2344 1031 
Q 2344 1331 1650 1516 
L 1591 1531 
L 1394 1581 
Q 956 1697 753 1886 
Q 550 2075 550 2369 
Q 550 2928 970 3256 
Q 1391 3584 2113 3584 
Q 2397 3584 2667 3537 
Q 2938 3491 3200 3397 
z
" transform="scale(0.015625)"/>
       <path id="DejaVuSans-Oblique-75" d="M 428 1388 
L 838 3500 
L 1416 3500 
L 1006 1409 
Q 975 1256 961 1147 
Q 947 1038 947 966 
Q 947 700 1109 554 
Q 1272 409 1569 409 
Q 2031 409 2368 721 
Q 2706 1034 2809 1563 
L 3194 3500 
L 3769 3500 
L 3091 0 
L 2516 0 
L 2631 550 
Q 2388 244 2052 76 
Q 1716 -91 1338 -91 
Q 878 -91 622 161 
Q 366 413 366 863 
Q 366 956 381 1097 
Q 397 1238 428 1388 
z
" transform="scale(0.015625)"/>
       <path id="DejaVuSans-Oblique-6c" d="M 1172 4863 
L 1747 4863 
L 800 0 
L 225 0 
L 1172 4863 
z
" transform="scale(0.015625)"/>
       <path id="DejaVuSans-Oblique-74" d="M 2706 3500 
L 2619 3053 
L 1472 3053 
L 1100 1153 
Q 1081 1047 1072 975 
Q 1063 903 1063 863 
Q 1063 663 1183 572 
Q 1303 481 1569 481 
L 2150 481 
L 2053 0 
L 1503 0 
Q 991 0 739 200 
Q 488 400 488 806 
Q 488 878 497 964 
Q 506 1050 525 1153 
L 897 3053 
L 409 3053 
L 500 3500 
L 978 3500 
L 1172 4494 
L 1747 4494 
L 1556 3500 
L 2706 3500 
z
" transform="scale(0.015625)"/>
      </defs>
      <use xlink:href="#DejaVuSans-Oblique-72" transform="translate(0 0.015625)"/>
      <use xlink:href="#DejaVuSans-Oblique-65" transform="translate(41.113281 0.015625)"/>
      <use xlink:href="#DejaVuSans-Oblique-73" transform="translate(102.636719 0.015625)"/>
      <use xlink:href="#DejaVuSans-Oblique-75" transform="translate(154.736328 0.015625)"/>
      <use xlink:href="#DejaVuSans-Oblique-6c" transform="translate(218.115234 0.015625)"/>
      <use xlink:href="#DejaVuSans-Oblique-74" transform="translate(245.898438 0.015625)"/>
     </g>
    </g>
   </g>
   <g id="text_2">
    <g clip-path="url(#pc5b7930a38)">
     <!-- c -->
     <g transform="translate(15.921053 28.894469)scale(0.125 -0.125)">
      <defs>
       <path id="DejaVuSans-63" d="M 3122 3366 
L 3122 2828 
Q 2878 2963 2633 3030 
Q 2388 3097 2138 3097 
Q 1578 3097 1268 2742 
Q 959 2388 959 1747 
Q 959 1106 1268 751 
Q 1578 397 2138 397 
Q 2388 397 2633 464 
Q 2878 531 3122 666 
L 3122 134 
Q 2881 22 2623 -34 
Q 2366 -91 2075 -91 
Q 1284 -91 818 406 
Q 353 903 353 1747 
Q 353 2603 823 3093 
Q 1294 3584 2113 3584 
Q 2378 3584 2631 3529 
Q 2884 3475 3122 3366 
z
" transform="scale(0.015625)"/>
      </defs>
      <use xlink:href="#DejaVuSans-63"/>
     </g>
    </g>
   </g>
   <g id="text_3">
    <g clip-path="url(#pc5b7930a38)">
     <!-- d -->
     <g transform="translate(14.858553 44.194469)scale(0.125 -0.125)">
      <defs>
       <path id="DejaVuSans-64" d="M 2906 2969 
L 2906 4863 
L 3481 4863 
L 3481 0 
L 2906 0 
L 2906 525 
Q 2725 213 2448 61 
Q 2172 -91 1784 -91 
Q 1150 -91 751 415 
Q 353 922 353 1747 
Q 353 2572 751 3078 
Q 1150 3584 1784 3584 
Q 2172 3584 2448 3432 
Q 2725 3281 2906 2969 
z
M 947 1747 
Q 947 1113 1208 752 
Q 1469 391 1925 391 
Q 2381 391 2643 752 
Q 2906 1113 2906 1747 
Q 2906 2381 2643 2742 
Q 2381 3103 1925 3103 
Q 1469 3103 1208 2742 
Q 947 2381 947 1747 
z
" transform="scale(0.015625)"/>
      </defs>
      <use xlink:href="#DejaVuSans-64"/>
     </g>
    </g>
   </g>
   <g id="text_4">
    <g clip-path="url(#pc5b7930a38)">
     <!-- a -->
     <g transform="translate(15.133944 74.794469)scale(0.125 -0.125)">
      <defs>
       <path id="DejaVuSans-61" d="M 2194 1759 
Q 1497 1759 1228 1600 
Q 959 1441 959 1056 
Q 959 750 1161 570 
Q 1363 391 1709 391 
Q 2188 391 2477 730 
Q 2766 1069 2766 1631 
L 2766 1759 
L 2194 1759 
z
M 3341 1997 
L 3341 0 
L 2766 0 
L 2766 531 
Q 2569 213 2275 61 
Q 1981 -91 1556 -91 
Q 1019 -91 701 211 
Q 384 513 384 1019 
Q 384 1609 779 1909 
Q 1175 2209 1959 2209 
L 2766 2209 
L 2766 2266 
Q 2766 2663 2505 2880 
Q 2244 3097 1772 3097 
Q 1472 3097 1187 3025 
Q 903 2953 641 2809 
L 641 3341 
Q 956 3463 1253 3523 
Q 1550 3584 1831 3584 
Q 2591 3584 2966 3190 
Q 3341 2797 3341 1997 
z
" transform="scale(0.015625)"/>
      </defs>
      <use xlink:href="#DejaVuSans-61"/>
     </g>
    </g>
   </g>
   <g id="text_5">
    <g clip-path="url(#pc5b7930a38)">
     <!-- b -->
     <g transform="translate(14.858553 90.094469)scale(0.125 -0.125)">
      <defs>
       <path id="DejaVuSans-62" d="M 3116 1747 
Q 3116 2381 2855 2742 
Q 2594 3103 2138 3103 
Q 1681 3103 1420 2742 
Q 1159 2381 1159 1747 
Q 1159 1113 1420 752 
Q 1681 391 2138 391 
Q 2594 391 2855 752 
Q 3116 1113 3116 1747 
z
M 1159 2969 
Q 1341 3281 1617 3432 
Q 1894 3584 2278 3584 
Q 2916 3584 3314 3078 
Q 3713 2572 3713 1747 
Q 3713 922 3314 415 
Q 2916 -91 2278 -91 
Q 1894 -91 1617 61 
Q 1341 213 1159 525 
L 1159 0 
L 581 0 
L 581 4863 
L 1159 4863 
L 1159 2969 
z
" transform="scale(0.015625)"/>
      </defs>
      <use xlink:href="#DejaVuSans-62"/>
     </g>
    </g>
   </g>
  </g>
 </g>
 <defs>
  <clipPath id="pc5b7930a38">
   <rect x="7.2" y="7.2" width="189.5398" height="92.88545"/>
  </clipPath>
 </defs>
</svg>
